<svg width="471" height="830" viewBox="0 0 471 830" fill="none" xmlns="http://www.w3.org/2000/svg">
<g clip-path="url(#clip0_243_851)">
<path d="M294.724 120.763C258.714 103.627 221.956 102.03 220.411 101.978C220.202 101.969 220.017 102.034 219.82 102.07C210.037 98.1964 200.504 94.741 191.228 91.6718C206.972 92.4602 233.118 94.745 257.117 101.318C258.525 101.772 259.969 100.875 260.347 99.4836C260.733 98.0837 259.909 96.6396 258.509 96.2494C220.484 85.8432 177.173 86 176.739 86.0041C176.103 86.0041 175.544 86.2655 175.093 86.6436C164.056 83.4015 153.424 80.6983 143.235 78.4658C158.384 76.5672 184.888 74.6887 210.045 80.0024C211.417 80.2317 212.853 79.395 213.155 77.9751C213.456 76.5591 212.547 75.1714 211.127 74.8657C172.129 66.531 131.264 74.926 129.538 75.288C129.293 75.3403 129.088 75.461 128.874 75.5736C117.129 73.4055 106.039 71.8608 95.6564 70.8069C110.837 67.8504 135.898 64.3347 160.359 66.9734C161.807 67.1303 163.098 66.0845 163.251 64.6484C163.408 63.2003 162.386 61.889 160.922 61.7482C121.308 57.4883 80.246 68.9123 79.8398 69.033C79.5099 69.1255 79.2243 69.2824 78.9669 69.4795C34.5139 66.9332 5.86538 73.3331 -1.92627 75.3765V80.815C-0.445977 80.3886 4.02306 79.1859 11.1993 77.9147C11.3038 78.0314 11.3803 78.1722 11.509 78.2727C12.2491 78.8359 30.1293 92.3355 72.2774 106.35C72.3981 106.386 72.5228 106.418 72.6394 106.439C73.9065 106.668 75.1817 105.944 75.596 104.689C76.0506 103.309 75.3104 101.829 73.9347 101.366C43.5565 91.2655 25.8976 81.3218 18.6329 76.7361C23.0617 76.1086 28.1381 75.5173 33.8582 75.0547C36.9998 76.8085 65.773 92.5769 105.717 106.716C105.854 106.756 105.986 106.797 106.123 106.821C107.374 107.046 108.629 106.346 109.072 105.111C109.55 103.747 108.834 102.251 107.467 101.76C78.3193 91.4506 55.2098 80.2719 43.8461 74.4192C55.1092 73.8922 68.2589 73.9003 83.1342 74.9381C88.1101 78.8802 109.812 95.4248 144.727 113.369C144.965 113.49 145.206 113.575 145.459 113.619C146.566 113.82 147.72 113.289 148.263 112.231C148.923 110.94 148.416 109.359 147.125 108.703C121.067 95.3122 102.515 82.7458 92.909 75.7506C104.779 76.889 117.623 78.679 131.356 81.3339C137.523 86.9453 160.616 107.424 191.023 127.83C191.332 128.031 191.666 128.168 192.012 128.237C193.01 128.418 194.064 128.011 194.667 127.11C195.48 125.908 195.15 124.278 193.947 123.474C170.781 107.931 151.912 92.3476 141.674 83.4699C152.76 85.8914 164.373 88.8641 176.489 92.5085C180.705 96.9293 203.625 120.348 235.838 141.966C236.147 142.175 236.489 142.311 236.835 142.372C237.829 142.553 238.887 142.147 239.486 141.254C240.299 140.051 239.977 138.414 238.766 137.605C215.415 121.933 197.044 105.328 187.318 95.9156C196.67 98.9647 206.296 102.408 216.184 106.294C216.192 106.302 216.192 106.31 216.2 106.318C216.437 106.551 240.862 129.858 276.361 153.683C276.674 153.892 277.004 154.021 277.35 154.089C278.356 154.27 279.406 153.864 280.005 152.971C280.814 151.764 280.496 150.131 279.293 149.327C258.139 135.135 240.991 121.145 230.637 112.215C248.674 119.894 267.495 129.009 287.036 139.842C287.29 139.982 287.559 140.079 287.837 140.127C288.915 140.324 290.041 139.826 290.608 138.812C291.308 137.545 290.85 135.948 289.579 135.248C271.22 125.067 253.472 116.39 236.405 108.985C250.484 111.097 271.807 115.686 292.479 125.529C292.696 125.626 292.917 125.702 293.139 125.739C294.281 125.944 295.46 125.377 295.979 124.287C296.602 122.971 296.047 121.41 294.736 120.783L294.724 120.763Z" fill="#008A52"/>
<path d="M156.35 6.22732C188.594 15.5556 213.034 35.8015 214.055 36.6924C214.187 36.8031 214.286 36.9605 214.384 37.1178C222.726 40.199 230.682 43.3701 238.259 46.6727C227.73 38.0571 209.731 24.4312 190.855 14.9381C189.724 14.4419 189.266 12.9733 189.757 11.8114C190.247 10.6494 191.572 10.1473 192.668 10.6899C222.606 25.7252 250.318 50.9904 250.588 51.2536C250.99 51.6276 251.208 52.1092 251.314 52.6469C260.112 56.8581 268.374 61.2201 276.123 65.6029C267.435 55.5319 251.398 38.8681 232.454 27.8582C231.464 27.2176 230.977 25.8373 231.546 24.6657C232.12 23.5359 233.415 23.122 234.522 23.7481C263.989 40.7478 285.713 70.1401 286.619 71.3841C286.762 71.5783 286.827 71.7821 286.886 71.9442C295.589 77.311 303.501 82.6906 310.734 88.0266C302.588 77.211 288.38 60.2794 271.287 47.8976C270.287 47.1735 269.989 45.7274 270.685 44.6249C271.347 43.5689 272.698 43.2754 273.742 44.0363C301.412 64.1382 321.662 95.7033 321.859 96.018C322.007 96.2539 322.121 96.5364 322.196 96.8237C357.165 125.05 371.714 148.929 372.01 149.401C372.662 150.507 372.363 151.942 371.337 152.619C370.312 153.296 368.962 152.954 368.311 151.848C368.207 151.649 365.929 147.948 361.176 141.84C361.059 141.854 360.908 141.915 360.786 141.888C360.029 141.854 341.331 140.558 306.845 125.575C306.762 125.543 306.635 125.474 306.551 125.441C305.611 124.88 305.178 123.62 305.601 122.551C306.047 121.352 307.323 120.771 308.453 121.267C333.317 132.098 349.949 135.598 357.063 136.755C354.555 133.759 351.605 130.395 348.19 126.791C345.219 126.141 318.369 120.087 285.2 106.467C285.072 106.398 284.989 106.366 284.901 106.292C283.999 105.726 283.533 104.512 283.917 103.448C284.324 102.254 285.599 101.673 286.725 102.128C310.924 112.066 331.69 117.937 342.118 120.592C335.168 113.696 326.74 106.05 316.655 98.1422C311.357 97.9054 288.602 96.4735 256.664 88.3361C256.458 88.2767 256.248 88.1756 256.076 88.0696C255.263 87.5768 254.817 86.5302 255.006 85.4902C255.286 84.2271 256.418 83.4521 257.606 83.7717C281.449 89.8566 300.07 92.137 309.96 92.9939C301.76 86.8873 292.549 80.6088 282.324 74.4553C275.379 74.6758 249.644 75.0939 219.26 71.2132C218.937 71.1682 218.649 71.0767 218.389 70.8969C217.659 70.4362 217.195 69.5614 217.271 68.5775C217.39 67.2919 218.468 66.3965 219.675 66.5444C242.815 69.4963 263.23 69.9456 274.549 69.8639C266.152 65.0524 257.093 60.3228 247.38 55.7583C242.336 56.2952 215.116 58.8028 182.924 54.7212C182.602 54.6762 182.313 54.5847 182.054 54.4049C181.323 53.9442 180.859 53.0694 180.941 52.1273C181.06 50.8417 182.138 49.9463 183.344 50.0941C206.685 53.0637 227.333 52.5099 238.574 51.8023C230.948 48.421 222.943 45.1713 214.518 42.0579C214.518 42.0579 214.518 42.0579 214.479 42.0627C214.206 42.0964 186.115 43.6521 150.621 39.1303C150.299 39.0853 150.01 38.9937 149.75 38.8139C149.02 38.3532 148.556 37.4784 148.638 36.5363C148.757 35.2507 149.835 34.3553 151.041 34.5031C172.169 37.1947 190.652 37.7128 202.053 37.6632C186.391 32.3916 169.443 27.6174 151.124 23.6053C150.88 23.5507 150.669 23.4495 150.459 23.3484C149.64 22.8138 149.199 21.809 149.393 20.8108C149.634 19.5525 150.762 18.7357 151.945 19.0136C169.164 22.7799 185.163 27.2474 200.066 32.1465C189.881 25.3527 173.769 16.1119 155.241 10.7275C155.035 10.6681 154.869 10.6039 154.698 10.4979C153.84 9.96816 153.394 8.92164 153.661 7.87202C153.98 6.60413 155.162 5.90775 156.35 6.22732Z" fill="#008A52"/>
<path d="M-180.475 53.959C-146.91 53.6933 -117.707 66.1189 -116.474 66.6813C-116.316 66.7496 -116.176 66.8722 -116.037 66.9948C-107.163 67.5663 -98.6321 68.3338 -90.4279 69.3359C-102.978 64.0849 -124.118 56.1648 -144.919 52.4559C-146.144 52.3032 -147.003 51.0266 -146.864 49.773C-146.726 48.5193 -145.6 47.6599 -144.394 47.8669C-111.41 53.7293 -77.6382 70.031 -77.3042 70.2062C-76.8116 70.4497 -76.4654 70.849 -76.2104 71.3341C-66.5766 72.8583 -57.4134 74.68 -48.7353 76.6679C-59.937 69.4966 -80.0635 58.1047 -101.363 52.9616C-102.494 52.6304 -103.355 51.4465 -103.145 50.1614C-102.917 48.9148 -101.794 48.1482 -100.554 48.4322C-67.4606 56.3117 -38.2486 78.2782 -37.0252 79.2118C-36.8329 79.3571 -36.7127 79.534 -36.6093 79.6724C-26.7368 82.3312 -17.6185 85.228 -9.16303 88.277C-20.0579 80.2372 -38.5083 68.0667 -58.425 61.0802C-59.5903 60.672 -60.2879 59.3708 -59.9357 58.1155C-59.6027 56.9145 -58.3924 56.2477 -57.1742 56.6787C-24.9168 68.0441 3.50191 92.5142 3.78074 92.7594C3.98986 92.9433 4.17981 93.1815 4.33373 93.4354C45.9061 110.503 66.6673 129.235 67.0856 129.602C68.0255 130.476 68.149 131.937 67.3594 132.878C66.5698 133.82 65.179 133.878 64.2391 133.004C64.0828 132.843 60.8426 129.946 54.5432 125.449C54.4352 125.496 54.3079 125.598 54.183 125.607C53.4481 125.79 35.1585 129.886 -2.16974 125.372C-2.25862 125.365 -2.40036 125.336 -2.48925 125.329C-3.55121 125.059 -4.3255 123.975 -4.22544 122.829C-4.13989 121.553 -3.08361 120.632 -1.85839 120.785C25.0627 124.067 42.0019 122.672 49.1501 121.75C45.8911 119.595 42.1036 117.213 37.8019 114.734C34.7681 114.959 7.30783 116.823 -28.3694 113.24C-28.5112 113.21 -28.6001 113.203 -28.7058 113.158C-29.7318 112.872 -30.5252 111.842 -30.4612 110.713C-30.4117 109.452 -29.3554 108.531 -28.147 108.646C-2.11755 111.262 19.461 110.959 30.2128 110.526C21.5832 105.902 11.3223 100.98 -0.600661 96.2811C-5.74518 97.5666 -27.9616 102.691 -60.8944 104.011C-61.1082 104.012 -61.3388 103.976 -61.5334 103.923C-62.4536 103.683 -63.1797 102.807 -63.2958 101.757C-63.388 100.466 -62.524 99.4 -61.2941 99.3671C-36.7062 98.3916 -18.2093 95.2607 -8.4868 93.2586C-18.0884 89.7471 -28.7085 86.3596 -40.2651 83.3816C-46.8575 85.5755 -71.4021 93.3236 -101.63 98.2792C-101.952 98.3281 -102.254 98.3228 -102.555 98.2247C-103.386 97.9916 -104.081 97.2857 -104.288 96.3209C-104.541 95.0549 -103.764 93.889 -102.565 93.6862C-79.5455 89.9088 -59.8516 84.5108 -49.0274 81.201C-58.448 78.987 -68.4808 77.0407 -79.0924 75.4392C-83.7728 77.3937 -109.144 87.5684 -141.161 92.8474C-141.483 92.8964 -141.786 92.891 -142.086 92.7929C-142.918 92.5598 -143.612 91.854 -143.803 90.9277C-144.056 89.6617 -143.279 88.4958 -142.08 88.293C-118.863 84.4754 -99.2327 78.0496 -88.6612 74.1619C-96.9351 73.0986 -105.535 72.2698 -114.498 71.6913C-114.498 71.6913 -114.498 71.6913 -114.534 71.707C-114.787 71.8172 -141.264 81.328 -176.571 87.1279C-176.893 87.1769 -177.196 87.1715 -177.496 87.0734C-178.327 86.8403 -179.022 86.1345 -179.213 85.2082C-179.466 83.9422 -178.688 82.7763 -177.49 82.5735C-156.473 79.1212 -138.612 74.3408 -127.699 71.038C-144.214 70.4574 -161.819 70.7205 -180.522 72.1056C-180.772 72.123 -181.002 72.0862 -181.233 72.0494C-182.17 71.7707 -182.879 70.9336 -182.978 69.9215C-183.107 68.6468 -182.259 67.5422 -181.046 67.4707C-163.468 66.1641 -146.86 65.878 -131.178 66.3183C-142.879 62.7152 -160.959 58.459 -180.253 58.5885C-180.467 58.5902 -180.645 58.5761 -180.839 58.5235C-181.812 58.2606 -182.538 57.385 -182.582 56.3029C-182.639 54.9967 -181.705 53.9919 -180.475 53.959Z" fill="#008A52"/>
<path d="M320.231 6.861C337.683 31.0778 343.55 60.116 343.77 61.3656C343.801 61.5239 343.783 61.7024 343.764 61.8808C347.906 68.6873 351.726 75.3678 355.207 81.9587C352.619 69.5352 347.581 49.191 339.617 31.7447C339.099 30.7585 339.598 29.331 340.591 28.6422C341.585 27.9535 342.797 28.2304 343.265 29.2368C355.907 56.8895 361.27 91.6877 361.313 92.0406C361.387 92.5518 361.271 93.0547 361.045 93.5454C364.876 101.504 368.246 109.307 371.245 116.863C370.764 104.21 368.802 82.4167 361.637 63.7054C361.299 62.6748 361.728 61.304 362.782 60.6477C363.817 60.028 364.959 60.3616 365.387 61.441C376.601 90.4433 375.451 125.496 375.392 126.972C375.384 127.203 375.316 127.402 375.267 127.564C378.386 136.41 380.941 144.858 383.044 152.921C383.361 139.944 382.833 118.877 377.736 100.01C377.438 98.9061 378.037 97.5801 379.142 97.0456C380.197 96.5313 381.31 96.9907 381.619 98.1471C389.837 128.737 386.437 164.789 386.399 165.146C386.372 165.414 386.294 165.702 386.186 165.974C394.997 206.92 391.882 233.797 391.827 234.332C391.667 235.565 390.655 236.575 389.556 236.594C388.457 236.613 387.7 235.639 387.86 234.406C387.898 234.191 388.365 230.013 388.436 222.606C388.345 222.557 388.205 222.529 388.134 222.443C387.621 222.025 375.204 211.317 359.335 181.357C359.295 181.288 359.244 181.167 359.203 181.098C358.856 180.156 359.256 178.911 360.15 178.263C361.134 177.521 362.354 177.709 362.872 178.695C374.297 200.319 384.032 211.747 388.386 216.359C388.296 212.635 388.103 208.383 387.715 203.697C385.99 201.635 370.5 182.86 354.796 154.685C354.745 154.564 354.704 154.495 354.684 154.389C354.366 153.464 354.717 152.239 355.581 151.575C356.534 150.817 357.755 151.005 358.292 151.954C369.748 172.511 381.065 187.997 386.911 195.535C385.879 186.354 384.226 175.801 381.555 164.181C377.964 161.253 362.77 148.34 344.868 125.246C344.757 125.092 344.665 124.901 344.604 124.727C344.307 123.907 344.579 122.828 345.292 122.082C346.195 121.203 347.424 121.159 348.08 122.032C361.439 139.28 373.253 150.746 379.725 156.549C377.373 147.362 374.407 137.514 370.658 127.244C365.654 123.836 347.332 110.884 328.144 92.0446C327.942 91.8416 327.791 91.6183 327.709 91.3384C327.453 90.5877 327.615 89.6385 328.219 88.8805C329.02 87.8995 330.278 87.7302 331.044 88.4732C345.659 102.818 359.757 113.726 367.758 119.505C364.544 111.268 360.819 102.754 356.542 94.0364C352.697 91.8669 332.164 79.8417 311.818 59.9062C311.617 59.7032 311.465 59.4799 311.383 59.2C311.127 58.4493 311.29 57.5002 311.873 56.7786C312.675 55.7976 313.933 55.6283 314.698 56.3713C329.444 70.8336 344.266 81.0488 352.563 86.2808C349.092 79.6007 345.28 72.8309 341.098 65.9554C341.098 65.9554 341.098 65.9554 341.068 65.9392C340.857 65.8254 320.245 52.5791 297.824 30.5811C297.622 30.3781 297.471 30.1548 297.388 29.8748C297.133 29.1241 297.295 28.175 297.879 27.4535C298.68 26.4724 299.938 26.3031 300.704 27.0462C314.05 40.1402 326.751 50.1061 334.793 55.9545C326.729 43.5911 317.484 30.9671 306.85 18.2527C306.709 18.0822 306.617 17.8914 306.526 17.7007C306.249 16.8445 306.501 15.8022 307.195 15.0928C308.067 14.1971 309.315 14.117 309.992 14.9533C319.991 26.9005 328.74 38.7858 336.478 50.4552C333.114 39.686 326.952 23.8721 316.937 9.93714C316.826 9.7829 316.745 9.6449 316.684 9.47042C316.377 8.59798 316.648 7.51915 317.422 6.80585C318.355 5.94259 319.574 5.98827 320.231 6.861Z" fill="#008A52"/>
<path d="M420.871 281.33C391.116 286.474 362.077 278.93 360.842 278.576C360.684 278.534 360.53 278.438 360.375 278.342C352.349 279.092 344.579 279.607 337.04 279.851C349.498 283.008 370.252 287.449 389.655 287.939C390.782 287.906 391.863 288.993 392.052 290.204C392.241 291.414 391.455 292.394 390.332 292.374C359.568 291.613 325.504 281.054 325.164 280.937C324.666 280.777 324.259 280.449 323.911 280.025C314.973 279.982 306.378 279.587 298.173 278.964C309.911 284.142 330.629 292.027 350.832 293.807C351.92 293.956 352.98 294.955 353.113 296.206C353.221 297.423 352.414 298.315 351.241 298.226C319.878 295.566 288.456 278.963 287.136 278.255C286.929 278.145 286.778 277.994 286.652 277.878C277.219 276.792 268.396 275.37 260.125 273.707C271.806 279.754 291.229 288.622 310.663 292.354C311.8 292.572 312.744 293.706 312.744 294.95C312.747 296.139 311.837 296.948 310.648 296.716C279.159 290.624 247.818 271.528 247.509 271.336C247.278 271.192 247.05 270.994 246.85 270.775C205.665 260.626 182.556 245.863 182.093 245.575C181.04 244.882 180.567 243.513 181.034 242.503C181.501 241.494 182.723 241.237 183.775 241.93C183.954 242.06 187.554 244.339 194.27 247.691C194.355 247.63 194.442 247.515 194.551 247.489C195.158 247.207 210.388 240.652 244.676 239.499C244.756 239.493 244.89 239.5 244.97 239.494C245.981 239.595 246.939 240.512 247.135 241.614C247.377 242.839 246.668 243.867 245.541 243.9C220.806 244.707 206.104 248.5 199.983 250.418C203.415 251.989 207.373 253.699 211.812 255.426C214.451 254.77 238.384 248.998 270.973 247.202C271.107 247.21 271.187 247.203 271.293 247.231C272.275 247.353 273.237 248.215 273.461 249.297C273.731 250.501 273.022 251.53 271.92 251.597C248.143 252.906 229.047 256.338 219.602 258.316C228.421 261.45 238.762 264.628 250.525 267.353C254.776 265.383 273.238 257.279 302.168 251.226C302.357 251.194 302.571 251.195 302.757 251.217C303.635 251.311 304.498 252.036 304.863 253.017C305.266 254.229 304.764 255.367 303.679 255.578C282.077 260.088 266.423 265.756 258.284 269.074C267.689 271.01 277.968 272.679 288.976 273.823C294.287 270.779 314.164 259.844 339.786 250.733C340.06 250.639 340.33 250.6 340.621 250.65C341.418 250.75 342.211 251.319 342.635 252.205C343.175 253.37 342.775 254.591 341.761 254.958C322.25 261.9 306.097 269.896 297.304 274.617C306.225 275.346 315.623 275.732 325.45 275.707C329.121 273.169 349.129 259.809 376.26 250.13C376.534 250.037 376.804 249.997 377.095 250.047C377.892 250.147 378.685 250.716 379.085 251.568C379.625 252.733 379.225 253.954 378.21 254.321C358.534 261.33 342.693 270.293 334.269 275.525C341.885 275.329 349.732 274.863 357.839 274.106C357.839 274.106 357.839 274.106 357.867 274.086C358.064 273.944 379.219 261.054 409.144 250.401C409.417 250.308 409.688 250.269 409.979 250.318C410.776 250.418 411.569 250.987 411.968 251.839C412.509 253.004 412.108 254.225 411.094 254.592C393.281 260.933 378.603 268.076 369.73 272.803C384.547 270.947 400.123 268.132 416.394 264.091C416.611 264.038 416.826 264.039 417.04 264.041C417.942 264.169 418.78 264.86 419.12 265.807C419.552 266.999 419.074 268.171 418.014 268.416C402.722 272.218 388.038 274.91 373.996 276.778C385.289 278.494 402.411 279.901 419.521 276.966C419.71 276.934 419.872 276.921 420.058 276.943C420.988 277.05 421.851 277.776 422.159 278.797C422.534 280.03 421.955 281.12 420.871 281.33Z" fill="#008A52"/>
<g clip-path="url(#clip1_243_851)">
<path d="M292.106 357.331C266.555 354.116 244.719 349.257 231.306 345.876C251.088 344.635 272.232 344.338 294.8 345.265C296.265 345.318 297.502 344.179 297.563 342.706C297.62 341.241 296.457 340.004 295.016 339.947C273.79 339.072 253.802 339.279 235.006 340.329C248.695 335.849 270.067 330.319 293.225 329.835C294.69 329.806 295.854 328.597 295.822 327.124C295.789 325.663 294.585 324.504 293.107 324.528C252.784 325.37 218.81 340.61 217.389 341.249C217.19 341.338 217.043 341.489 216.881 341.619C206.292 342.551 196.119 343.756 186.353 345.184C200.949 338.75 225.618 328.947 250.29 324.007C251.726 323.722 252.654 322.318 252.373 320.882C252.085 319.437 250.689 318.501 249.248 318.794C210.138 326.632 171.052 346.433 170.661 346.637C170.092 346.93 169.709 347.41 169.469 347.955C158.014 350.031 147.173 352.411 136.943 355.016C149.781 346.421 172.912 332.687 198.052 326.083C199.468 325.712 200.314 324.264 199.94 322.839C199.566 321.423 198.121 320.569 196.705 320.955C157.676 331.202 124.515 357.254 123.123 358.352C122.924 358.511 122.79 358.715 122.651 358.914C111.05 362.283 100.323 365.917 90.4588 369.673C102.838 360.11 123.892 345.567 147.218 336.85C148.589 336.333 149.289 334.803 148.776 333.432C148.26 332.052 146.734 331.348 145.358 331.865C107.607 345.982 75.6627 374.951 75.3453 375.244C75.093 375.476 74.9099 375.749 74.7674 376.038C64.6144 380.424 55.5765 384.864 47.6128 389.149C58.4209 377.954 77.0381 360.782 99.1387 349.176C100.441 348.505 100.937 346.889 100.258 345.595C99.57 344.301 97.9667 343.784 96.6686 344.472C60.6387 363.39 34.4688 395.648 33.3701 397.019C33.2724 397.141 33.2399 397.284 33.1666 397.414C29.4147 399.701 26.0168 401.89 22.9689 403.945C28.4015 394.63 39.2381 379.383 58.4942 363.96C59.6377 363.052 59.8289 361.384 58.9133 360.232C57.9936 359.081 56.3171 358.898 55.1777 359.821C25.6709 383.444 15.343 406.411 13.6461 410.554C6.43927 415.946 2.80129 419.413 2.62631 419.584C1.58049 420.613 1.56014 422.294 2.58968 423.344C2.98441 423.755 3.48494 423.999 4.01395 424.101C4.83189 424.251 5.70679 424.007 6.34975 423.393C6.52066 423.222 10.1464 419.775 17.3288 414.428C17.4712 414.485 17.5974 414.57 17.752 414.603C17.7764 414.607 17.8212 414.615 17.8782 414.623C19.9372 414.997 42.2128 418.688 85.4413 412.409C86.894 412.206 87.8992 410.851 87.6876 409.402C87.4841 407.953 86.1412 406.94 84.6803 407.152C52.671 411.803 32.1859 410.839 23.5142 409.988C27.2417 407.412 31.5755 404.568 36.5483 401.552C40.4304 401.715 73.4978 402.879 115.839 397.56C117.292 397.381 118.33 396.051 118.142 394.598C117.955 393.145 116.625 392.124 115.18 392.295C84.192 396.185 58.2541 396.572 45.3055 396.445C55.255 390.862 67.1496 384.909 81.0627 379.102C82.0434 379.301 83.4961 379.59 85.4169 379.94C96.0338 381.869 120.604 385.572 154.132 385.885C155.597 385.894 156.801 384.714 156.809 383.253C156.821 381.788 155.641 380.583 154.176 380.567C124.605 380.29 102.162 377.36 90.2838 375.395C101.527 371.041 113.947 366.837 127.559 363.008C133.545 364.684 151.149 369.388 174.429 373.616C183.113 375.191 192.587 376.701 202.544 377.962C203.997 378.146 205.324 377.112 205.507 375.659C205.698 374.198 204.632 372.961 203.212 372.689C175.256 369.156 151.157 363.638 137.858 360.253C148.98 357.412 160.826 354.828 173.432 352.631C178.332 354.389 200.668 362.068 230.31 367.443C236.418 368.554 242.843 369.563 249.48 370.406C250.933 370.589 252.264 369.555 252.451 368.102C252.634 366.642 251.629 365.405 250.152 365.124C221.967 361.563 197.848 354.893 184.761 350.8C194.601 349.314 204.864 348.061 215.566 347.084C215.924 347.194 235.579 353.209 264.358 358.434C272.696 359.948 281.815 361.396 291.431 362.617C292.884 362.796 294.21 361.767 294.397 360.306C294.585 358.853 293.592 357.612 292.098 357.335L292.106 357.331Z" fill="#008A52"/>
<path d="M415.867 375.391C415.342 374.023 413.808 373.332 412.437 373.865C390.8 382.154 368.911 385.088 354.546 386.101C372.358 379.985 390.95 372.644 410.288 363.83C411.623 363.219 412.217 361.644 411.61 360.31C411 358.979 409.425 358.389 408.09 358.995C387.536 368.363 367.837 376.058 349.04 382.37C360.186 374.186 378.576 361.457 401.03 348.822C402.308 348.106 402.76 346.486 402.043 345.204C401.327 343.922 399.704 343.471 398.426 344.191C360.728 365.396 334.257 386.964 333.992 387.184C323.721 390.309 313.747 393.015 304.078 395.347C314.65 386.622 334.476 371.35 359.242 357.408C360.52 356.688 360.972 355.072 360.255 353.787C359.539 352.501 357.916 352.053 356.634 352.777C322.521 371.976 297.6 393.707 292.9 397.914C280.395 400.629 268.455 402.7 257.086 404.263C268.13 396.112 288.371 381.922 312.913 368.115C314.191 367.394 314.646 365.775 313.93 364.497C313.214 363.215 311.59 362.763 310.309 363.488C278.116 381.592 253.244 400.368 246.501 405.593C232.454 407.18 219.367 407.97 207.31 408.173C217.56 401.874 237.207 390.708 264.524 379.285C265.871 378.719 266.506 377.161 265.941 375.81C265.379 374.451 263.825 373.82 262.465 374.385C225.959 389.645 202.801 404.572 197.36 408.214C182.283 408.08 169.021 407.05 157.7 405.63C169.648 400.625 193.804 391.204 223.974 383.13C225.39 382.752 226.232 381.291 225.854 379.875C225.467 378.455 224.026 377.612 222.598 377.991C181.372 389.035 151.181 402.59 147.657 404.201C141.915 403.282 136.833 402.285 132.41 401.3C140.117 397.247 158.71 388.636 190.117 380.864C191.541 380.518 192.412 379.073 192.058 377.645C191.704 376.221 190.267 375.346 188.843 375.712C145.216 386.5 126.114 398.683 125.325 399.196C125.191 399.286 125.109 399.416 124.995 399.522C116.323 397.275 111.672 395.448 111.448 395.359C110.101 394.809 108.539 395.452 107.985 396.812C107.432 398.175 108.079 399.725 109.438 400.279C109.666 400.372 114.342 402.212 123.046 404.486C126.11 407.624 144.316 425.045 180.643 435.828C180.745 435.853 180.839 435.881 180.928 435.893C182.247 436.134 183.561 435.344 183.944 434.038C184.363 432.63 183.561 431.149 182.157 430.729C158.579 423.73 142.778 413.683 134.208 407.099C136.345 407.546 138.599 407.99 140.996 408.425C142.624 408.722 144.325 409.007 146.07 409.292C146.188 409.39 146.278 409.516 146.42 409.593C147.783 410.346 176.59 426.184 211.35 432.5C215.77 433.301 220.291 433.948 224.865 434.392C226.326 434.53 227.62 433.464 227.762 432.007C227.896 430.542 226.851 429.191 225.373 429.106C200.534 426.697 176.806 417.801 162.567 411.506C171.556 412.474 181.6 413.178 192.66 413.414C192.904 413.634 193.185 413.817 193.511 413.939C193.767 414.037 210.341 420.088 232.767 424.157C245.496 426.469 260.113 428.141 274.698 427.722C276.171 427.677 277.322 426.453 277.278 424.988C277.237 423.527 276.028 422.367 274.547 422.412C249.655 423.124 224.653 417.577 209.58 413.39C220.14 413.154 231.437 412.478 243.458 411.225C243.669 411.359 243.873 411.502 244.125 411.575C244.825 411.779 252.166 413.886 263.369 415.917C279.259 418.802 302.91 421.537 326.374 418.473C327.831 418.285 328.857 416.951 328.665 415.498C328.478 414.045 327.151 413.008 325.686 413.207C299.887 416.568 273.257 412.552 258.132 409.435C268.618 407.99 279.557 406.13 290.987 403.729C291.354 404.083 291.793 404.364 292.322 404.458C292.408 404.474 292.489 404.49 292.574 404.494C293.006 404.531 336.678 408.137 375.849 400.653C377.294 400.376 378.234 398.985 377.957 397.548C377.688 396.108 376.293 395.163 374.848 395.44C350.115 400.161 323.526 400.376 307.582 399.921C317.169 397.564 327.046 394.838 337.207 391.713C337.309 391.745 337.398 391.806 337.508 391.827C337.626 391.847 337.756 391.867 337.878 391.867C339.449 391.928 376.651 393.239 414.325 378.809C415.692 378.284 416.38 376.746 415.855 375.374L415.867 375.391Z" fill="#008A52"/>
<path d="M283.097 491.277C246.668 473.942 209.483 472.326 207.92 472.273C207.709 472.265 207.521 472.33 207.322 472.367C197.425 468.448 187.781 464.953 178.397 461.848C194.325 462.645 220.775 464.957 245.053 471.606C246.477 472.066 247.938 471.158 248.321 469.75C248.711 468.334 247.877 466.873 246.461 466.479C207.994 455.951 164.179 456.11 163.74 456.114C163.097 456.114 162.531 456.378 162.075 456.761C150.909 453.481 140.154 450.747 129.846 448.488C145.171 446.567 171.984 444.667 197.434 450.043C198.821 450.274 200.274 449.428 200.579 447.992C200.884 446.559 199.965 445.155 198.528 444.846C159.076 436.414 117.736 444.907 115.99 445.273C115.742 445.326 115.534 445.448 115.319 445.562C103.436 443.369 92.217 441.806 81.714 440.74C97.0717 437.749 122.424 434.192 147.169 436.862C148.634 437.021 149.94 435.963 150.095 434.51C150.254 433.045 149.22 431.718 147.739 431.576C107.664 427.266 66.1244 438.823 65.7134 438.945C65.3797 439.039 65.0908 439.198 64.8304 439.397C19.8602 436.821 -9.12161 443.296 -17.0039 445.363V450.865C-15.5064 450.433 -10.9854 449.216 -3.72568 447.931C-3.61987 448.049 -3.54256 448.191 -3.41234 448.293C-2.66358 448.862 15.4246 462.519 58.0631 476.697C58.1851 476.733 58.3113 476.766 58.4293 476.786C59.7111 477.018 61.0011 476.286 61.4203 475.016C61.8801 473.62 61.1313 472.123 59.7396 471.655C29.008 461.437 11.1437 451.377 3.79445 446.738C8.27478 446.103 13.4103 445.505 19.1969 445.037C22.375 446.811 51.483 462.763 91.8914 477.067C92.0298 477.108 92.1641 477.148 92.3024 477.173C93.568 477.401 94.8376 476.693 95.2852 475.443C95.7695 474.064 95.0452 472.55 93.6616 472.054C64.1752 461.624 40.7969 450.315 29.301 444.394C40.6952 443.861 53.9978 443.869 69.0462 444.919C74.08 448.907 96.034 465.644 131.356 483.798C131.596 483.92 131.84 484.005 132.096 484.05C133.215 484.253 134.383 483.716 134.933 482.646C135.6 481.34 135.087 479.741 133.781 479.077C107.42 465.53 88.6522 452.818 78.9347 445.741C90.9433 446.893 103.937 448.704 117.829 451.389C124.068 457.066 147.43 477.783 178.19 498.427C178.503 498.63 178.841 498.769 179.191 498.838C180.2 499.021 181.266 498.61 181.877 497.698C182.699 496.482 182.365 494.834 181.148 494.02C157.713 478.296 138.624 462.531 128.267 453.55C139.482 456 151.23 459.007 163.487 462.694C167.752 467.166 190.939 490.858 223.526 512.727C223.84 512.938 224.185 513.076 224.535 513.138C225.54 513.321 226.611 512.91 227.217 512.006C228.039 510.79 227.714 509.133 226.489 508.315C202.866 492.461 184.282 475.663 174.442 466.141C183.903 469.225 193.641 472.709 203.643 476.64C203.652 476.648 203.652 476.656 203.66 476.664C203.9 476.9 228.609 500.478 264.521 524.58C264.838 524.792 265.172 524.922 265.522 524.991C266.539 525.175 267.601 524.764 268.207 523.86C269.025 522.639 268.704 520.987 267.487 520.173C246.087 505.817 228.739 491.664 218.265 482.63C236.511 490.398 255.552 499.619 275.321 510.578C275.577 510.72 275.85 510.818 276.13 510.867C277.221 511.066 278.36 510.562 278.934 509.536C279.642 508.254 279.178 506.639 277.892 505.931C259.32 495.631 241.366 486.854 224.1 479.362C238.343 481.498 259.914 486.142 280.826 496.099C281.046 496.197 281.27 496.274 281.494 496.311C282.65 496.518 283.842 495.945 284.367 494.842C284.998 493.511 284.436 491.932 283.109 491.297L283.097 491.277Z" fill="#008A52"/>
<path d="M225.65 575.134C169.933 589.795 140.976 638.237 160.032 694.349C169.563 720.812 187.089 747.205 212.881 759.344C233.626 769.107 266.954 768.451 286.011 763.161C308.242 755.751 338.92 743.425 350.591 709.698C361.884 677.058 360.752 654.913 346.355 629.769C327.441 596.742 307.521 581.958 280.025 576.082C272.598 563.678 230.582 565.75 225.65 575.134Z" fill="#FF4700"/>
<path d="M263.015 547.715H259.682C260.04 544.752 260.223 541.761 260.227 538.782C260.24 533.407 259.943 526.961 256.817 522.354C253.639 517.663 246.986 516.519 242.754 520.597C238.713 524.491 238.334 531.238 238.408 536.487C238.461 540.227 238.831 544.016 239.49 547.71H236.096C236.096 547.71 228.597 561.257 219.876 576.851C221.992 582.532 232.499 582.402 240.174 575.569C245.012 585.486 257.521 583.834 260.004 575.569C270.625 585.486 279.842 575.988 279.842 575.988L263.011 547.71L263.015 547.715ZM243.812 547.715C243.673 546.994 243.547 546.27 243.437 545.546C243.258 544.365 243.246 544.28 243.104 542.998C242.969 541.802 242.864 540.605 242.786 539.405C242.624 536.797 242.603 534.168 242.86 531.563C243.067 529.468 243.616 526.896 244.618 525.134C245.521 523.551 246.831 522.534 248.398 522.371C249.537 522.253 250.311 522.354 251.096 522.704C251.043 522.68 252.138 523.368 251.885 523.168C252.272 523.474 252.618 523.836 252.931 524.218C252.964 524.267 253.163 524.54 253.2 524.597C253.334 524.804 253.464 525.012 253.586 525.223C253.896 525.765 254.128 526.269 254.258 526.615C254.705 527.771 255.023 528.975 255.271 530.188C255.759 532.601 255.926 535.079 255.963 537.659C255.999 540.215 255.894 542.774 255.674 545.318C255.605 546.119 255.523 546.917 255.43 547.719H243.812V547.715Z" fill="#190209"/>
<path d="M255.946 733.732C283.037 733.732 304.998 705.589 304.998 670.873C304.998 636.157 283.037 608.014 255.946 608.014C228.856 608.014 206.895 636.157 206.895 670.873C206.895 705.589 228.856 733.732 255.946 733.732Z" fill="#008A52"/>
<path d="M289.568 667.573C287.594 667.691 286.121 668.732 285.34 670.482H259.723C263.764 666.34 267.801 662.197 271.842 658.054C272.961 656.907 274.08 655.759 275.199 654.612C275.748 654.046 276.302 653.48 276.851 652.919C277.547 652.203 277.657 652.109 278.613 652.166C280.306 652.268 281.832 651.881 282.939 650.494C285.152 647.726 283.403 643.462 279.887 643.047C276.102 642.599 273.856 646.469 275.264 649.672C269.306 655.784 263.349 661.892 257.391 668.004V640.772C261.668 638.786 260.859 631.946 255.69 631.946C250.522 631.946 249.713 638.786 253.99 640.772V667.703C248.366 661.351 242.742 654.994 237.118 648.642C238.904 645.472 236.666 641.248 232.76 641.663C229.211 642.038 227.396 646.323 229.635 649.118C230.811 650.587 232.133 650.644 233.834 650.807C234.152 650.64 234.42 650.697 234.644 650.97C234.945 651.307 235.242 651.645 235.543 651.987C235.991 652.496 236.443 653.004 236.89 653.509C237.94 654.693 238.986 655.877 240.036 657.061C243.995 661.534 247.955 666.01 251.918 670.482H226.501C225.602 668.667 223.836 667.479 221.72 667.764C219.368 668.081 217.618 670.205 217.74 672.566C217.996 677.673 224.821 678.21 226.619 673.884H251.662C245.7 680 239.735 686.116 233.773 692.233C229.354 690.662 225.15 696.066 228.784 699.7C232.459 703.375 237.912 699.045 236.207 694.605C242.136 688.526 248.065 682.442 253.994 676.362V700.974C249.717 702.959 250.527 709.8 255.695 709.8C260.863 709.8 261.672 702.959 257.396 700.974V676.663C261.168 680.924 264.94 685.185 268.712 689.449C269.762 690.633 270.812 691.822 271.862 693.006C272.285 693.482 272.794 693.97 273.172 694.483C273.746 695.268 273.608 695.179 273.591 696.099C273.563 697.8 273.913 699.285 275.329 700.384C278.125 702.557 282.369 700.746 282.731 697.218C283.118 693.453 279.272 691.268 276.094 692.66C270.552 686.397 265.005 680.135 259.463 673.872H285.34C286.768 676.948 290.943 677.905 293.21 674.991C295.611 671.898 293.238 667.772 289.568 667.56V667.573Z" fill="#EFE9CB"/>
<path d="M332.727 679.199C331.213 678.938 329.948 677.99 329.117 676.737C328.702 676.106 328.401 675.398 328.234 674.641C328.149 674.263 328.104 673.872 328.084 673.473C328.027 673.07 328.011 672.655 328.031 672.236C328.19 668.924 330.835 666.201 333.911 666.152C336.987 666.104 339.335 669.249 339.132 673.168C339.108 673.652 339.042 674.12 338.945 674.572C338.811 675.015 338.631 675.439 338.428 675.837C338.025 676.631 337.508 677.319 336.914 677.864C335.73 678.955 334.241 679.459 332.727 679.199Z" fill="#EFE9CB"/>
<path d="M325.313 703.436C323.921 702.785 322.969 701.543 322.537 700.131C322.151 698.731 321.976 697.03 322.586 695.468C323.128 693.881 324.361 692.697 325.557 691.875C326.802 691.073 328.324 690.739 329.809 691.142C331.295 691.541 332.454 692.632 333.106 694.129C333.809 695.639 333.683 697.458 333.049 699.297C332.345 701.108 331.266 702.581 329.756 703.281C328.291 704.005 326.704 704.091 325.313 703.436Z" fill="#EFE9CB"/>
<path d="M314.325 720.685C313.137 719.68 312.616 718.293 312.473 716.734C312.364 715.196 312.771 713.605 313.78 712.262C314.846 710.96 316.075 709.959 317.532 709.535C318.968 709.108 320.547 709.198 321.874 709.979C323.2 710.756 324.014 712.103 324.218 713.702C324.413 715.289 324.087 717.19 322.867 718.712C321.707 720.27 320.148 721.308 318.618 721.67C317.108 722.061 315.489 721.67 314.329 720.685H314.325Z" fill="#EFE9CB"/>
<path d="M299.175 734.436C297.466 731.876 298.223 728.185 300.884 726.208C303.338 723.978 307.098 723.933 309.283 726.102C311.464 728.267 310.891 732.185 307.969 734.806C304.831 737.17 300.884 736.991 299.175 734.436Z" fill="#EFE9CB"/>
<path d="M280.928 743.677C280.419 742.224 280.639 740.662 281.335 739.335C282.031 737.988 283.252 736.983 284.733 736.186C287.716 734.749 291.394 735.766 292.892 738.346C294.475 741.093 292.859 744.646 289.311 746.343C287.586 747.25 285.653 747.197 284.135 746.701C282.601 746.188 281.441 745.13 280.932 743.677H280.928Z" fill="#EFE9CB"/>
<path d="M260.907 747.82C260.801 746.286 261.424 744.861 262.449 743.803C263.479 742.713 264.891 741.797 266.551 741.565C269.852 741.191 273.054 742.782 273.84 745.785C274.617 748.735 272.191 752.101 268.281 752.573C266.356 752.849 264.537 752.552 263.202 751.649C261.859 750.713 261.013 749.358 260.907 747.824V747.82Z" fill="#EFE9CB"/>
<path d="M240.483 746.636C241.118 743.624 244.292 741.577 247.564 742.086C250.868 742.338 253.538 744.906 253.509 748.007C253.485 751.059 250.278 753.48 246.363 753.163C242.477 752.581 239.844 749.643 240.479 746.636H240.483Z" fill="#EFE9CB"/>
<path d="M221.129 740.023C221.813 738.647 223.083 737.712 224.519 737.284C225.964 736.857 227.547 736.999 229.15 737.512C230.725 738.086 231.938 739.197 232.682 740.544C233.415 741.927 233.736 743.368 233.297 744.861C232.865 746.318 231.722 747.539 230.249 748.035C228.768 748.569 226.896 748.552 225.073 747.881C223.221 747.27 221.899 745.879 221.199 744.43C220.499 742.973 220.442 741.402 221.129 740.027V740.023Z" fill="#EFE9CB"/>
<path d="M204.177 728.592C205.198 727.445 206.659 726.887 208.14 726.875C209.593 726.903 211.273 727.229 212.592 728.263C213.959 729.235 214.736 730.765 215.188 732.133C215.595 733.557 215.477 735.115 214.667 736.422C213.857 737.728 212.482 738.525 210.862 738.717C209.206 738.969 207.505 738.322 205.926 737.191C204.392 735.998 203.294 734.542 203.057 732.898C202.781 731.29 203.155 729.744 204.177 728.596V728.592Z" fill="#EFE9CB"/>
<path d="M190.772 713.145C192.082 712.286 193.543 712.197 195.077 712.498C196.583 712.828 197.995 713.67 199 715.017C199.952 716.405 200.542 717.886 200.542 719.391C200.542 720.893 200.009 722.374 198.886 723.424C197.763 724.474 196.241 724.873 194.646 724.612C193.059 724.356 191.35 723.489 190.235 721.89C189.067 720.336 188.517 718.549 188.603 716.978C188.652 715.424 189.514 713.967 190.776 713.141L190.772 713.145Z" fill="#EFE9CB"/>
<path d="M181.917 694.703C184.859 693.799 188.176 695.582 189.303 698.699C190.74 701.682 189.714 705.299 187.008 706.777C184.31 708.25 180.717 706.585 179.036 703.029C177.673 699.338 178.975 695.606 181.913 694.707L181.917 694.703Z" fill="#EFE9CB"/>
<path d="M178.32 674.572C179.858 674.503 181.282 675.158 182.344 676.208C182.873 676.733 183.313 677.363 183.63 678.067C183.984 678.767 184.289 679.536 184.411 680.367C184.668 682.023 184.277 683.622 183.455 684.932C182.601 686.243 181.526 687.219 179.992 687.561C178.523 687.887 176.871 687.488 175.723 686.438C174.543 685.4 173.66 683.756 173.367 681.836C173.229 680.875 173.221 679.943 173.416 679.085C173.652 678.222 174.018 677.441 174.49 676.782C175.43 675.463 176.786 674.649 178.324 674.58L178.32 674.572Z" fill="#EFE9CB"/>
<path d="M179.988 654.189C181.523 654.53 182.597 655.507 183.451 656.817C184.273 658.128 184.664 659.723 184.408 661.383C184.29 662.213 183.98 662.982 183.626 663.682C183.313 664.386 182.874 665.017 182.34 665.542C181.278 666.592 179.85 667.247 178.316 667.178C176.778 667.109 175.427 666.295 174.483 664.976C174.011 664.317 173.644 663.536 173.408 662.673C173.213 661.815 173.221 660.883 173.359 659.922C173.648 657.997 174.536 656.358 175.716 655.32C176.863 654.27 178.519 653.867 179.984 654.197L179.988 654.189Z" fill="#EFE9CB"/>
<path d="M187.012 634.973C189.714 636.45 190.74 640.064 189.308 643.051C188.18 646.164 184.86 647.946 181.922 647.047C178.98 646.143 177.681 642.412 179.045 638.725C180.725 635.172 184.318 633.504 187.016 634.977L187.012 634.973Z" fill="#EFE9CB"/>
<path d="M198.882 618.317C200.005 619.367 200.538 620.853 200.538 622.35C200.538 623.856 199.948 625.337 198.996 626.725C197.995 628.072 196.583 628.914 195.073 629.243C193.539 629.549 192.078 629.455 190.768 628.596C189.507 627.77 188.644 626.314 188.595 624.759C188.51 623.188 189.063 621.402 190.227 619.847C191.342 618.248 193.051 617.381 194.638 617.125C196.233 616.869 197.755 617.263 198.878 618.313L198.882 618.317Z" fill="#EFE9CB"/>
<path d="M214.667 605.324C215.477 606.63 215.595 608.189 215.188 609.613C214.736 610.98 213.955 612.51 212.592 613.483C211.273 614.517 209.593 614.838 208.14 614.871C206.659 614.858 205.202 614.301 204.177 613.153C203.155 612.006 202.781 610.459 203.057 608.852C203.298 607.208 204.392 605.751 205.926 604.559C207.505 603.428 209.206 602.777 210.862 603.033C212.482 603.224 213.857 604.022 214.667 605.328V605.324Z" fill="#EFE9CB"/>
<path d="M233.297 596.884C233.74 598.378 233.415 599.818 232.682 601.202C231.934 602.549 230.725 603.66 229.15 604.234C227.547 604.742 225.964 604.889 224.519 604.461C223.083 604.034 221.813 603.102 221.129 601.723C220.442 600.347 220.499 598.772 221.199 597.32C221.899 595.871 223.217 594.479 225.073 593.869C226.9 593.197 228.768 593.181 230.249 593.714C231.726 594.211 232.869 595.432 233.297 596.888V596.884Z" fill="#EFE9CB"/>
<path d="M253.513 593.739C253.541 596.835 250.868 599.403 247.568 599.66C244.296 600.172 241.122 598.121 240.487 595.11C239.852 592.099 242.485 589.165 246.371 588.583C250.282 588.269 253.493 590.687 253.517 593.739H253.513Z" fill="#EFE9CB"/>
<path d="M273.835 595.96C273.05 598.96 269.847 600.551 266.547 600.18C264.887 599.948 263.475 599.033 262.445 597.942C261.42 596.884 260.797 595.46 260.903 593.926C261.009 592.392 261.855 591.041 263.198 590.101C264.533 589.193 266.352 588.9 268.276 589.173C272.187 589.645 274.612 593.01 273.835 595.96Z" fill="#EFE9CB"/>
<path d="M292.888 603.399C291.394 605.979 287.716 606.997 284.729 605.56C283.248 604.762 282.027 603.757 281.331 602.41C280.635 601.084 280.419 599.521 280.924 598.068C281.433 596.616 282.592 595.558 284.126 595.045C285.644 594.548 287.577 594.496 289.303 595.403C292.851 597.1 294.467 600.656 292.884 603.399H292.888Z" fill="#EFE9CB"/>
<path d="M309.849 618.387C307.663 620.556 303.903 620.511 301.45 618.281C298.788 616.307 298.031 612.612 299.74 610.053C301.45 607.493 305.397 607.318 308.534 609.682C311.46 612.303 312.03 616.222 309.849 618.387Z" fill="#EFE9CB"/>
<path d="M323.787 634.973C322.46 635.75 320.885 635.844 319.445 635.417C317.992 634.993 316.759 633.992 315.693 632.69C314.684 631.347 314.277 629.756 314.387 628.218C314.529 626.663 315.05 625.276 316.238 624.267C317.398 623.282 319.017 622.891 320.527 623.282C322.061 623.644 323.616 624.682 324.776 626.24C325.996 627.758 326.322 629.659 326.127 631.25C325.919 632.853 325.109 634.196 323.783 634.973H323.787Z" fill="#EFE9CB"/>
<path d="M333.809 654.864C332.324 655.263 330.802 654.929 329.557 654.132C328.365 653.31 327.128 652.125 326.586 650.538C325.976 648.98 326.151 647.275 326.537 645.875C326.973 644.463 327.921 643.222 329.313 642.571C330.704 641.92 332.291 642.001 333.756 642.725C335.266 643.425 336.345 644.894 337.049 646.709C337.679 648.549 337.809 650.368 337.106 651.877C336.454 653.375 335.295 654.465 333.809 654.864Z" fill="#EFE9CB"/>
<path d="M382.478 597.189C377.44 597.189 350.953 574.67 347.091 523.197C344.332 486.394 356.866 454.258 367.365 438.07C371.548 431.621 372.793 427.799 376.614 427.075C381.127 426.221 382.755 430.473 387.96 436.048C401.864 450.95 419.078 483.932 417.47 519.282C415.403 564.777 390.967 597.185 382.478 597.185V597.189Z" fill="#FAC900"/>
<path d="M384.668 422.733H383.052C383.227 421.297 383.312 419.848 383.317 418.403C383.321 415.799 383.178 412.674 381.664 410.44C380.122 408.165 376.899 407.611 374.844 409.589C372.887 411.477 372.704 414.749 372.736 417.292C372.761 419.103 372.94 420.943 373.261 422.733H371.613C371.613 422.733 368.415 434.07 364.964 441.985C368.109 442.539 370.946 440.866 373.733 437.016C375.149 442.087 382.568 441.367 383.74 436.809C388.639 441.814 390.434 440.744 391.703 440.418C387.26 432.251 384.659 422.729 384.659 422.729L384.668 422.733ZM375.357 422.733C375.292 422.383 375.227 422.033 375.174 421.683C375.088 421.109 375.08 421.069 375.011 420.45C374.946 419.872 374.893 419.29 374.856 418.709C374.779 417.443 374.767 416.169 374.893 414.908C374.995 413.89 375.259 412.645 375.748 411.791C376.183 411.022 376.822 410.529 377.579 410.452C378.132 410.395 378.507 410.444 378.885 410.615C378.861 410.602 379.39 410.936 379.268 410.838C379.455 410.985 379.622 411.16 379.776 411.347C379.792 411.372 379.89 411.502 379.906 411.53C379.972 411.632 380.033 411.73 380.094 411.835C380.244 412.096 380.354 412.344 380.419 412.511C380.635 413.072 380.79 413.654 380.912 414.244C381.148 415.412 381.229 416.617 381.245 417.866C381.266 419.103 381.213 420.344 381.107 421.577C381.074 421.964 381.034 422.355 380.989 422.741H375.357V422.733Z" fill="#190209"/>
<path d="M372.993 590.487C381.526 588.404 389.901 585.718 398.064 582.483C400.453 578.841 402.849 574.593 405.112 569.799C392.839 575.508 379.992 579.936 366.706 582.878C368.875 585.909 371.011 588.445 372.993 590.487Z" fill="#EFE9CB"/>
<path d="M355.604 562.071C356.772 565.05 358.005 567.825 359.279 570.405C361.277 570.055 363.263 569.689 365.224 569.302C381.217 566.128 396.713 560.793 411.375 553.717C412.522 550.062 413.556 546.229 414.435 542.229C398.247 550.823 380.948 557.184 362.872 560.773C360.484 561.249 358.05 561.676 355.604 562.075V562.071Z" fill="#EFE9CB"/>
<path d="M417.556 513.097C399.911 523.132 380.855 530.493 360.85 534.469C356.87 535.258 352.792 535.962 348.687 536.499C349.183 539.511 349.757 542.408 350.4 545.179C354.729 544.589 359.023 543.832 363.206 542.998C382.084 539.25 400.273 532.503 417.214 523.416C417.32 522.025 417.405 520.617 417.47 519.201C417.564 517.158 417.588 515.123 417.56 513.101L417.556 513.097Z" fill="#EFE9CB"/>
<path d="M416.197 497.458C415.708 494.349 415.098 491.293 414.386 488.294C396.428 498.659 376.993 506.256 356.56 510.317C353.329 510.96 350.037 511.546 346.713 512.031C346.7 514.956 346.778 517.919 346.953 520.914C350.994 520.34 355.002 519.624 358.913 518.847C379.015 514.855 398.336 507.457 416.197 497.458Z" fill="#EFE9CB"/>
<path d="M410.56 475.301C409.555 472.444 408.465 469.673 407.313 466.995C391.345 475.386 374.303 481.604 356.507 485.14C354.074 485.625 351.6 486.076 349.109 486.479C348.568 489.454 348.104 492.506 347.734 495.623C351.494 495.069 355.217 494.398 358.859 493.674C376.883 490.093 394.279 483.777 410.56 475.305V475.301Z" fill="#EFE9CB"/>
<path d="M401.051 454.344C399.529 451.646 397.962 449.114 396.383 446.758C383.536 453.049 370.034 457.929 356.04 461.16C354.896 464.244 353.81 467.496 352.813 470.894C352.878 470.881 352.947 470.869 353.016 470.857C369.697 467.544 385.836 461.884 401.051 454.344Z" fill="#EFE9CB"/>
<path d="M62.2378 826.146C50.5262 816.465 54.5996 774.291 54.5996 774.291L92.949 727.62L131.298 774.917C131.298 774.917 135.84 816.705 124.083 826.146C118.48 830.647 69.18 831.888 62.2337 826.146H62.2378Z" fill="#FF4700"/>
<path d="M52.5817 778.975C50.5755 780.611 44.6953 783.805 42.2862 776.871C39.3726 768.492 60.0163 749.171 70.1693 736.389C82.9755 720.267 92.4733 708.559 95.7858 708.592C105.459 708.685 108.144 726.782 126.485 748.292C145.704 770.836 141.598 778.812 133.736 776.936C124.78 774.8 94.9638 731.644 94.9638 731.644C94.9638 731.644 62.1405 771.198 52.5857 778.979L52.5817 778.975Z" fill="#EFE9CB"/>
<path d="M105.829 794.332H90.6582V825.162H105.829V794.332Z" fill="#190209"/>
<path d="M82.5397 777.567H68.0854V792.021H82.5397V777.567Z" fill="#EFE9CB"/>
<path d="M96.1965 697.425C92.29 697.425 89.124 700.591 89.124 704.498C89.124 708.404 92.29 711.57 96.1965 711.57C100.103 711.57 103.269 708.404 103.269 704.498C103.269 700.591 100.103 697.425 96.1965 697.425ZM96.1965 708.225C94.1374 708.225 92.469 706.557 92.469 704.498C92.469 702.439 94.1374 700.77 96.1965 700.77C98.2556 700.77 99.924 702.439 99.924 704.498C99.924 706.557 98.2556 708.225 96.1965 708.225Z" fill="#EFE9CB"/>
<path d="M179.813 409.272C179.813 409.272 215.135 421.415 216.608 453.794C218.081 486.174 190.853 496.107 172.456 495.375C154.059 494.638 124.869 477.82 134.925 445.334C144.492 414.428 170.617 409.276 170.617 409.276H179.817L179.813 409.272Z" fill="#FAC900"/>
<path d="M179.052 400.991H177.803C177.937 399.88 178.007 398.761 178.007 397.646C178.011 395.631 177.901 393.218 176.729 391.493C175.536 389.735 173.046 389.308 171.463 390.834C169.949 392.295 169.807 394.822 169.835 396.783C169.856 398.183 169.994 399.603 170.242 400.987H168.969C168.969 400.987 166.161 406.061 162.893 411.901C163.687 414.029 167.622 413.98 170.495 411.42C172.305 415.136 176.993 414.517 177.921 411.42C181.901 415.136 185.352 411.579 185.352 411.579L179.048 400.987L179.052 400.991ZM171.858 400.991C171.805 400.722 171.76 400.449 171.719 400.177C171.65 399.733 171.646 399.701 171.593 399.225C171.544 398.777 171.504 398.329 171.475 397.878C171.414 396.901 171.406 395.916 171.504 394.94C171.581 394.154 171.789 393.19 172.163 392.531C172.501 391.936 172.993 391.558 173.579 391.497C174.006 391.452 174.295 391.489 174.588 391.623C174.568 391.615 174.979 391.871 174.885 391.798C175.028 391.912 175.162 392.046 175.276 392.189C175.288 392.209 175.361 392.307 175.378 392.331C175.427 392.408 175.475 392.486 175.52 392.567C175.634 392.771 175.724 392.958 175.772 393.088C175.939 393.519 176.057 393.971 176.151 394.427C176.334 395.33 176.395 396.258 176.411 397.227C176.428 398.183 176.383 399.143 176.302 400.095C176.277 400.397 176.245 400.694 176.212 400.995H171.858V400.991Z" fill="#190209"/>
<path d="M200.087 460.281C200.087 456.928 198.28 454.006 195.594 452.411C197.336 450.742 198.426 448.398 198.426 445.798C198.426 441.57 195.558 438.022 191.663 436.968C192.493 435.588 192.982 433.981 192.982 432.251C192.982 427.193 188.88 423.091 183.822 423.091C182.011 423.091 180.33 424.283 178.906 425.191C177.233 423.413 174.861 421.638 172.228 421.638C167.617 421.638 163.813 425.049 163.174 429.48C162.97 429.468 162.767 429.447 162.559 429.447C157.501 429.447 153.399 433.549 153.399 438.608C153.399 439.857 153.652 441.045 154.103 442.132C151.328 443.706 149.456 446.681 149.456 450.099C149.456 452.484 150.372 454.645 151.865 456.273C150.376 457.9 149.456 460.065 149.456 462.446C149.456 466.32 151.865 469.624 155.263 470.963C154.937 471.903 154.75 472.912 154.75 473.966C154.75 479.024 158.852 483.126 163.91 483.126C165.05 483.126 166.136 482.91 167.141 482.528C168.635 485.559 171.748 487.651 175.357 487.651C178.967 487.651 181.958 485.645 183.484 482.711C184.347 482.98 185.262 483.126 186.214 483.126C191.273 483.126 195.374 479.024 195.374 473.966C195.374 472.11 194.821 470.389 193.873 468.948C197.486 467.72 200.087 464.309 200.087 460.281Z" fill="#FF4700"/>
<path d="M174.772 479.797C185.768 479.797 194.683 468.374 194.683 454.283C194.683 440.191 185.768 428.768 174.772 428.768C163.775 428.768 154.86 440.191 154.86 454.283C154.86 468.374 163.775 479.797 174.772 479.797Z" fill="#EFE9CB"/>
<path d="M189.832 452.801C188.949 452.854 188.289 453.322 187.935 454.104H176.46C178.271 452.248 180.078 450.392 181.888 448.537C182.389 448.024 182.889 447.507 183.394 446.994C183.642 446.742 183.886 446.49 184.135 446.238C184.448 445.916 184.497 445.875 184.924 445.9C185.681 445.945 186.365 445.77 186.861 445.151C187.854 443.914 187.069 442.001 185.494 441.814C183.797 441.615 182.792 443.348 183.423 444.781C180.753 447.519 178.084 450.254 175.414 452.993V440.793C177.331 439.902 176.969 436.837 174.653 436.837C172.338 436.837 171.976 439.902 173.892 440.793V452.858C171.373 450.014 168.854 447.165 166.335 444.321C167.137 442.901 166.132 441.008 164.382 441.196C162.791 441.363 161.981 443.283 162.982 444.537C163.511 445.196 164.101 445.22 164.862 445.293C165.005 445.22 165.123 445.245 165.224 445.367C165.359 445.517 165.493 445.672 165.627 445.822C165.827 446.05 166.03 446.278 166.23 446.506C166.698 447.035 167.17 447.568 167.638 448.097C169.412 450.103 171.186 452.106 172.96 454.112H161.574C161.171 453.298 160.382 452.765 159.434 452.895C158.38 453.037 157.599 453.99 157.651 455.048C157.765 457.335 160.821 457.575 161.627 455.638H172.846C170.177 458.376 167.503 461.119 164.834 463.858C162.856 463.154 160.972 465.575 162.6 467.203C164.248 468.851 166.689 466.91 165.924 464.92C168.582 462.197 171.235 459.471 173.892 456.749V467.772C171.976 468.664 172.338 471.728 174.653 471.728C176.969 471.728 177.331 468.664 175.414 467.772V456.883C177.103 458.791 178.796 460.7 180.484 462.608C180.957 463.142 181.424 463.671 181.897 464.204C182.088 464.419 182.316 464.635 182.483 464.867C182.739 465.221 182.678 465.18 182.67 465.591C182.658 466.352 182.816 467.02 183.447 467.512C184.7 468.485 186.601 467.675 186.763 466.096C186.938 464.407 185.213 463.43 183.793 464.053C181.311 461.249 178.824 458.441 176.342 455.638H187.935C188.574 457.017 190.446 457.444 191.459 456.138C192.534 454.755 191.472 452.903 189.828 452.81L189.832 452.801Z" fill="#3264BC"/>
<path d="M294.381 474.731C281.249 474.731 247.348 408.214 262.876 377.751C278.405 347.284 325.475 355.093 331.294 381.633C339.058 417.04 306.813 474.731 294.381 474.731Z" fill="#FF9DBE"/>
<path d="M331.66 383.517C323.058 381.621 312.701 387.708 309.747 394.187C303.305 380.306 286.946 380.966 279.341 395.009C272.565 385.328 265.607 384.168 260.048 385.771C252.679 418.513 282.303 474.731 294.377 474.731C306.451 474.731 337.923 419.046 331.656 383.517H331.66Z" fill="#3264BC"/>
<path d="M294.283 474.731C295.48 474.731 296.863 474.19 298.373 473.189C305.425 454.665 309.649 394.187 309.649 394.187C303.207 380.306 286.849 380.966 279.243 395.009C279.243 395.009 282.995 454.401 290.035 473.01C291.598 474.121 293.034 474.731 294.283 474.731Z" fill="#A0CCB7"/>
<path d="M301.808 347.023H300.257C300.424 345.644 300.509 344.252 300.514 342.864C300.518 340.362 300.379 337.363 298.926 335.218C297.445 333.033 294.349 332.5 292.379 334.4C290.499 336.215 290.32 339.357 290.356 341.798C290.381 343.54 290.552 345.302 290.861 347.023H289.282C289.282 347.023 285.791 353.327 281.729 360.59C282.714 363.235 287.606 363.174 291.178 359.992C293.429 364.607 299.256 363.838 300.412 359.992C305.356 364.607 309.645 360.188 309.645 360.188L301.812 347.023H301.808ZM292.867 347.023C292.802 346.69 292.745 346.352 292.692 346.014C292.607 345.465 292.603 345.424 292.538 344.83C292.477 344.272 292.424 343.715 292.391 343.157C292.314 341.945 292.306 340.72 292.428 339.507C292.525 338.531 292.782 337.334 293.246 336.516C293.665 335.78 294.275 335.304 295.004 335.23C295.533 335.177 295.895 335.222 296.257 335.385C296.233 335.373 296.741 335.694 296.623 335.601C296.802 335.743 296.965 335.91 297.112 336.089C297.128 336.113 297.217 336.24 297.238 336.264C297.299 336.362 297.36 336.455 297.417 336.557C297.559 336.809 297.669 337.045 297.73 337.204C297.938 337.741 298.088 338.303 298.202 338.868C298.43 339.991 298.507 341.143 298.524 342.348C298.54 343.536 298.491 344.728 298.389 345.912C298.357 346.287 298.32 346.657 298.275 347.027H292.867V347.023Z" fill="#190209"/>
<path d="M295.024 466.247C295.024 466.247 282.657 396.437 295.024 395.497C307.39 394.557 295.024 466.247 295.024 466.247Z" fill="#FF4700"/>
<path d="M305.169 464.074C305.169 464.074 315.212 396.392 323.461 396.401C332.421 396.413 305.169 464.074 305.169 464.074Z" fill="#C2B300"/>
<path d="M284.472 465.429C284.472 465.429 273.945 396.4 265.171 397.756C256.316 399.123 284.472 465.429 284.472 465.429Z" fill="#C2B300"/>
<path d="M283.43 377.817C284.275 375.062 283.29 372.317 281.23 371.685C279.169 371.052 276.814 372.773 275.968 375.527C275.123 378.281 276.108 381.027 278.169 381.659C280.229 382.292 282.585 380.571 283.43 377.817Z" fill="#FF4700"/>
<path d="M316.03 376.204C316.542 379.041 315.24 381.649 313.12 382.036C311 382.418 308.864 380.432 308.351 377.596C307.838 374.76 309.14 372.151 311.26 371.765C313.381 371.382 315.517 373.368 316.03 376.204Z" fill="#FF4700"/>
<path d="M299.866 374.198C299.659 377.071 297.75 379.277 295.602 379.122C293.453 378.967 291.878 376.51 292.086 373.637C292.293 370.764 294.202 368.558 296.35 368.713C298.499 368.867 300.074 371.325 299.866 374.198Z" fill="#FF4700"/>
<path d="M69.5547 298V326.306C69.5547 327.698 69.3756 329.216 69.5547 330.599C69.5628 330.66 69.5547 330.726 69.5547 330.787C69.5547 331.727 71.0725 331.731 71.0725 330.787V298H69.5547Z" fill="#190209"/>
<path d="M173.164 298V389.116C173.164 390.508 172.985 392.026 173.164 393.41C173.172 393.471 173.164 393.536 173.164 393.597C173.164 394.537 174.682 394.541 174.682 393.597V298H173.164Z" fill="#190209"/>
<path d="M294.67 298V334.937C294.67 336.329 294.491 337.847 294.67 339.23C294.679 339.292 294.67 339.357 294.67 339.418C294.67 340.358 296.188 340.362 296.188 339.418V298H294.67Z" fill="#190209"/>
<path d="M250.111 529.712V343.845C250.111 341.383 250.298 333.562 250.111 331.108C250.103 331.002 250.111 330.884 250.111 330.778C250.111 329.11 248.524 329.11 248.524 330.778V521.773C248.524 524.234 248.337 526.928 248.524 529.378C248.532 529.484 248.524 529.602 248.524 529.708C248.524 531.376 250.111 531.376 250.111 529.708V529.712Z" fill="#190209"/>
<path d="M96.9904 703.175V506.59C96.9904 503.985 96.3027 436.797 96.1115 434.204C96.1033 434.091 96.1115 433.968 96.1115 433.855C96.1115 432.093 94.5244 432.088 94.5244 433.855C94.5244 440.626 95.4034 511.737 95.4034 518.509V694.78C95.4034 697.384 95.2162 700.233 95.4034 702.825C95.4115 702.939 95.4034 703.061 95.4034 703.175C95.4034 704.937 96.9904 704.941 96.9904 703.175Z" fill="#190209"/>
<path d="M141.68 563.854C143.881 561.721 139.966 556.004 137.598 555.658C123.176 553.542 108.763 551.43 94.3411 549.314C94.1743 548.984 94.036 548.744 93.8284 548.329C91.2525 543.088 88.6685 537.859 86.0926 532.609C82.7232 525.748 74.963 510.362 74.4299 509.267C76.2408 508.336 77.3151 506.822 77.3151 504.649C77.3151 501.552 74.8043 499.041 71.7075 499.041C68.6108 499.041 66.1 501.552 66.1 504.649C66.1 506.871 67.394 508.783 69.27 509.691C62.7713 522.806 56.2766 535.918 49.786 549.033C47.845 552.948 12.1122 554.429 5.38149 555.393C1.40982 555.963 5.03559 562.014 6.38661 563.333C16.2466 572.965 26.0985 582.601 35.9625 592.237C35.8933 592.795 35.8038 593.474 35.6492 594.337C34.6563 600.083 33.6552 605.841 32.6582 611.603C31.3804 618.977 30.1149 626.35 28.829 633.728C28.0395 637.626 30.9043 641.883 33.8994 641.61C35.6899 641.321 61.5545 627.416 74.7677 620.486C76.7169 619.469 106.464 637.643 113.459 641.342C116.047 642.701 117.166 640.548 116.763 638.2C114.244 623.347 111.717 608.49 109.19 593.641C109.154 593.409 136.341 569.046 141.68 563.854ZM71.7116 501.69C73.3434 501.69 74.6659 503.013 74.6659 504.645C74.6659 506.277 73.3434 507.599 71.7116 507.599C71.6709 507.599 71.6384 507.591 71.5977 507.587C71.4308 507.542 71.264 507.526 71.1053 507.534C69.7665 507.253 68.7573 506.065 68.7573 504.641C68.7573 503.009 70.0798 501.686 71.7116 501.686V501.69Z" fill="#A0CCB7"/>
<path d="M130.798 563.825C128.316 555.271 76.6433 576.118 72.0328 577.994C72.0734 577.905 72.0612 577.897 71.9921 577.974C72.6676 573.534 81.1521 516.784 72.2199 517.463C63.3203 518.139 71.2108 573.245 71.8985 577.929C71.8578 577.885 71.8496 577.897 71.8822 577.962C66.9868 575.732 15.5626 552.524 13.9797 561.261C12.4008 569.986 66.5229 577.376 71.8334 578.08C71.7479 578.116 71.756 578.129 71.8618 578.121C68.5453 581.872 30.4564 625.264 38.1108 629.838C45.7489 634.399 69.7539 582.922 71.9351 578.202C71.9392 578.239 71.9514 578.214 71.9636 578.145C71.9636 578.145 71.9636 578.141 71.9636 578.137C74.0715 582.369 100.087 634.192 107.18 628.743C114.252 623.31 75.4429 581.71 72.0612 578.108C72.1793 578.125 72.2159 578.116 72.163 578.092C77.7949 577.579 133.26 572.326 130.794 563.829L130.798 563.825Z" fill="#3264BC"/>
<path d="M77.5302 583.161C80.2308 580.335 80.13 575.856 77.3049 573.155C74.4798 570.455 70.0003 570.555 67.2996 573.381C64.599 576.206 64.6999 580.685 67.5249 583.386C70.35 586.086 74.8295 585.986 77.5302 583.161Z" fill="#FF4700"/>
<path d="M61.2533 540.809L64.1588 566.922L38.168 557.53L55.6905 556.814L61.2533 540.809Z" fill="#EFE9CB"/>
<path d="M103.912 562.246L78.3936 568.293L84.6563 540.902L87.3949 558.657L103.912 562.246Z" fill="#EFE9CB"/>
<path d="M98.7197 603.721L82.2227 581.014L109.471 576.314L94.5812 585.604L98.7197 603.721Z" fill="#EFE9CB"/>
<path d="M57.7173 616.499L71.9355 589.73L87.1101 617.707L72.4849 602.907L57.7173 616.499Z" fill="#EFE9CB"/>
<path d="M32.8535 575.557L61.0052 580.55L45.3423 603.721L48.9152 585.82L32.8535 575.557Z" fill="#EFE9CB"/>
<path d="M71.6543 395.224V498.398C71.6543 499.79 71.4752 501.308 71.6543 502.691C71.6624 502.752 71.6543 502.817 71.6543 502.879C71.6543 503.819 73.1721 503.823 73.1721 502.879V398.008C73.1721 397.108 73.2454 396.16 73.2495 395.228H71.6543V395.224Z" fill="#190209"/>
<path d="M70.336 349.156C54.5592 349.156 26.1024 371.134 26.0698 382.203C26.0414 393.515 59.8046 422.29 72.5131 422.294C86.4058 422.294 115.782 390.439 115.782 381.409C115.782 372.477 89.4904 349.156 70.336 349.156Z" fill="#FF4700"/>
<path d="M72.5172 422.444C64.5006 422.444 48.5773 411.278 37.818 400.486C30.2491 392.897 25.9152 386.231 25.9234 382.199C25.9356 377.043 32.3285 368.88 42.2088 361.404C52.3211 353.754 63.0967 349.001 70.336 349.001C78.8938 349.001 89.8281 353.668 100.335 361.811C109.52 368.924 115.933 376.982 115.933 381.405C115.933 385.828 109.007 395.786 99.4643 405.341C88.7742 416.047 78.6985 422.44 72.5172 422.44V422.444ZM70.336 349.306C63.1577 349.306 52.4513 354.035 42.3879 361.648C32.5808 369.067 26.2367 377.136 26.2204 382.203C26.2082 386.154 30.5136 392.742 38.0255 400.275C43.5313 405.797 50.258 411.286 56.484 415.343C63.2188 419.73 68.9118 422.143 72.5131 422.143C78.6171 422.143 88.6114 415.783 99.2486 405.133C108.738 395.627 115.628 385.653 115.628 381.409C115.628 377.165 109.259 369.116 100.144 362.051C89.6898 353.953 78.8206 349.306 70.332 349.306H70.336Z" fill="#FF4700"/>
<path d="M75.7481 340.122H74.4256C74.568 338.946 74.6413 337.761 74.6413 336.577C74.6453 334.445 74.5273 331.885 73.2903 330.058C72.0288 328.198 69.3878 327.743 67.7112 329.362C66.1079 330.909 65.9573 333.586 65.9858 335.666C66.0062 337.151 66.1527 338.653 66.4172 340.122H65.0702C65.0702 340.122 61.5909 345.64 58.1279 351.829C58.9662 354.083 63.6419 353.888 66.6857 351.178C68.6065 355.113 73.571 354.458 74.5558 351.178C78.7717 355.113 82.5439 351.52 82.5439 351.52L75.7522 340.122H75.7481ZM68.1263 340.122C68.0734 339.837 68.0205 339.548 67.9757 339.259C67.9025 338.791 67.8984 338.758 67.8414 338.25C67.7885 337.774 67.7478 337.302 67.7153 336.821C67.6502 335.788 67.642 334.742 67.7438 333.708C67.8251 332.878 68.0449 331.857 68.4437 331.157C68.8018 330.53 69.3227 330.123 69.9453 330.062C70.397 330.017 70.7022 330.054 71.0155 330.196C70.9952 330.188 71.4265 330.457 71.3288 330.38C71.4835 330.502 71.6218 330.644 71.7439 330.795C71.7561 330.815 71.8375 330.921 71.8497 330.945C71.9026 331.027 71.9555 331.108 72.0044 331.193C72.1264 331.409 72.22 331.609 72.2729 331.747C72.452 332.207 72.5781 332.683 72.6758 333.167C72.8711 334.123 72.9362 335.108 72.9525 336.134C72.9688 337.147 72.924 338.164 72.8386 339.173C72.8101 339.491 72.7775 339.808 72.7409 340.126H68.1303L68.1263 340.122Z" fill="#190209"/>
<path d="M104.754 365.502C104.494 365.791 104.246 366.092 104.022 366.409C101.731 363.455 96.3432 362.784 91.4966 366.678C87.8586 363.187 83.012 363.589 77.7585 367.484C73.5834 363.187 68.1956 364.529 65.2331 367.484C62.5392 364.261 55.5359 363.052 50.4167 366.544C47.1856 362.649 42.0664 361.978 37.3501 366.544C37.2036 366.271 37.0367 366.019 36.8536 365.779C30.363 371.598 25.7972 377.767 25.7891 382.194C25.7728 387.68 33.7039 397.255 43.3401 405.687C43.9342 405.312 44.4673 404.856 44.8946 404.283C46.1073 407.371 55.133 408.714 59.3082 404.283C60.7894 407.506 67.2556 408.177 70.2181 405.088C72.1022 408.58 79.1095 407.774 83.8218 405.088C87.4598 409.251 95.1346 407.103 97.6942 404.283C98.0604 404.828 98.5569 405.284 99.1307 405.666C108.433 396.457 116.022 385.991 116.022 381.401C116.022 377.686 111.465 371.484 104.759 365.502H104.754Z" fill="#FF9DBE"/>
<path d="M96.0417 377.856L107.769 383.566L95.6469 390.121L83.6831 384.205L96.0417 377.856Z" fill="#EFE9CB"/>
<path d="M71.2103 378.503L82.9381 384.213L70.8156 390.764L58.8477 384.848L71.2103 378.503Z" fill="#EFE9CB"/>
<path d="M46.4119 379.224L58.1398 384.933L46.0132 391.485L34.0493 385.568L46.4119 379.224Z" fill="#EFE9CB"/>
<path d="M95.9607 385.686C93.0918 385.783 90.7357 385.018 90.6991 383.981C90.6665 382.943 92.9616 382.023 95.8346 381.93C98.7034 381.832 101.06 382.597 101.096 383.635C101.133 384.673 98.8337 385.592 95.9607 385.686Z" fill="#3264BC"/>
<path d="M70.9867 386.41C68.1178 386.508 65.7617 385.743 65.725 384.705C65.6884 383.668 67.9876 382.748 70.8605 382.654C73.7294 382.561 76.0856 383.322 76.1222 384.359C76.1547 385.397 73.8596 386.317 70.9867 386.41Z" fill="#3264BC"/>
<path d="M46.1599 387.236C43.2911 387.33 40.9349 386.569 40.8983 385.531C40.8657 384.494 43.1608 383.574 46.0338 383.48C48.9027 383.383 51.2588 384.148 51.2954 385.185C51.3321 386.223 49.0329 387.143 46.1599 387.236Z" fill="#3264BC"/>
<path d="M109.597 370.296C109.243 369.905 108.876 369.514 108.494 369.12C105.137 369.384 101.971 370.751 99.407 372.929C97.5636 371.35 95.061 370.646 92.7008 370.344C89.84 369.978 86.8002 370.17 84.0616 371.118C82.8693 371.533 81.738 372.111 80.7491 372.9C78.5883 370.662 75.2067 369.938 72.1913 369.982C68.8545 370.031 65.4566 370.987 62.722 372.937C61.0821 371.146 58.6608 370.263 56.2925 369.921C53.3788 369.498 50.2821 369.754 47.5271 370.825C46.2616 371.317 45.0652 371.98 44.0478 372.884C42.0539 370.849 39.5634 369.567 36.6905 369.266C35.5267 369.144 34.3547 369.177 33.1868 369.299C32.731 369.775 32.2956 370.251 31.8765 370.723C33.3658 370.467 34.8674 370.344 36.369 370.467C39.242 370.699 41.6876 372.054 43.5961 374.182C43.8159 374.426 44.2432 374.41 44.4629 374.182C46.7865 371.809 50.396 370.975 53.6148 370.959C56.5203 370.947 60.2194 371.586 62.0994 374.06C62.3598 374.402 62.7261 374.45 63.0638 374.186C65.6072 372.188 68.9928 371.264 72.1913 371.219C75.0846 371.179 78.3157 371.862 80.2486 374.186C80.4643 374.446 80.8916 374.398 81.1154 374.186C83.4634 371.997 87.0892 371.403 90.1819 371.415C93.1647 371.427 96.7538 371.989 98.9635 374.186C99.2076 374.426 99.5861 374.41 99.8302 374.186C102.386 371.862 105.686 370.426 109.149 370.304C109.291 370.3 109.438 370.304 109.584 370.304L109.597 370.296Z" fill="#3264BC"/>
<path d="M104.27 400.368C104.111 400.36 103.957 400.368 103.798 400.352C100.925 400.12 98.4793 398.765 96.5708 396.636C96.3511 396.392 95.9238 396.409 95.7041 396.636C93.3805 399.009 89.771 399.843 86.5521 399.859C83.6466 399.872 79.9476 399.233 78.0676 396.758C77.8071 396.417 77.4409 396.368 77.1031 396.632C74.5598 398.63 71.1741 399.554 67.9756 399.599C65.0823 399.64 61.8513 398.956 59.9184 396.632C59.7027 396.372 59.2754 396.421 59.0516 396.632C56.7036 398.822 53.0778 399.416 49.9851 399.404C47.0023 399.391 43.4131 398.83 41.2035 396.632C40.9593 396.392 40.5809 396.409 40.3367 396.632C39.1892 397.678 37.887 398.529 36.4912 399.176C36.7883 399.485 37.0935 399.794 37.3987 400.103C38.6032 399.505 39.7385 398.757 40.7722 397.878C42.6156 399.456 45.1182 400.16 47.4784 400.462C50.3391 400.828 53.3789 400.637 56.1176 399.688C57.3099 399.273 58.4453 398.695 59.43 397.906C61.5909 400.144 64.9725 400.868 67.9878 400.824C71.3247 400.775 74.7226 399.819 77.4572 397.869C79.0971 399.66 81.5184 400.543 83.8867 400.885C86.8004 401.308 89.8971 401.052 92.6521 399.981C93.9176 399.489 95.114 398.826 96.1313 397.922C98.0684 399.9 100.477 401.157 103.245 401.503C103.594 401.121 103.94 400.738 104.282 400.356L104.27 400.368Z" fill="#3264BC"/>
<path d="M199.452 550.64C198.727 550.64 198.072 551.116 197.84 551.804H187.431L194.78 544.268C194.992 544.357 195.211 544.402 195.435 544.402C196.375 544.402 197.14 543.637 197.14 542.697C197.14 541.757 196.375 540.992 195.435 540.992C194.495 540.992 193.73 541.757 193.73 542.697C193.73 542.998 193.812 543.291 193.962 543.552L186.69 551.011V539.958C187.378 539.726 187.854 539.075 187.854 538.347C187.854 537.407 187.089 536.642 186.149 536.642C185.209 536.642 184.444 537.407 184.444 538.347C184.444 539.071 184.92 539.726 185.608 539.958V550.913L178.718 543.132C178.926 542.839 179.036 542.506 179.036 542.156C179.036 541.216 178.271 540.451 177.331 540.451C176.391 540.451 175.626 541.216 175.626 542.156C175.626 543.096 176.391 543.861 177.331 543.861C177.498 543.861 177.668 543.832 177.843 543.775L184.949 551.8H174.641C174.393 551.137 173.762 550.693 173.05 550.693C172.11 550.693 171.345 551.458 171.345 552.398C171.345 553.338 172.11 554.103 173.05 554.103C173.807 554.103 174.466 553.607 174.682 552.883H184.867L177.599 560.338C177.363 560.224 177.115 560.163 176.863 560.163C175.923 560.163 175.158 560.928 175.158 561.868C175.158 562.808 175.923 563.573 176.863 563.573C177.803 563.573 178.568 562.808 178.568 561.868C178.568 561.599 178.503 561.343 178.377 561.094L185.612 553.676V563.699C184.924 563.931 184.448 564.582 184.448 565.31C184.448 566.25 185.213 567.015 186.153 567.015C187.093 567.015 187.858 566.25 187.858 565.31C187.858 564.586 187.382 563.931 186.694 563.699V553.774L193.396 561.347C193.311 561.554 193.266 561.774 193.266 561.994C193.266 562.934 194.031 563.699 194.971 563.699C195.911 563.699 196.676 562.934 196.676 561.994C196.676 561.054 195.911 560.289 194.971 560.289C194.67 560.289 194.373 560.37 194.113 560.521L187.353 552.887H197.848C198.08 553.574 198.731 554.05 199.46 554.05C200.4 554.05 201.165 553.285 201.165 552.345C201.165 551.405 200.4 550.64 199.46 550.64H199.452Z" fill="white"/>
<path d="M39.1284 689.779C38.404 689.779 37.7489 690.255 37.5169 690.943H27.1076L34.4568 683.406C34.6684 683.496 34.8881 683.541 35.1119 683.541C36.0519 683.541 36.817 682.776 36.817 681.836C36.817 680.896 36.0519 680.131 35.1119 680.131C34.1719 680.131 33.4069 680.896 33.4069 681.836C33.4069 682.137 33.4883 682.43 33.6388 682.69L26.3669 690.149V679.097C27.0547 678.865 27.5308 678.214 27.5308 677.486C27.5308 676.546 26.7657 675.781 25.8257 675.781C24.8857 675.781 24.1207 676.546 24.1207 677.486C24.1207 678.21 24.5968 678.865 25.2845 679.097V690.052L18.3951 682.271C18.6027 681.978 18.7125 681.644 18.7125 681.294C18.7125 680.354 17.9475 679.589 17.0075 679.589C16.0675 679.589 15.3024 680.354 15.3024 681.294C15.3024 682.234 16.0675 683 17.0075 683C17.1743 683 17.3452 682.971 17.5202 682.914L24.6253 690.939H14.3176C14.0694 690.275 13.4387 689.832 12.7265 689.832C11.7865 689.832 11.0215 690.597 11.0215 691.537C11.0215 692.477 11.7865 693.242 12.7265 693.242C13.4834 693.242 14.1427 692.746 14.3583 692.021H24.5439L17.276 699.476C17.04 699.362 16.7918 699.301 16.5395 699.301C15.5995 699.301 14.8344 700.066 14.8344 701.006C14.8344 701.946 15.5995 702.711 16.5395 702.711C17.4795 702.711 18.2445 701.946 18.2445 701.006C18.2445 700.738 18.1794 700.481 18.0533 700.233L25.2886 692.815V702.837C24.6008 703.069 24.1247 703.721 24.1247 704.449C24.1247 705.389 24.8898 706.154 25.8298 706.154C26.7698 706.154 27.5348 705.389 27.5348 704.449C27.5348 703.725 27.0587 703.069 26.371 702.837V692.912L33.0732 700.485C32.9877 700.693 32.943 700.913 32.943 701.132C32.943 702.072 33.708 702.837 34.648 702.837C35.588 702.837 36.3531 702.072 36.3531 701.132C36.3531 700.192 35.588 699.427 34.648 699.427C34.3469 699.427 34.0498 699.509 33.7894 699.659L27.0302 692.025H37.525C37.757 692.713 38.4081 693.189 39.1365 693.189C40.0765 693.189 40.8416 692.424 40.8416 691.484C40.8416 690.544 40.0765 689.779 39.1365 689.779H39.1284Z" fill="white"/>
<path d="M418.317 652.886C417.592 652.886 416.937 653.363 416.705 654.05H406.296L413.645 646.514C413.857 646.603 414.077 646.648 414.3 646.648C415.24 646.648 416.005 645.883 416.005 644.943C416.005 644.003 415.24 643.238 414.3 643.238C413.36 643.238 412.595 644.003 412.595 644.943C412.595 645.244 412.677 645.537 412.827 645.798L405.555 653.257V642.204C406.243 641.972 406.719 641.321 406.719 640.593C406.719 639.653 405.954 638.888 405.014 638.888C404.074 638.888 403.309 639.653 403.309 640.593C403.309 641.317 403.785 641.972 404.473 642.204V653.159L397.584 645.379C397.791 645.086 397.901 644.752 397.901 644.402C397.901 643.462 397.136 642.697 396.196 642.697C395.256 642.697 394.491 643.462 394.491 644.402C394.491 645.342 395.256 646.107 396.196 646.107C396.363 646.107 396.534 646.078 396.709 646.021L403.814 654.046H393.506C393.258 653.383 392.627 652.939 391.915 652.939C390.975 652.939 390.21 653.704 390.21 654.644C390.21 655.584 390.975 656.349 391.915 656.349C392.672 656.349 393.331 655.853 393.547 655.129H403.732L396.465 662.584C396.229 662.47 395.98 662.409 395.728 662.409C394.788 662.409 394.023 663.174 394.023 664.114C394.023 665.054 394.788 665.819 395.728 665.819C396.668 665.819 397.433 665.054 397.433 664.114C397.433 663.845 397.368 663.589 397.242 663.341L404.477 655.922V665.945C403.789 666.177 403.313 666.828 403.313 667.556C403.313 668.496 404.078 669.261 405.018 669.261C405.958 669.261 406.723 668.496 406.723 667.556C406.723 666.832 406.247 666.177 405.559 665.945V656.02L412.262 663.593C412.176 663.8 412.131 664.02 412.131 664.24C412.131 665.18 412.896 665.945 413.837 665.945C414.777 665.945 415.542 665.18 415.542 664.24C415.542 663.3 414.777 662.535 413.837 662.535C413.535 662.535 413.238 662.616 412.978 662.767L406.219 655.133H416.714C416.945 655.82 417.597 656.297 418.325 656.297C419.265 656.297 420.03 655.531 420.03 654.591C420.03 653.651 419.265 652.886 418.325 652.886H418.317Z" fill="white"/>
<path d="M338.48 484.591C337.699 484.615 337.052 485.059 336.743 485.755H326.936C329.247 483.382 331.558 481.014 333.87 478.642C334.708 478.89 335.616 478.621 336.092 477.836C336.564 477.059 336.401 476.009 335.713 475.411C335.021 474.812 333.984 474.788 333.268 475.358C332.568 475.915 332.38 476.867 332.743 477.661C330.464 479.997 328.189 482.333 325.91 484.668V474.243C326.712 473.881 327.2 473.05 327.042 472.151C326.879 471.26 326.069 470.593 325.166 470.593C324.262 470.593 323.452 471.26 323.29 472.151C323.127 473.046 323.619 473.881 324.421 474.243V484.538C322.276 482.113 320.128 479.687 317.983 477.266C318.427 476.489 318.297 475.48 317.601 474.878C316.921 474.292 315.9 474.251 315.188 474.8C314.475 475.35 314.239 476.338 314.634 477.148C315.025 477.962 315.936 478.353 316.791 478.157C319.033 480.693 321.275 483.224 323.517 485.759H313.78C313.401 484.994 312.595 484.526 311.716 484.685C310.809 484.847 310.133 485.686 310.158 486.605C310.182 487.513 310.862 488.298 311.761 488.441C312.665 488.587 313.499 488.066 313.832 487.248H323.404C321.121 489.588 318.842 491.928 316.559 494.268C315.729 493.967 314.805 494.215 314.292 494.976C313.78 495.729 313.902 496.787 314.561 497.413C315.224 498.044 316.27 498.117 317.007 497.572C317.727 497.039 317.938 496.119 317.625 495.314C319.892 492.99 322.158 490.662 324.425 488.339V497.735C323.623 498.097 323.135 498.927 323.294 499.827C323.456 500.718 324.266 501.385 325.17 501.385C326.073 501.385 326.883 500.718 327.046 499.827C327.208 498.931 326.716 498.097 325.914 497.735V488.469C328.006 490.833 330.098 493.194 332.189 495.558C331.908 496.417 332.262 497.393 333.08 497.833C333.87 498.26 334.879 498.073 335.457 497.381C336.031 496.693 336.043 495.672 335.485 494.968C334.928 494.268 333.98 494.081 333.19 494.439C331.07 492.042 328.95 489.649 326.83 487.252H336.747C337.333 488.534 339.131 488.843 340.023 487.635C340.955 486.373 340.002 484.64 338.484 484.599L338.48 484.591Z" fill="white"/>
<path d="M32.7558 330.298C32.0315 330.298 31.3763 330.774 31.1443 331.462H20.735L28.0842 323.926C28.2958 324.015 28.5156 324.06 28.7394 324.06C29.6794 324.06 30.4444 323.295 30.4444 322.355C30.4444 321.415 29.6794 320.65 28.7394 320.65C27.7994 320.65 27.0343 321.415 27.0343 322.355C27.0343 322.656 27.1157 322.949 27.2663 323.21L19.9944 330.669V319.616C20.6821 319.384 21.1582 318.733 21.1582 318.005C21.1582 317.065 20.3932 316.3 19.4532 316.3C18.5131 316.3 17.7481 317.065 17.7481 318.005C17.7481 318.729 18.2242 319.384 18.9119 319.616V330.571L12.0226 322.79C12.2301 322.497 12.34 322.164 12.34 321.814C12.34 320.874 11.5749 320.109 10.6349 320.109C9.6949 320.109 8.92986 320.874 8.92986 321.814C8.92986 322.754 9.6949 323.519 10.6349 323.519C10.8018 323.519 10.9727 323.49 11.1476 323.433L18.2527 331.458H7.94508C7.69686 330.795 7.06611 330.351 6.35398 330.351C5.41396 330.351 4.64893 331.116 4.64893 332.056C4.64893 332.996 5.41396 333.761 6.35398 333.761C7.11087 333.761 7.7701 333.265 7.98578 332.541H18.1713L10.9035 339.996C10.6675 339.882 10.4192 339.821 10.1669 339.821C9.22692 339.821 8.46189 340.586 8.46189 341.526C8.46189 342.466 9.22692 343.231 10.1669 343.231C11.107 343.231 11.872 342.466 11.872 341.526C11.872 341.257 11.8069 341.001 11.6807 340.752L18.916 333.334V343.357C18.2283 343.589 17.7522 344.24 17.7522 344.968C17.7522 345.908 18.5172 346.673 19.4572 346.673C20.3972 346.673 21.1623 345.908 21.1623 344.968C21.1623 344.244 20.6862 343.589 19.9984 343.357V333.432L26.7006 341.005C26.6152 341.212 26.5704 341.432 26.5704 341.652C26.5704 342.592 27.3355 343.357 28.2755 343.357C29.2155 343.357 29.9805 342.592 29.9805 341.652C29.9805 340.712 29.2155 339.947 28.2755 339.947C27.9743 339.947 27.6773 340.028 27.4168 340.179L20.6577 332.545H31.1525C31.3844 333.232 32.0355 333.708 32.7639 333.708C33.704 333.708 34.469 332.943 34.469 332.003C34.469 331.063 33.704 330.298 32.7639 330.298H32.7558Z" fill="white"/>
<path d="M314.655 560.224C314.346 560.224 314.012 560.146 313.658 559.996C312.575 559.532 312.299 558.559 312.494 557.843C312.518 557.652 312.689 556.659 313.666 556.37C313.788 556.333 313.918 556.317 314.061 556.317C314.679 556.317 315.399 556.671 315.851 557.192C316.209 557.607 316.368 558.095 316.299 558.563C316.144 559.601 315.53 560.224 314.655 560.224Z" fill="white"/>
<path d="M363.219 729.907C362.909 729.907 362.576 729.829 362.222 729.679C361.139 729.215 360.863 728.242 361.058 727.526C361.082 727.335 361.253 726.342 362.23 726.053C362.352 726.016 362.482 726 362.625 726C363.243 726 363.963 726.354 364.415 726.875C364.773 727.29 364.932 727.778 364.863 728.246C364.708 729.284 364.094 729.907 363.219 729.907Z" fill="white"/>
<path d="M410.841 415.937C410.532 415.937 410.198 415.86 409.844 415.709C408.762 415.246 408.485 414.273 408.681 413.557C408.705 413.366 408.876 412.373 409.852 412.084C409.975 412.047 410.109 412.031 410.247 412.031C410.866 412.031 411.586 412.385 412.038 412.906C412.396 413.321 412.555 413.809 412.485 414.277C412.331 415.315 411.716 415.937 410.841 415.937Z" fill="white"/>
<path d="M140.577 524.275C140.267 524.275 139.934 524.198 139.58 524.047C138.497 523.583 138.221 522.611 138.416 521.895C138.44 521.703 138.611 520.71 139.588 520.422C139.71 520.385 139.844 520.369 139.983 520.369C140.601 520.369 141.321 520.723 141.773 521.244C142.131 521.659 142.29 522.147 142.221 522.615C142.066 523.653 141.452 524.275 140.577 524.275Z" fill="white"/>
<path d="M129.219 662.584C128.91 662.584 128.576 662.506 128.222 662.356C127.14 661.892 126.863 660.919 127.058 660.203C127.083 660.012 127.254 659.019 128.23 658.73C128.352 658.694 128.483 658.677 128.625 658.677C129.244 658.677 129.964 659.031 130.416 659.552C130.774 659.967 130.932 660.456 130.863 660.924C130.709 661.961 130.094 662.584 129.219 662.584Z" fill="white"/>
<path d="M8.89357 779.524C8.5843 779.524 8.25061 779.447 7.89658 779.296C6.81414 778.832 6.53742 777.86 6.73275 777.143C6.75717 776.952 6.92808 775.959 7.90472 775.67C8.0268 775.634 8.15702 775.617 8.29944 775.617C8.91798 775.617 9.63826 775.971 10.09 776.492C10.4481 776.907 10.6068 777.396 10.5376 777.864C10.3829 778.901 9.76847 779.524 8.89357 779.524Z" fill="white"/>
<path d="M6.95216 490.252C6.64289 490.252 6.30921 490.174 5.95518 490.024C4.87273 489.56 4.59602 488.587 4.79135 487.871C4.81576 487.68 4.98667 486.687 5.96331 486.398C6.08539 486.361 6.21561 486.345 6.35804 486.345C6.97658 486.345 7.69685 486.699 8.14854 487.22C8.50665 487.635 8.66535 488.123 8.59617 488.591C8.44154 489.629 7.82707 490.252 6.95216 490.252Z" fill="white"/>
<path d="M377.237 298C377.249 303.587 377.265 311.01 377.265 313.052V407.087C377.265 408.478 377.086 409.996 377.265 411.38C377.273 411.441 377.265 411.506 377.265 411.567C377.265 412.507 378.783 412.511 378.783 411.567V306.696C378.783 306.187 378.795 301.85 378.803 298H377.237Z" fill="#190209"/>
<path d="M49.2188 320.907C48.9095 320.907 48.5758 320.829 48.2218 320.679C47.1393 320.215 46.8626 319.242 47.0579 318.526C47.0824 318.335 47.2533 317.342 48.2299 317.053C48.352 317.016 48.4822 317 48.6246 317C49.2432 317 49.9635 317.354 50.4151 317.875C50.7732 318.29 50.932 318.778 50.8628 319.246C50.7081 320.284 50.0937 320.907 49.2188 320.907Z" fill="white"/>
</g>
<path d="M426.107 313.998C425.383 313.998 424.727 314.475 424.495 315.162H414.086L421.435 307.626C421.647 307.715 421.867 307.76 422.09 307.76C423.03 307.76 423.795 306.995 423.795 306.055C423.795 305.115 423.03 304.35 422.09 304.35C421.15 304.35 420.385 305.115 420.385 306.055C420.385 306.356 420.467 306.649 420.617 306.91L413.345 314.369V303.316C414.033 303.085 414.509 302.433 414.509 301.705C414.509 300.765 413.744 300 412.804 300C411.864 300 411.099 300.765 411.099 301.705C411.099 302.429 411.575 303.085 412.263 303.316V314.271L405.374 306.491C405.581 306.198 405.691 305.864 405.691 305.514C405.691 304.574 404.926 303.809 403.986 303.809C403.046 303.809 402.281 304.574 402.281 305.514C402.281 306.454 403.046 307.219 403.986 307.219C404.153 307.219 404.324 307.19 404.499 307.134L411.604 315.158H401.296C401.048 314.495 400.417 314.051 399.705 314.051C398.765 314.051 398 314.816 398 315.756C398 316.696 398.765 317.461 399.705 317.461C400.462 317.461 401.121 316.965 401.337 316.241H411.522L404.255 323.696C404.019 323.582 403.77 323.521 403.518 323.521C402.578 323.521 401.813 324.286 401.813 325.226C401.813 326.166 402.578 326.931 403.518 326.931C404.458 326.931 405.223 326.166 405.223 325.226C405.223 324.957 405.158 324.701 405.032 324.453L412.267 317.034V327.057C411.579 327.289 411.103 327.94 411.103 328.668C411.103 329.608 411.868 330.373 412.808 330.373C413.748 330.373 414.513 329.608 414.513 328.668C414.513 327.944 414.037 327.289 413.35 327.057V317.132L420.052 324.705C419.966 324.912 419.922 325.132 419.922 325.352C419.922 326.292 420.687 327.057 421.627 327.057C422.567 327.057 423.332 326.292 423.332 325.352C423.332 324.412 422.567 323.647 421.627 323.647C421.325 323.647 421.028 323.728 420.768 323.879L414.009 316.245H424.504C424.736 316.932 425.387 317.409 426.115 317.409C427.055 317.409 427.82 316.644 427.82 315.704C427.82 314.764 427.055 313.998 426.115 313.998H426.107Z" fill="white"/>
<path d="M41.2188 232.907C40.9095 232.907 40.5758 232.829 40.2218 232.679C39.1393 232.215 38.8626 231.242 39.0579 230.526C39.0824 230.335 39.2533 229.342 40.2299 229.053C40.352 229.016 40.4822 229 40.6246 229C41.2432 229 41.9635 229.354 42.4151 229.875C42.7732 230.29 42.932 230.778 42.8628 231.246C42.7081 232.284 42.0937 232.907 41.2188 232.907Z" fill="white"/>
<path d="M134.107 29.9985C133.383 29.9985 132.727 30.4746 132.495 31.1623H122.086L129.435 23.6259C129.647 23.7154 129.867 23.7602 130.09 23.7602C131.03 23.7602 131.795 22.9952 131.795 22.0552C131.795 21.1152 131.03 20.3501 130.09 20.3501C129.15 20.3501 128.385 21.1152 128.385 22.0552C128.385 22.3563 128.467 22.6493 128.617 22.9097L121.345 30.3688V19.3165C122.033 19.0846 122.509 18.4335 122.509 17.7051C122.509 16.765 121.744 16 120.804 16C119.864 16 119.099 16.765 119.099 17.7051C119.099 18.4294 119.575 19.0846 120.263 19.3165V30.2711L113.374 22.4906C113.581 22.1976 113.691 21.8639 113.691 21.5139C113.691 20.5739 112.926 19.8089 111.986 19.8089C111.046 19.8089 110.281 20.5739 110.281 21.5139C110.281 22.454 111.046 23.219 111.986 23.219C112.153 23.219 112.324 23.1905 112.499 23.1336L119.604 31.1583H109.296C109.048 30.495 108.417 30.0514 107.705 30.0514C106.765 30.0514 106 30.8164 106 31.7565C106 32.6965 106.765 33.4615 107.705 33.4615C108.462 33.4615 109.121 32.9651 109.337 32.2407H119.522L112.255 39.6957C112.019 39.5818 111.77 39.5207 111.518 39.5207C110.578 39.5207 109.813 40.2858 109.813 41.2258C109.813 42.1658 110.578 42.9308 111.518 42.9308C112.458 42.9308 113.223 42.1658 113.223 41.2258C113.223 40.9572 113.158 40.7009 113.032 40.4526L120.267 33.0342V43.057C119.579 43.2889 119.103 43.94 119.103 44.6684C119.103 45.6085 119.868 46.3735 120.808 46.3735C121.748 46.3735 122.513 45.6085 122.513 44.6684C122.513 43.9441 122.037 43.2889 121.35 43.057V33.1319L128.052 40.7049C127.966 40.9125 127.921 41.1322 127.921 41.3519C127.921 42.2919 128.687 43.057 129.627 43.057C130.567 43.057 131.332 42.2919 131.332 41.3519C131.332 40.4119 130.567 39.6469 129.627 39.6469C129.325 39.6469 129.028 39.7283 128.768 39.8788L122.009 32.2448H132.504C132.736 32.9325 133.387 33.4086 134.115 33.4086C135.055 33.4086 135.82 32.6436 135.82 31.7036C135.82 30.7635 135.055 29.9985 134.115 29.9985H134.107Z" fill="white"/>
<path d="M405.107 44.9985C404.383 44.9985 403.727 45.4746 403.495 46.1623H393.086L400.435 38.6259C400.647 38.7154 400.867 38.7602 401.09 38.7602C402.03 38.7602 402.795 37.9952 402.795 37.0552C402.795 36.1152 402.03 35.3501 401.09 35.3501C400.15 35.3501 399.385 36.1152 399.385 37.0552C399.385 37.3563 399.467 37.6493 399.617 37.9097L392.345 45.3688V34.3165C393.033 34.0845 393.509 33.4335 393.509 32.7051C393.509 31.765 392.744 31 391.804 31C390.864 31 390.099 31.765 390.099 32.7051C390.099 33.4294 390.575 34.0845 391.263 34.3165V45.2711L384.374 37.4906C384.581 37.1976 384.691 36.8639 384.691 36.5139C384.691 35.5739 383.926 34.8089 382.986 34.8089C382.046 34.8089 381.281 35.5739 381.281 36.5139C381.281 37.454 382.046 38.219 382.986 38.219C383.153 38.219 383.324 38.1905 383.499 38.1335L390.604 46.1583H380.296C380.048 45.495 379.417 45.0514 378.705 45.0514C377.765 45.0514 377 45.8164 377 46.7564C377 47.6965 377.765 48.4615 378.705 48.4615C379.462 48.4615 380.121 47.965 380.337 47.2407H390.522L383.255 54.6957C383.019 54.5818 382.77 54.5207 382.518 54.5207C381.578 54.5207 380.813 55.2858 380.813 56.2258C380.813 57.1658 381.578 57.9308 382.518 57.9308C383.458 57.9308 384.223 57.1658 384.223 56.2258C384.223 55.9572 384.158 55.7008 384.032 55.4526L391.267 48.0342V58.057C390.579 58.2889 390.103 58.94 390.103 59.6684C390.103 60.6085 390.868 61.3735 391.808 61.3735C392.748 61.3735 393.513 60.6085 393.513 59.6684C393.513 58.9441 393.037 58.2889 392.35 58.057V48.1319L399.052 55.7049C398.966 55.9124 398.922 56.1322 398.922 56.3519C398.922 57.2919 399.687 58.057 400.627 58.057C401.567 58.057 402.332 57.2919 402.332 56.3519C402.332 55.4119 401.567 54.6469 400.627 54.6469C400.325 54.6469 400.028 54.7283 399.768 54.8788L393.009 47.2448H403.504C403.736 47.9325 404.387 48.4086 405.115 48.4086C406.055 48.4086 406.82 47.6436 406.82 46.7035C406.82 45.7635 406.055 44.9985 405.115 44.9985H405.107Z" fill="white"/>
<path d="M22.2188 142.907C21.9095 142.907 21.5758 142.829 21.2218 142.679C20.1393 142.215 19.8626 141.242 20.0579 140.526C20.0824 140.335 20.2533 139.342 21.2299 139.053C21.352 139.016 21.4822 139 21.6246 139C22.2432 139 22.9635 139.354 23.4151 139.875C23.7732 140.29 23.9319 140.778 23.8628 141.246C23.7081 142.284 23.0937 142.907 22.2188 142.907Z" fill="white"/>
<path d="M9.21876 293.907C8.90949 293.907 8.5758 293.829 8.22177 293.679C7.13933 293.215 6.86262 292.242 7.05795 291.526C7.08236 291.335 7.25328 290.342 8.22992 290.053C8.352 290.016 8.4822 290 8.62463 290C9.24317 290 9.96345 290.354 10.4151 290.875C10.7732 291.29 10.9319 291.778 10.8628 292.246C10.7081 293.284 10.0937 293.907 9.21876 293.907Z" fill="white"/>
</g>
<defs>
<clipPath id="clip0_243_851">
<rect width="471" height="830" fill="white"/>
</clipPath>
<clipPath id="clip1_243_851">
<rect width="437.026" height="532" fill="white" transform="translate(-17 298)"/>
</clipPath>
</defs>
</svg>
