<svg width="201" height="113" viewBox="0 0 201 113" fill="none" xmlns="http://www.w3.org/2000/svg">
<path d="M184.657 112.367C182.947 112.367 181.457 111.805 180.187 110.681C178.916 109.557 178.281 107.725 178.281 105.184C178.281 104.94 178.281 104.696 178.281 104.451C178.281 104.207 178.306 103.963 178.355 103.719C176.889 106.65 175.228 108.824 173.371 110.241C171.563 111.609 169.731 112.293 167.874 112.293C166.164 112.293 164.552 111.707 163.037 110.534C161.523 109.313 160.301 107.529 159.373 105.184C158.445 102.839 157.98 100.005 157.98 96.6828C157.98 93.2627 158.445 90.209 159.373 87.5218C160.35 84.8346 161.62 82.5626 163.184 80.706C164.747 78.8493 166.457 77.4569 168.314 76.5286C170.171 75.5514 171.979 75.0628 173.737 75.0628C175.692 75.0628 177.451 75.6735 179.014 76.895C180.578 78.0676 181.653 79.9487 182.239 82.5382C182.385 81.7076 182.483 80.9503 182.532 80.2663C182.63 79.5822 182.679 79.1181 182.679 78.8738C182.727 77.5546 183.387 76.5774 184.657 75.9423C185.977 75.3071 187.418 74.9895 188.981 74.9895C190.349 74.9895 191.644 75.2582 192.866 75.7957C194.087 76.3331 194.918 77.237 195.357 78.5073L195.504 78.9471C194.918 80.2663 194.331 81.8542 193.745 83.7108C193.159 85.5674 192.621 87.5218 192.133 89.5739C191.644 91.5771 191.253 93.5559 190.96 95.5102C190.667 97.4157 190.52 99.1013 190.52 100.567C190.52 102.179 190.691 103.303 191.033 103.938C191.375 104.525 191.791 104.818 192.279 104.818C193.11 104.818 193.867 104.232 194.551 103.059L195.138 103.352C195.138 105.013 194.6 106.528 193.525 107.896C192.45 109.264 191.107 110.363 189.494 111.194C187.882 111.976 186.27 112.367 184.657 112.367ZM172.711 103.059C173.982 103.059 175.374 101.935 176.889 99.6876C178.452 97.3913 179.796 94.1177 180.92 89.867C181.017 89.4273 181.115 89.012 181.213 88.6211C181.311 88.1814 181.384 87.7661 181.433 87.3752C180.651 85.5674 179.82 84.2971 178.941 83.5642C178.11 82.7825 177.28 82.3916 176.449 82.3916C175.228 82.3916 174.079 83.0512 173.005 84.3704C171.979 85.6407 171.123 87.2531 170.439 89.2074C169.804 91.1618 169.487 93.1161 169.487 95.0705C169.487 97.7577 169.78 99.7609 170.366 101.08C171.001 102.399 171.783 103.059 172.711 103.059Z" fill="#EFE9CB"/>
<path d="M145.107 112.293C143.543 112.293 142.053 111.951 140.636 111.267C139.268 110.534 138.144 109.41 137.265 107.896C136.434 106.381 136.019 104.451 136.019 102.106C136.019 100.836 136.141 99.1745 136.385 97.1224C136.63 95.0703 136.947 92.8228 137.338 90.3799C137.778 87.9369 138.218 85.494 138.657 83.051C137.68 83.0999 136.727 83.1976 135.799 83.3442C134.92 83.4908 134.04 83.6618 133.161 83.8572L133.014 83.3442C133.991 82.1716 135.017 81.17 136.092 80.3394C137.167 79.5088 138.291 78.8248 139.464 78.2873C140.099 75.0626 140.636 72.2777 141.076 69.9324C141.516 67.5384 141.735 66.1215 141.735 65.6817C141.735 64.8511 142.371 64.1671 143.641 63.6297C144.96 63.0922 146.426 62.8235 148.038 62.8235C149.455 62.8235 150.774 63.0922 151.996 63.6297C153.266 64.1671 154.121 65.071 154.561 66.3413C154.268 66.6345 153.852 67.7338 153.315 69.6393C152.778 71.4959 152.216 73.7679 151.629 76.4551C152.558 76.504 153.51 76.5528 154.488 76.6017C155.465 76.6505 156.466 76.7238 157.492 76.8215C157.59 77.1147 157.663 77.4323 157.712 77.7743C157.761 78.1163 157.786 78.4827 157.786 78.8736C157.786 79.6065 157.663 80.4127 157.419 81.2921C157.224 82.1227 156.979 82.88 156.686 83.5641C155.514 83.4663 154.414 83.3686 153.388 83.2709C152.362 83.1243 151.361 83.0266 150.383 82.9778C149.993 85.0787 149.626 87.1796 149.284 89.2805C148.991 91.3815 148.747 93.287 148.551 94.997C148.405 96.7071 148.331 98.0507 148.331 99.0279C148.331 101.08 148.698 102.448 149.431 103.132C150.212 103.816 151.141 104.158 152.216 104.158C153.193 104.158 154.072 103.963 154.854 103.572C155.636 103.181 156.198 102.717 156.54 102.179L157.273 102.399C156.979 104.402 156.198 106.161 154.927 107.676C153.657 109.142 152.142 110.29 150.383 111.12C148.625 111.902 146.866 112.293 145.107 112.293Z" fill="#EFE9CB"/>
<path d="M102.173 112.22C100.365 112.22 98.7285 111.511 97.2627 110.095C95.797 108.629 95.0641 106.601 95.0641 104.012C95.0641 102.741 95.2351 101.3 95.5771 99.6876C95.9191 98.0753 96.2855 96.4385 96.6764 94.7773C97.1161 93.1161 97.507 91.5526 97.849 90.0868C98.191 88.6211 98.362 87.424 98.362 86.4957C98.362 85.5185 98.1666 84.7612 97.7757 84.2238C97.3849 83.6375 96.8719 83.3443 96.2367 83.3443C95.4061 83.3443 94.5022 83.8329 93.525 84.8101L93.0853 84.5169C93.0364 83.7352 93.2074 82.8069 93.5983 81.732C93.9892 80.6571 94.5755 79.631 95.3572 78.6539C96.1878 77.6278 97.2383 76.7728 98.5086 76.0888C99.779 75.4048 101.294 75.0627 103.052 75.0627C105.642 75.0627 107.548 75.8201 108.769 77.3347C110.039 78.8004 110.674 80.6082 110.674 82.758C110.674 83.5398 110.601 84.2971 110.455 85.0299C111.481 83.5153 112.751 82.0007 114.266 80.4861C115.78 78.9226 117.441 77.6278 119.249 76.6018C121.106 75.5758 123.011 75.0627 124.966 75.0627C127.262 75.0627 128.826 75.7956 129.656 77.2614C130.487 78.7272 130.902 80.5594 130.902 82.758C130.902 84.8101 130.682 87.0087 130.242 89.354C129.803 91.6992 129.363 93.9711 128.923 96.1698C128.484 98.3196 128.264 100.127 128.264 101.593C128.264 103.547 128.826 104.525 129.949 104.525C130.536 104.525 131.049 104.354 131.488 104.012C131.928 103.621 132.221 103.254 132.368 102.912L132.881 103.132C132.881 104.94 132.368 106.528 131.342 107.896C130.365 109.264 129.119 110.339 127.604 111.121C126.089 111.853 124.55 112.22 122.987 112.22C121.081 112.22 119.396 111.56 117.93 110.241C116.464 108.922 115.731 106.772 115.731 103.792C115.731 102.033 115.951 100.127 116.391 98.0753C116.88 96.0232 117.344 94.0444 117.783 92.1389C118.223 90.2334 118.443 88.6699 118.443 87.4485C118.443 86.7156 118.296 86.1537 118.003 85.7628C117.759 85.3231 117.295 85.1032 116.611 85.1032C115.487 85.1032 114.241 85.6163 112.873 86.6423C111.554 87.6683 110.406 89.0364 109.429 90.7464C108.5 92.4565 108.036 94.3376 108.036 96.3896C108.036 97.7088 108.183 98.9792 108.476 100.201C108.818 101.422 108.989 102.741 108.989 104.158C108.989 106.797 108.305 108.8 106.937 110.168C105.569 111.536 103.981 112.22 102.173 112.22Z" fill="#EFE9CB"/>
<path d="M81.1061 112.367C79.3961 112.367 77.9059 111.805 76.6355 110.681C75.3652 109.557 74.7301 107.725 74.7301 105.184C74.7301 104.94 74.7301 104.696 74.7301 104.451C74.7301 104.207 74.7545 103.963 74.8033 103.719C73.3376 106.65 71.6764 108.824 69.8197 110.241C68.012 111.609 66.1798 112.293 64.3231 112.293C62.6131 112.293 61.0007 111.707 59.4861 110.534C57.9715 109.313 56.75 107.529 55.8217 105.184C54.8934 102.839 54.4292 100.005 54.4292 96.6828C54.4292 93.2627 54.8934 90.209 55.8217 87.5218C56.7989 84.8346 58.0692 82.5626 59.6327 80.706C61.1962 78.8493 62.9062 77.4569 64.7628 76.5286C66.6195 75.5514 68.4273 75.0628 70.1862 75.0628C72.1405 75.0628 73.8995 75.6735 75.4629 76.895C77.0264 78.0676 78.1013 79.9487 78.6876 82.5382C78.8342 81.7076 78.9319 80.9503 78.9808 80.2663C79.0785 79.5822 79.1273 79.1181 79.1273 78.8738C79.1762 77.5546 79.8358 76.5774 81.1061 75.9423C82.4253 75.3071 83.8667 74.9895 85.4301 74.9895C86.7982 74.9895 88.0929 75.2582 89.3144 75.7957C90.5359 76.3331 91.3665 77.237 91.8062 78.5073L91.9528 78.9471C91.3665 80.2663 90.7802 81.8542 90.1939 83.7108C89.6076 85.5674 89.0701 87.5218 88.5815 89.5739C88.0929 91.5771 87.7021 93.5559 87.4089 95.5102C87.1158 97.4157 86.9692 99.1013 86.9692 100.567C86.9692 102.179 87.1402 103.303 87.4822 103.938C87.8242 104.525 88.2395 104.818 88.7281 104.818C89.5587 104.818 90.316 104.232 91 103.059L91.5863 103.352C91.5863 105.013 91.0489 106.528 89.974 107.896C88.8991 109.264 87.5555 110.363 85.9432 111.194C84.3308 111.976 82.7185 112.367 81.1061 112.367ZM69.1601 103.059C70.4305 103.059 71.8229 101.935 73.3376 99.6876C74.9011 97.3913 76.2447 94.1177 77.3684 89.867C77.4661 89.4273 77.5639 89.012 77.6616 88.6211C77.7593 88.1814 77.8326 87.7661 77.8814 87.3752C77.0997 85.5674 76.2691 84.2971 75.3896 83.5642C74.559 82.7825 73.7284 82.3916 72.8978 82.3916C71.6764 82.3916 70.5282 83.0512 69.4533 84.3704C68.4273 85.6407 67.5722 87.2531 66.8882 89.2074C66.253 91.1618 65.9355 93.1161 65.9355 95.0705C65.9355 97.7577 66.2286 99.7609 66.8149 101.08C67.4501 102.399 68.2318 103.059 69.1601 103.059Z" fill="#EFE9CB"/>
<path d="M29.7278 112.44C26.4542 112.44 23.7426 111.878 21.5928 110.754C19.4919 109.63 17.9284 108.189 16.9023 106.43C15.8763 104.671 15.3633 102.863 15.3633 101.007C15.3633 99.199 15.803 97.4889 16.6825 95.8766C17.5619 94.2154 18.8078 92.8473 20.4202 91.7724C22.0814 90.6975 24.0357 90.1601 26.2832 90.1601C26.2344 90.5998 26.2099 91.0151 26.2099 91.406C26.2099 91.748 26.2099 91.919 26.2099 91.919C26.2099 95.1926 26.5275 97.7821 27.1627 99.6876C27.7979 101.544 28.604 102.888 29.5812 103.718C30.5584 104.5 31.56 104.891 32.586 104.891C34.1495 104.891 35.542 104.28 36.7635 103.059C37.9849 101.789 38.5957 100.323 38.5957 98.6615C38.5957 96.8049 37.7895 95.1681 36.1771 93.7512C34.6137 92.3343 32.6105 90.7708 30.1675 89.0608C28.7995 88.0347 27.3337 86.8866 25.7702 85.6162C24.2556 84.297 22.9608 82.758 21.8859 80.9991C20.811 79.1913 20.2736 77.0659 20.2736 74.623C20.2736 72.0823 20.8599 69.8348 22.0325 67.8805C23.254 65.9261 24.8419 64.2893 26.7963 62.9702C28.7995 61.6021 30.9737 60.5761 33.3189 59.892C35.713 59.1592 38.0826 58.7927 40.4279 58.7927C43.3105 58.7927 45.6802 59.2569 47.5368 60.1852C49.3935 61.1135 50.7859 62.3106 51.7143 63.7763C52.6426 65.2421 53.1067 66.7567 53.1067 68.3202C53.1067 69.786 52.6914 71.2029 51.8608 72.5709C51.0791 73.8901 49.9065 74.965 48.343 75.7956C46.7795 76.6262 44.8496 77.0415 42.5532 77.0415C42.6998 76.3575 42.7975 75.7467 42.8464 75.2093C42.8952 74.623 42.9197 74.11 42.9197 73.6702C42.9197 71.2273 42.3822 69.4928 41.3073 68.4668C40.2813 67.3919 39.1331 66.8544 37.8628 66.8544C36.6413 66.8544 35.4687 67.3186 34.3449 68.2469C33.2212 69.1264 32.6593 70.5677 32.6593 72.5709C32.6593 74.281 33.099 75.7467 33.9785 76.9682C34.9068 78.1897 36.0794 79.2646 37.4963 80.1929C38.9621 81.1212 40.5012 82.0251 42.1135 82.9046C43.7747 83.784 45.3626 84.7612 46.8772 85.8361C48.4407 86.8621 49.7355 88.0836 50.7615 89.5005C51.7875 90.9174 52.3006 92.7008 52.3006 94.8505C52.3006 97.0981 51.6898 99.2967 50.4684 101.446C49.2469 103.547 47.5857 105.428 45.4848 107.09C43.3838 108.702 40.9653 109.997 38.2292 110.974C35.542 111.951 32.7082 112.44 29.7278 112.44Z" fill="#EFE9CB"/>
<path d="M187.676 54.2931C186.112 54.2931 184.622 53.9511 183.205 53.267C181.837 52.5341 180.713 51.4104 179.834 49.8958C179.003 48.3811 178.588 46.4512 178.588 44.106C178.588 42.8357 178.71 41.1745 178.954 39.1224C179.199 37.0703 179.516 34.8228 179.907 32.3799C180.347 29.9369 180.786 27.494 181.226 25.051C180.249 25.0999 179.296 25.1976 178.368 25.3442C177.489 25.4908 176.609 25.6618 175.73 25.8572L175.583 25.3442C176.56 24.1716 177.586 23.17 178.661 22.3394C179.736 21.5088 180.86 20.8248 182.032 20.2873C182.668 17.0626 183.205 14.2777 183.645 11.9324C184.084 9.53836 184.304 8.12146 184.304 7.68173C184.304 6.85113 184.939 6.1671 186.21 5.62966C187.529 5.09221 188.995 4.82349 190.607 4.82349C192.024 4.82349 193.343 5.09221 194.565 5.62966C195.835 6.1671 196.69 7.07099 197.13 8.34132C196.837 8.63447 196.421 9.7338 195.884 11.6393C195.346 13.4959 194.785 15.7679 194.198 18.4551C195.127 18.504 196.079 18.5528 197.056 18.6017C198.034 18.6505 199.035 18.7238 200.061 18.8215C200.159 19.1147 200.232 19.4323 200.281 19.7743C200.33 20.1163 200.354 20.4827 200.354 20.8736C200.354 21.6065 200.232 22.4127 199.988 23.2921C199.793 24.1227 199.548 24.88 199.255 25.5641C198.083 25.4663 196.983 25.3686 195.957 25.2709C194.931 25.1243 193.93 25.0266 192.952 24.9778C192.561 27.0787 192.195 29.1796 191.853 31.2806C191.56 33.3815 191.316 35.287 191.12 36.997C190.974 38.7071 190.9 40.0507 190.9 41.0279C190.9 43.08 191.267 44.448 192 45.132C192.781 45.8161 193.71 46.1581 194.785 46.1581C195.762 46.1581 196.641 45.9626 197.423 45.5718C198.205 45.1809 198.767 44.7167 199.109 44.1793L199.841 44.3991C199.548 46.4024 198.767 48.1613 197.496 49.6759C196.226 51.1417 194.711 52.2899 192.952 53.1205C191.193 53.9022 189.434 54.2931 187.676 54.2931Z" fill="#EFE9CB"/>
<path d="M156.648 54.5129C153.081 54.5129 150.125 53.8045 147.78 52.3876C145.435 50.9218 143.676 49.0163 142.503 46.6711C141.33 44.277 140.744 41.7119 140.744 38.9758C140.744 36.3863 141.233 33.7968 142.21 31.2073C143.236 28.5689 144.702 26.1748 146.607 24.025C148.562 21.8752 150.907 20.1407 153.643 18.8216C156.428 17.5024 159.555 16.8428 163.024 16.8428C167.323 16.8428 170.45 17.82 172.405 19.7743C174.408 21.6798 175.409 24.0006 175.409 26.7367C175.409 29.0819 174.774 31.2561 173.504 33.2593C172.283 35.2137 170.646 36.8016 168.594 38.0231C166.542 39.1957 164.294 39.782 161.851 39.782C160.581 39.782 159.286 39.5866 157.967 39.1957C156.648 38.8048 155.353 38.1941 154.083 37.3635C154.327 40.3927 155.206 42.5914 156.721 43.9594C158.236 45.3275 160.043 46.0115 162.144 46.0115C163.61 46.0115 165.076 45.7428 166.542 45.2053C168.007 44.619 169.351 43.8861 170.572 43.0067C171.843 42.0784 172.82 41.1012 173.504 40.0752L174.017 40.4416C174.017 42.9823 173.48 45.1565 172.405 46.9642C171.379 48.7232 170.011 50.1645 168.301 51.2883C166.59 52.412 164.709 53.2426 162.657 53.7801C160.654 54.2686 158.651 54.5129 156.648 54.5129ZM158.333 34.7251C159.897 34.7251 161.167 34.2854 162.144 33.4059C163.121 32.4776 163.854 31.4027 164.343 30.1812C164.832 28.9598 165.076 27.8849 165.076 26.9566C165.076 25.8328 164.758 24.9045 164.123 24.1716C163.488 23.3899 162.608 22.999 161.485 22.999C160.605 22.999 159.628 23.3166 158.553 23.9517C157.527 24.5869 156.599 25.6862 155.768 27.2497C154.938 28.7643 154.4 30.8897 154.156 33.6258C155.719 34.3587 157.112 34.7251 158.333 34.7251Z" fill="#EFE9CB"/>
<path d="M118.813 54.2932C117.054 54.2932 115.491 53.5848 114.123 52.1679C112.755 50.7021 112.071 48.65 112.071 46.0117C112.071 44.7413 112.217 43.3 112.51 41.6876C112.804 40.0753 113.146 38.4385 113.536 36.7773C113.927 35.0673 114.269 33.4794 114.562 32.0136C114.856 30.499 115.002 29.2531 115.002 28.2759C115.002 27.2499 114.807 26.4437 114.416 25.8574C114.074 25.2222 113.61 24.9046 113.023 24.9046C112.095 24.9046 111.142 25.5398 110.165 26.8101L109.725 26.517C109.677 25.7352 109.848 24.8069 110.238 23.732C110.629 22.6571 111.24 21.6311 112.071 20.6539C112.901 19.6279 113.952 18.7728 115.222 18.0888C116.541 17.4048 118.08 17.0628 119.839 17.0628C122.429 17.0628 124.31 17.8201 125.482 19.3347C126.655 20.8005 127.241 22.5838 127.241 24.6848C127.241 25.0268 127.217 25.3932 127.168 25.7841C127.168 26.1261 127.144 26.4681 127.095 26.8101C128.854 23.6343 130.686 21.2158 132.591 19.5546C134.546 17.8445 136.353 16.9895 138.015 16.9895C139.578 16.9895 140.726 17.6002 141.459 18.8217C142.192 20.0432 142.559 21.5089 142.559 23.219C142.559 24.7825 142.241 26.3704 141.606 27.9827C141.02 29.5951 140.116 30.9387 138.894 32.0136C137.722 33.0396 136.28 33.5282 134.57 33.4794L134.277 33.3328C134.228 32.0625 133.813 31.0608 133.031 30.328C132.249 29.5951 131.37 29.2286 130.393 29.2286C129.074 29.2286 127.828 29.8882 126.655 31.2074C125.531 32.5266 124.969 34.4321 124.969 36.9239C124.969 38.4385 125.14 40.0753 125.482 41.8342C125.824 43.5931 125.995 45.0833 125.995 46.3048C125.995 47.7706 125.653 49.1142 124.969 50.3357C124.285 51.5571 123.406 52.5343 122.331 53.2672C121.256 53.9512 120.084 54.2932 118.813 54.2932Z" fill="#EFE9CB"/>
<path d="M90.4386 54.5129C87.2139 54.5129 84.4778 53.7801 82.2303 52.3143C80.0316 50.8485 78.3704 48.943 77.2467 46.5978C76.1229 44.2037 75.561 41.6386 75.561 38.9025C75.561 36.313 76.0496 33.7235 77.0268 31.134C78.0528 28.5445 79.543 26.1748 81.4974 24.025C83.4517 21.8264 85.8214 20.0919 88.6063 18.8216C91.4402 17.5024 94.6893 16.8428 98.3537 16.8428C101.969 16.8428 104.656 17.5757 106.415 19.0414C108.174 20.4583 109.054 22.0218 109.054 23.7319C109.054 25.5396 108.15 27.2008 106.342 28.7155C104.534 30.2301 101.896 30.9874 98.427 30.9874C98.6224 30.2545 98.769 29.5216 98.8667 28.7888C99.0133 28.007 99.0866 27.2741 99.0866 26.5901C99.0866 25.5641 98.8667 24.709 98.427 24.025C97.9872 23.2921 97.2055 22.9257 96.0817 22.9257C95.0557 22.9257 93.9564 23.3899 92.7838 24.3182C91.66 25.2465 90.6828 26.6145 89.8522 28.4223C89.0705 30.2301 88.6796 32.4532 88.6796 35.0916C88.6796 37.6811 89.0949 39.782 89.9255 41.3943C90.805 43.0067 91.9287 44.1793 93.2968 44.9122C94.6648 45.5962 96.1062 45.9382 97.6208 45.9382C99.624 45.9382 101.554 45.4252 103.411 44.3992C105.267 43.3243 106.611 41.8585 107.441 40.0019L108.174 40.295C108.174 42.8357 107.588 45.0099 106.415 46.8177C105.292 48.5766 103.826 50.0424 102.018 51.215C100.21 52.3387 98.2804 53.1693 96.2283 53.7068C94.1763 54.2442 92.2463 54.5129 90.4386 54.5129Z" fill="#EFE9CB"/>
<path d="M55.4582 54.5129C51.8915 54.5129 48.9356 53.8045 46.5904 52.3876C44.2451 50.9218 42.4862 49.0163 41.3136 46.6711C40.141 44.277 39.5547 41.7119 39.5547 38.9758C39.5547 36.3863 40.0433 33.7968 41.0205 31.2073C42.0465 28.5689 43.5123 26.1748 45.4177 24.025C47.3721 21.8752 49.7173 20.1407 52.4534 18.8216C55.2384 17.5024 58.3653 16.8428 61.8343 16.8428C66.1339 16.8428 69.2609 17.82 71.2152 19.7743C73.2184 21.6798 74.22 24.0006 74.22 26.7367C74.22 29.0819 73.5849 31.2561 72.3145 33.2593C71.0931 35.2137 69.4563 36.8016 67.4042 38.0231C65.3522 39.1957 63.1047 39.782 60.6617 39.782C59.3914 39.782 58.0966 39.5866 56.7774 39.1957C55.4582 38.8048 54.1635 38.1941 52.8932 37.3635C53.1374 40.3927 54.0169 42.5914 55.5315 43.9594C57.0462 45.3275 58.8539 46.0115 60.9549 46.0115C62.4206 46.0115 63.8864 45.7428 65.3522 45.2053C66.8179 44.619 68.1615 43.8861 69.383 43.0067C70.6533 42.0784 71.6305 41.1012 72.3145 40.0752L72.8276 40.4416C72.8276 42.9823 72.2901 45.1565 71.2152 46.9642C70.1892 48.7232 68.8211 50.1645 67.1111 51.2883C65.401 52.412 63.52 53.2426 61.4679 53.7801C59.4647 54.2686 57.4615 54.5129 55.4582 54.5129ZM57.1439 34.7251C58.7074 34.7251 59.9777 34.2854 60.9549 33.4059C61.932 32.4776 62.6649 31.4027 63.1535 30.1812C63.6421 28.9598 63.8864 27.8849 63.8864 26.9566C63.8864 25.8328 63.5688 24.9045 62.9336 24.1716C62.2985 23.3899 61.419 22.999 60.2953 22.999C59.4158 22.999 58.4386 23.3166 57.3637 23.9517C56.3377 24.5869 55.4094 25.6862 54.5788 27.2497C53.7482 28.7643 53.2107 30.8897 52.9664 33.6258C54.5299 34.3587 55.9224 34.7251 57.1439 34.7251Z" fill="#EFE9CB"/>
<path d="M15.0002 54.4397C11.7267 54.4397 9.01503 53.8779 6.86525 52.7541C4.76431 51.6304 3.20083 50.189 2.1748 48.4301C1.14876 46.6712 0.635742 44.8634 0.635742 43.0068C0.635742 41.199 1.07547 39.4889 1.95493 37.8766C2.83439 36.2154 4.08029 34.8473 5.69263 33.7724C7.35383 32.6975 9.30819 32.1601 11.5557 32.1601C11.5068 32.5998 11.4824 33.0151 11.4824 33.406C11.4824 33.748 11.4824 33.919 11.4824 33.919C11.4824 37.1926 11.8 39.7821 12.4352 41.6876C13.0703 43.5442 13.8765 44.8878 14.8537 45.7184C15.8308 46.5002 16.8324 46.891 17.8585 46.891C19.422 46.891 20.8144 46.2803 22.0359 45.0588C23.2574 43.7885 23.8681 42.3227 23.8681 40.6615C23.8681 38.8049 23.062 37.1681 21.4496 35.7512C19.8861 34.3343 17.8829 32.7708 15.44 31.0608C14.0719 30.0347 12.6062 28.8866 11.0427 27.6162C9.52805 26.297 8.23329 24.758 7.1584 22.9991C6.0835 21.1913 5.54606 19.0659 5.54606 16.623C5.54606 14.0823 6.13236 11.8348 7.30497 9.88047C8.52645 7.92611 10.1144 6.28934 12.0687 4.97015C14.0719 3.60211 16.2461 2.57607 18.5914 1.89205C20.9855 1.15917 23.3551 0.792725 25.7003 0.792725C28.583 0.792725 30.9527 1.25688 32.8093 2.1852C34.6659 3.11352 36.0584 4.31056 36.9867 5.77632C37.915 7.24209 38.3792 8.75671 38.3792 10.3202C38.3792 11.786 37.9639 13.2029 37.1333 14.5709C36.3516 15.8901 35.1789 16.965 33.6155 17.7956C32.052 18.6262 30.1221 19.0415 27.8257 19.0415C27.9723 18.3575 28.07 17.7467 28.1188 17.2093C28.1677 16.623 28.1921 16.11 28.1921 15.6702C28.1921 13.2273 27.6547 11.4928 26.5798 10.4668C25.5538 9.39188 24.4056 8.85443 23.1352 8.85443C21.9138 8.85443 20.7412 9.31859 19.6174 10.2469C18.4937 11.1264 17.9318 12.5677 17.9318 14.5709C17.9318 16.281 18.3715 17.7467 19.251 18.9682C20.1793 20.1897 21.3519 21.2646 22.7688 22.1929C24.2346 23.1212 25.7736 24.0251 27.386 24.9046C29.0472 25.784 30.6351 26.7612 32.1497 27.8361C33.7132 28.8621 35.0079 30.0836 36.034 31.5005C37.06 32.9174 37.573 34.7008 37.573 36.8506C37.573 39.0981 36.9623 41.2967 35.7408 43.4465C34.5194 45.5474 32.8582 47.4285 30.7572 49.0897C28.6563 50.702 26.2378 51.9968 23.5017 52.974C20.8144 53.9511 17.9806 54.4397 15.0002 54.4397Z" fill="#EFE9CB"/>
</svg>
