<?xml version="1.0" encoding="utf-8"?>
<!-- Generator: Adobe Illustrator 27.9.0, SVG Export Plug-In . SVG Version: 6.00 Build 0)  -->
<svg version="1.1" id="Layer_1" xmlns="http://www.w3.org/2000/svg" xmlns:xlink="http://www.w3.org/1999/xlink" x="0px" y="0px"
	 viewBox="0 0 459.7 267.4" style="enable-background:new 0 0 459.7 267.4;" xml:space="preserve">
<style type="text/css">
	.st0{fill:#FFFFFF;}
	.st1{fill:#FD4801;}
	.st2{fill:#FE9EBF;}
</style>
<path class="st0" d="M421.7,173.1c3,0,5.8,0.6,8.4,1.7s4.5,3.1,5.4,5.9l0.3,1c-1.3,2.9-2.5,6.3-3.8,10.3c-1.3,4-2.4,8.3-3.5,12.7
	c-1.1,4.3-1.9,8.6-2.5,12.9c-0.6,4.1-1,7.8-1,11c0,3.5,0.4,5.9,1.1,7.3c0.7,1.3,1.6,1.9,2.7,1.9c1.8,0,3.4-1.3,4.9-3.8l1.3,0.6
	c0,3.6-1.2,6.9-3.5,9.9c-2.3,3-5.2,5.4-8.7,7.2c-3.5,1.7-7,2.5-10.5,2.5c-3.7,0-6.9-1.2-9.7-3.7c-2.8-2.4-4.1-6.4-4.1-11.9
	c0-0.5,0-1.1,0-1.6s0.1-1.1,0.2-1.6c-3.2,6.4-6.8,11.1-10.8,14.2c-3.9,3-7.9,4.5-11.9,4.5c-3.7,0-7.2-1.3-10.5-3.8
	c-3.3-2.7-5.9-6.5-8-11.6c-2-5.1-3-11.2-3-18.4c0-7.4,1-14,3-19.9c2.1-5.8,4.9-10.8,8.3-14.8c3.4-4,7.1-7,11.1-9.1
	c4-2.1,8-3.2,11.8-3.2c4.2,0,8.1,1.3,11.5,4c3.4,2.5,5.7,6.6,7,12.2c0.3-1.8,0.5-3.4,0.6-4.9c0.2-1.5,0.3-2.5,0.3-3
	c0.1-2.9,1.5-5,4.3-6.4C415.2,173.8,418.3,173.1,421.7,173.1 M386.4,234c2.8,0,5.8-2.4,9.1-7.3c3.4-5,6.3-12.1,8.7-21.3
	c0.2-1,0.4-1.9,0.6-2.7c0.2-1,0.4-1.9,0.5-2.7c-1.7-3.9-3.5-6.7-5.4-8.3c-1.8-1.7-3.6-2.5-5.4-2.5c-2.6,0-5.1,1.4-7.5,4.3
	c-2.2,2.8-4.1,6.3-5.6,10.5c-1.4,4.2-2.1,8.5-2.1,12.7c0,5.8,0.6,10.2,1.9,13C382.7,232.6,384.4,234,386.4,234 M421.7,160.1
	c-5.3,0-10.4,1.1-15,3.4l-0.1,0l-0.1,0c-0.7,0.3-1.3,0.7-1.9,1.1c-4.8-2.9-10.2-4.3-16-4.3c-5.9,0-11.8,1.6-17.7,4.6
	c-5.6,2.8-10.6,6.9-15.1,12.3c-4.4,5.2-7.9,11.5-10.5,18.7l0,0.1l0,0.1c-2.5,7.2-3.7,15.3-3.7,24.1c0,8.8,1.3,16.6,3.9,23.2
	c2.8,7.2,6.8,12.9,11.9,16.9l0.1,0.1l0.1,0.1c5.6,4.3,11.8,6.5,18.5,6.5c6.5,0,12.8-2.1,18.7-6.3c5,4.2,11.1,6.4,17.8,6.4
	c5.5,0,10.9-1.3,16.2-3.8l0.1-0.1l0.1-0.1c5.2-2.7,9.5-6.2,13-10.7c4.1-5.2,6.3-11.4,6.3-17.9v-8l-7.2-3.6l-1.3-0.6l-1.1-0.5
	c0.1-0.7,0.2-1.5,0.3-2.2c0.6-3.9,1.4-7.8,2.3-11.8l0,0l0,0c1-4.1,2.1-8.1,3.2-11.8c1.1-3.5,2.2-6.6,3.3-9l2-4.6l-1.6-4.8l-0.3-1
	l0-0.1l0-0.1c-2.2-6.2-6.5-10.9-12.5-13.5C431,161.1,426.4,160.1,421.7,160.1L421.7,160.1z M422.5,227.6
	C422.5,227.6,422.5,227.6,422.5,227.6L422.5,227.6L422.5,227.6z"/>
<path class="st0" d="M332.8,146.7c3.1,0,5.9,0.6,8.6,1.8c2.8,1.2,4.6,3.1,5.6,5.9c-0.6,0.6-1.5,3-2.7,7.2c-1.2,4-2.4,9-3.7,14.8
	c2,0.1,4.1,0.2,6.2,0.3c2.1,0.1,4.3,0.3,6.5,0.5c0.2,0.6,0.4,1.3,0.5,2.1c0.1,0.7,0.2,1.5,0.2,2.4c0,1.6-0.3,3.3-0.8,5.2
	c-0.4,1.8-1,3.4-1.6,4.9c-2.5-0.2-4.9-0.4-7.2-0.6c-2.2-0.3-4.4-0.5-6.5-0.6c-0.8,4.6-1.6,9.1-2.4,13.7c-0.6,4.6-1.2,8.7-1.6,12.4
	c-0.3,3.7-0.5,6.6-0.5,8.7c0,4.5,0.8,7.4,2.4,8.9c1.7,1.5,3.7,2.2,6,2.2c2.1,0,4-0.4,5.7-1.3c1.7-0.8,2.9-1.9,3.7-3l1.6,0.5
	c-0.6,4.3-2.3,8.2-5.1,11.4c-2.8,3.2-6,5.7-9.9,7.5c-3.8,1.7-7.6,2.5-11.5,2.5c-3.4,0-6.6-0.7-9.7-2.2c-3-1.6-5.4-4-7.3-7.3
	c-1.8-3.3-2.7-7.5-2.7-12.6c0-2.8,0.3-6.4,0.8-10.8c0.5-4.5,1.2-9.3,2.1-14.6c1-5.3,1.9-10.6,2.9-15.9c-2.1,0.1-4.2,0.3-6.2,0.6
	c-1.9,0.3-3.8,0.7-5.7,1.1l-0.3-1.1c2.1-2.5,4.3-4.7,6.7-6.5c2.3-1.8,4.8-3.3,7.3-4.5c1.4-7,2.5-13,3.5-18.1c1-5.2,1.4-8.3,1.4-9.2
	c0-1.8,1.4-3.3,4.1-4.5C326.2,147.3,329.3,146.7,332.8,146.7 M332.8,133.7c-5.2,0-10,0.9-14.4,2.7l-0.1,0l-0.1,0
	c-10.4,4.4-12,12.3-12.1,16c-0.1,0.5-0.3,2.2-1.2,7.3c-0.7,3.5-1.4,7.5-2.3,12.1c-1.3,0.8-2.5,1.7-3.7,2.6c-3.1,2.4-6,5.2-8.7,8.5
	l-4.4,5.3l1.9,6.6l0.3,1.1l3.4,11.8l5-1.1c-0.7,4.6-1.3,9-1.8,13c-0.6,5-0.9,9-0.9,12.3c0,7.3,1.4,13.6,4.3,18.8l0.1,0.1l0.1,0.1
	c3.1,5.4,7.3,9.5,12.4,12.2l0.2,0.1l0.2,0.1c4.8,2.3,10,3.5,15.4,3.5c5.6,0,11.3-1.2,16.7-3.7l0.1-0.1l0.1-0.1
	c5.4-2.6,10.2-6.2,14.1-10.7l0.1-0.1l0.1-0.1c4.3-5.1,7-11.2,8-17.9l1.6-11.1l-10.8-3.2l-1.6-0.5l-8.1-2.4c0.4-3.4,0.9-7.1,1.4-11.2
	c0.1-0.5,0.2-1,0.3-1.6c0.6,0.1,1.2,0.1,1.9,0.2l9.3,0.8l3.7-8.6c0.9-2.1,1.6-4.4,2.2-6.8c0.8-2.9,1.2-5.8,1.2-8.5
	c0-1.5-0.1-2.9-0.3-4.2c-0.2-1.5-0.6-3-1-4.3l-2.7-8l-6-0.6c0.3-1.1,0.6-1.8,0.7-2.4l4.2-4.2l-2.7-7.7c-2.2-6.2-6.6-10.9-12.7-13.6
	C342.3,134.7,337.7,133.7,332.8,133.7L332.8,133.7z"/>
<path class="st0" d="M282.8,173.3c5,0,8.4,1.6,10.2,4.8c1.8,3.2,2.7,7.2,2.7,11.9c0,4.5-0.5,9.2-1.4,14.3c-1,5.1-1.9,10-2.9,14.8
	c-1,4.7-1.4,8.6-1.4,11.8c0,4.2,1.2,6.4,3.7,6.4c1.3,0,2.4-0.4,3.3-1.1c1-0.8,1.6-1.6,1.9-2.4l1.1,0.5c0,3.9-1.1,7.4-3.3,10.3
	c-2.1,3-4.8,5.3-8.1,7c-3.3,1.6-6.6,2.4-10,2.4c-4.1,0-7.8-1.4-11-4.3c-3.2-2.9-4.8-7.5-4.8-14c0-3.8,0.5-8,1.4-12.4
	c1.1-4.5,2.1-8.7,3-12.9c1-4.1,1.4-7.5,1.4-10.2c0-1.6-0.3-2.8-1-3.7c-0.5-1-1.5-1.4-3-1.4c-2.4,0-5.1,1.1-8.1,3.3
	c-2.9,2.2-5.4,5.2-7.5,8.9c-2,3.7-3,7.8-3,12.2c0,2.9,0.3,5.6,1,8.3c0.7,2.7,1.1,5.5,1.1,8.6c0,5.7-1.5,10.1-4.5,13
	c-3,3-6.4,4.5-10.3,4.5c-3.9,0-7.5-1.5-10.7-4.6c-3.2-3.2-4.8-7.6-4.8-13.2c0-2.8,0.4-5.9,1.1-9.4c0.7-3.5,1.5-7,2.4-10.7
	c1-3.6,1.8-7,2.5-10.2c0.7-3.2,1.1-5.8,1.1-7.8c0-2.1-0.4-3.8-1.3-4.9c-0.8-1.3-2-1.9-3.3-1.9c-1.8,0-3.8,1.1-5.9,3.2l-1-0.6
	c-0.1-1.7,0.3-3.7,1.1-6s2.1-4.6,3.8-6.7c1.8-2.2,4.1-4.1,6.8-5.6c2.8-1.5,6-2.2,9.9-2.2c5.6,0,9.8,1.6,12.4,4.9
	c2.8,3.2,4.1,7.1,4.1,11.8c0,1.7-0.2,3.3-0.5,4.9c2.2-3.3,5-6.6,8.3-9.9c3.3-3.4,6.9-6.2,10.8-8.4
	C274.4,174.4,278.5,173.3,282.8,173.3 M282.8,160.3c-6.4,0-12.7,1.7-18.7,5l-0.1,0l-0.1,0c-2.3,1.3-4.4,2.7-6.5,4.3
	c-3.7-4.4-10.4-9.4-22.2-9.4c-6,0-11.4,1.3-16,3.8c-4.3,2.3-7.9,5.3-10.8,8.8l0,0l0,0c-2.6,3.2-4.6,6.7-5.9,10.4
	c-1.5,4.1-2.1,7.8-1.9,11.3l0.4,6.4l5.4,3.6l1,0.6l2.9,1.9c-0.4,1.8-0.9,3.6-1.4,5.5l0,0.2l0,0.2c-0.9,3.7-1.7,7.4-2.4,10.9
	c-0.9,4.4-1.4,8.4-1.4,12.1c0,11.4,4.7,18.5,8.6,22.4l0.1,0.1l0.1,0.1c5.6,5.4,12.4,8.3,19.7,8.3c7.4,0,14.1-2.9,19.5-8.3
	c1-1,1.8-2,2.6-3c1,1.3,2.1,2.6,3.3,3.7c5.5,5,12.3,7.6,19.7,7.6c5.4,0,10.6-1.2,15.7-3.7l0.2-0.1l0.2-0.1
	c5.1-2.6,9.3-6.3,12.6-10.9c3.9-5.2,5.8-11.3,5.8-18v-8.6l-7.9-3.4l-1-0.4c0,0,0-0.1,0-0.1l0,0l0,0c1-4.8,1.9-9.9,2.9-14.9
	c1.1-5.9,1.7-11.5,1.7-16.7c0-7-1.5-13.2-4.4-18.3C301.9,167.4,295.9,160.3,282.8,160.3L282.8,160.3z"/>
<path class="st0" d="M197,173.1c3,0,5.8,0.6,8.4,1.7c2.7,1.2,4.5,3.1,5.4,5.9l0.3,1c-1.3,2.9-2.5,6.3-3.8,10.3
	c-1.3,4-2.4,8.3-3.5,12.7c-1.1,4.3-1.9,8.6-2.5,12.9c-0.6,4.1-1,7.8-1,11c0,3.5,0.4,5.9,1.1,7.3c0.7,1.3,1.6,1.9,2.7,1.9
	c1.8,0,3.4-1.3,4.9-3.8l1.3,0.6c0,3.6-1.2,6.9-3.5,9.9c-2.3,3-5.2,5.4-8.7,7.2c-3.5,1.7-7,2.5-10.5,2.5c-3.7,0-6.9-1.2-9.7-3.7
	c-2.8-2.4-4.1-6.4-4.1-11.9c0-0.5,0-1.1,0-1.6s0.1-1.1,0.2-1.6c-3.2,6.4-6.8,11.1-10.8,14.2c-3.9,3-7.9,4.5-11.9,4.5
	c-3.7,0-7.2-1.3-10.5-3.8c-3.3-2.7-5.9-6.5-8-11.6c-2-5.1-3-11.2-3-18.4c0-7.4,1-14,3-19.9c2.1-5.8,4.9-10.8,8.3-14.8
	c3.4-4,7.1-7,11.1-9.1c4-2.1,8-3.2,11.8-3.2c4.2,0,8.1,1.3,11.4,4c3.4,2.5,5.7,6.6,7,12.2c0.3-1.8,0.5-3.4,0.6-4.9
	c0.2-1.5,0.3-2.5,0.3-3c0.1-2.9,1.5-5,4.3-6.4C190.5,173.8,193.6,173.1,197,173.1 M161.7,234c2.8,0,5.8-2.4,9.1-7.3
	c3.4-5,6.3-12.1,8.7-21.3c0.2-1,0.4-1.9,0.6-2.7c0.2-1,0.4-1.9,0.5-2.7c-1.7-3.9-3.5-6.7-5.4-8.3c-1.8-1.7-3.6-2.5-5.4-2.5
	c-2.7,0-5.1,1.4-7.5,4.3c-2.2,2.8-4.1,6.3-5.6,10.5c-1.4,4.2-2.1,8.5-2.1,12.7c0,5.8,0.6,10.2,1.9,13C158,232.6,159.7,234,161.7,234
	 M197,160.1c-5.3,0-10.4,1.1-15,3.4l-0.1,0l-0.1,0c-0.7,0.3-1.3,0.7-1.9,1.1c-4.8-2.9-10.2-4.3-16-4.3c-5.9,0-11.8,1.6-17.7,4.6
	c-5.6,2.8-10.6,6.9-15.1,12.3c-4.4,5.2-7.9,11.5-10.5,18.7l0,0.1l0,0.1c-2.5,7.2-3.7,15.3-3.7,24.1c0,8.8,1.3,16.6,3.9,23.2
	c2.8,7.2,6.8,12.9,11.9,16.9l0.1,0.1l0.1,0.1c5.6,4.3,11.8,6.5,18.5,6.5c6.5,0,12.8-2.1,18.7-6.3c5,4.2,11.1,6.4,17.8,6.4
	c5.5,0,10.9-1.3,16.2-3.8l0.1-0.1l0.1-0.1c5.2-2.7,9.5-6.2,13-10.7c4.1-5.2,6.3-11.4,6.3-17.9v-8l-7.2-3.6l-1.3-0.6l-1.1-0.5
	c0.1-0.7,0.2-1.5,0.3-2.2c0.6-3.9,1.4-7.8,2.3-11.8l0,0l0,0c1-4.1,2.1-8.1,3.2-11.8c1.1-3.5,2.2-6.6,3.3-9l2-4.6l-1.6-4.8l-0.3-1
	l0-0.1l0-0.1c-2.2-6.2-6.5-10.9-12.5-13.5C206.4,161.1,201.8,160.1,197,160.1L197,160.1z M197.8,227.6
	C197.8,227.6,197.8,227.6,197.8,227.6L197.8,227.6L197.8,227.6z"/>
<path class="st1" d="M76.1,254.4c-7.1,0-13-1.2-17.7-3.7c-4.6-2.4-8-5.6-10.2-9.4c-2.2-3.8-3.3-7.7-3.3-11.8c0-3.9,1-7.6,2.9-11.1
	c1.9-3.6,4.6-6.6,8.1-8.9c3.6-2.3,7.8-3.5,12.7-3.5c-0.1,1-0.2,1.9-0.2,2.7c0,0.7,0,1.1,0,1.1c0,7.1,0.7,12.7,2.1,16.9
	c1.4,4,3.1,6.9,5.2,8.7c2.1,1.7,4.3,2.5,6.5,2.5c3.4,0,6.4-1.3,9.1-4c2.7-2.8,4-5.9,4-9.5c0-4-1.7-7.6-5.2-10.7
	c-3.4-3.1-7.7-6.5-13-10.2c-3-2.2-6.1-4.7-9.5-7.5c-3.3-2.9-6.1-6.2-8.4-10c-2.3-3.9-3.5-8.5-3.5-13.8c0-5.5,1.3-10.4,3.8-14.6
	c2.7-4.2,6.1-7.8,10.3-10.7c4.3-3,9.1-5.2,14.2-6.7c5.2-1.6,10.3-2.4,15.4-2.4c6.3,0,11.4,1,15.4,3c4,2,7,4.6,9.1,7.8
	c2,3.2,3,6.5,3,9.9c0,3.2-0.9,6.3-2.7,9.2c-1.7,2.9-4.2,5.2-7.6,7c-3.4,1.8-7.6,2.7-12.6,2.7c0.3-1.5,0.5-2.8,0.6-4
	c0.1-1.3,0.2-2.4,0.2-3.3c0-5.3-1.2-9.1-3.5-11.3c-2.2-2.3-4.7-3.5-7.5-3.5c-2.7,0-5.2,1-7.6,3c-2.4,1.9-3.7,5-3.7,9.4
	c0,3.7,1,6.9,2.9,9.5c2,2.6,4.6,5,7.6,7c3.2,2,6.5,4,10,5.9c3.6,1.9,7,4,10.3,6.4c3.4,2.2,6.2,4.9,8.4,8c2.2,3.1,3.3,6.9,3.3,11.6
	c0,4.9-1.3,9.6-4,14.3c-2.7,4.6-6.3,8.6-10.8,12.2c-4.6,3.5-9.8,6.3-15.7,8.4C88.7,253.3,82.6,254.4,76.1,254.4z"/>
<path class="st0" d="M99.3,138c6.3,0,11.4,1,15.4,3c4,2,7,4.6,9.1,7.8c2,3.2,3,6.5,3,9.9c0,3.2-0.9,6.3-2.7,9.2
	c-1.7,2.9-4.2,5.2-7.6,7c-3.4,1.8-7.6,2.7-12.6,2.7c0.3-1.5,0.5-2.8,0.6-4c0.1-1.3,0.2-2.4,0.2-3.3c0-5.3-1.2-9.1-3.5-11.3
	c-2.2-2.3-4.7-3.5-7.5-3.5c-2.7,0-5.2,1-7.6,3c-2.4,1.9-3.7,5-3.7,9.4c0,3.7,1,6.9,2.9,9.5c2,2.6,4.6,5,7.6,7c3.2,2,6.5,4,10,5.9
	c3.6,1.9,7,4,10.3,6.4c3.4,2.2,6.2,4.9,8.4,8c2.2,3.1,3.3,6.9,3.3,11.6c0,4.9-1.3,9.6-4,14.3c-2.7,4.6-6.3,8.6-10.8,12.2
	c-4.6,3.5-9.8,6.3-15.7,8.4c-5.8,2.1-12,3.2-18.4,3.2c-7.1,0-13-1.2-17.7-3.7c-4.6-2.4-8-5.6-10.2-9.4c-2.2-3.8-3.3-7.7-3.3-11.8
	c0-3.9,1-7.6,2.9-11.1c1.9-3.6,4.6-6.6,8.1-8.9c3.6-2.3,7.8-3.5,12.7-3.5c-0.1,1-0.2,1.9-0.2,2.7c0,0.7,0,1.1,0,1.1
	c0,7.1,0.7,12.7,2.1,16.9c1.4,4,3.1,6.9,5.2,8.7c2.1,1.7,4.3,2.5,6.5,2.5c3.4,0,6.4-1.3,9.1-4c2.7-2.8,4-5.9,4-9.5
	c0-4-1.7-7.6-5.2-10.7c-3.4-3.1-7.7-6.5-13-10.2c-3-2.2-6.1-4.7-9.5-7.5c-3.3-2.9-6.1-6.2-8.4-10c-2.3-3.9-3.5-8.5-3.5-13.8
	c0-5.5,1.3-10.4,3.8-14.6c2.7-4.2,6.1-7.8,10.3-10.7c4.3-3,9.1-5.2,14.2-6.7C89.1,138.8,94.3,138,99.3,138 M68.7,206.1L68.7,206.1
	 M99.3,125c-6.3,0-12.8,1-19.2,2.9c-6.3,1.9-12.3,4.7-17.7,8.4c-5.7,3.9-10.5,8.8-14.1,14.5l-0.1,0.1l-0.1,0.1
	c-3.8,6.3-5.7,13.4-5.7,21.3c0,7.6,1.8,14.5,5.3,20.5l0,0.1l0,0.1c0.9,1.5,1.9,3,3,4.4c-0.7,0.4-1.4,0.8-2.1,1.3l-0.1,0l-0.1,0
	c-5.3,3.5-9.4,8.1-12.3,13.6c-2.9,5.4-4.4,11.2-4.4,17.3c0,6.3,1.7,12.5,5.1,18.3c3.4,5.9,8.6,10.7,15.3,14.3l0.1,0l0.1,0
	c6.5,3.4,14.5,5.1,23.7,5.1c7.9,0,15.6-1.3,22.9-4c7.2-2.6,13.6-6,19.2-10.3l0.1-0.1l0.1-0.1c5.8-4.6,10.5-10,14-15.9l0-0.1l0-0.1
	c3.8-6.6,5.7-13.6,5.7-20.7c0-7.4-2-13.9-5.8-19.2c-2.8-3.9-6.3-7.3-10.4-10.2c0.3-0.1,0.5-0.3,0.8-0.4c5.5-2.9,9.8-6.9,12.7-11.8
	c3-5,4.6-10.4,4.6-15.9c0-5.9-1.7-11.5-5-16.8c-3.3-5.2-8.1-9.4-14.2-12.5C114.8,126.5,107.6,125,99.3,125L99.3,125z M68.7,193.1
	L68.7,193.1L68.7,193.1L68.7,193.1z"/>
<path class="st0" d="M425.2,21.7c3.1,0,5.9,0.6,8.6,1.7c2.8,1.2,4.6,3.1,5.6,5.9c-0.6,0.6-1.5,3-2.7,7.2c-1.2,4-2.4,9-3.7,14.8
	c2,0.1,4.1,0.2,6.2,0.3c2.1,0.1,4.3,0.3,6.5,0.5c0.2,0.6,0.4,1.3,0.5,2.1c0.1,0.7,0.2,1.5,0.2,2.4c0,1.6-0.3,3.3-0.8,5.2
	c-0.4,1.8-1,3.4-1.6,4.9c-2.5-0.2-4.9-0.4-7.2-0.6c-2.2-0.3-4.4-0.5-6.5-0.6c-0.8,4.6-1.6,9.1-2.4,13.7c-0.6,4.6-1.2,8.7-1.6,12.4
	c-0.3,3.7-0.5,6.6-0.5,8.7c0,4.5,0.8,7.4,2.4,8.9c1.7,1.5,3.7,2.2,6,2.2c2.1,0,4-0.4,5.7-1.3c1.7-0.8,2.9-1.9,3.7-3l1.6,0.5
	c-0.6,4.3-2.3,8.2-5.1,11.4c-2.8,3.2-6,5.7-9.9,7.5c-3.8,1.7-7.6,2.5-11.4,2.5c-3.4,0-6.6-0.7-9.7-2.2c-3-1.6-5.4-4-7.3-7.3
	c-1.8-3.3-2.7-7.5-2.7-12.6c0-2.8,0.3-6.4,0.8-10.8c0.5-4.5,1.2-9.3,2.1-14.6c1-5.3,1.9-10.6,2.9-15.9c-2.1,0.1-4.2,0.3-6.2,0.6
	c-1.9,0.3-3.8,0.7-5.7,1.1l-0.3-1.1c2.1-2.5,4.3-4.7,6.7-6.5c2.3-1.8,4.8-3.3,7.3-4.5c1.4-7,2.5-13,3.5-18.1c1-5.2,1.4-8.3,1.4-9.2
	c0-1.8,1.4-3.3,4.1-4.5C418.5,22.3,421.7,21.7,425.2,21.7 M425.2,8.7c-5.2,0-10,0.9-14.4,2.7l-0.1,0l-0.1,0
	c-10.4,4.4-11.9,12.3-12.1,16c-0.1,0.5-0.3,2.2-1.2,7.3c-0.7,3.5-1.4,7.5-2.3,12.1c-1.3,0.8-2.5,1.7-3.7,2.6c-3.1,2.4-6,5.2-8.7,8.5
	l-4.4,5.3l1.9,6.6l0.3,1.1l3.4,11.8l5-1.1c-0.7,4.6-1.3,9-1.8,13c-0.6,5-0.9,9-0.9,12.4c0,7.3,1.4,13.6,4.3,18.8l0.1,0.1l0.1,0.1
	c3.1,5.4,7.3,9.5,12.4,12.2l0.2,0.1l0.2,0.1c4.8,2.3,10,3.5,15.4,3.5c5.6,0,11.3-1.2,16.7-3.7l0.1-0.1l0.1-0.1
	c5.4-2.6,10.2-6.2,14.1-10.7l0.1-0.1l0.1-0.1c4.3-5.1,7-11.2,8-17.9l1.6-11.1L449,95.2l-1.6-0.5l-8.1-2.4c0.4-3.4,0.9-7.1,1.4-11.2
	c0.1-0.5,0.2-1,0.3-1.5c0.6,0.1,1.2,0.1,1.9,0.2l9.3,0.8l3.7-8.6c0.9-2.1,1.7-4.4,2.2-6.8c0.8-2.9,1.2-5.8,1.2-8.5
	c0-1.5-0.1-2.9-0.3-4.2c-0.2-1.5-0.6-3-1-4.3l-2.7-8l-6-0.6c0.3-1.1,0.6-1.8,0.7-2.4l4.2-4.2l-2.7-7.7c-2.2-6.3-6.6-10.9-12.7-13.6
	C434.7,9.7,430,8.7,425.2,8.7L425.2,8.7z"/>
<path class="st0" d="M365.4,47.8c9.3,0,16.1,2.1,20.4,6.4c4.3,4.1,6.5,9.2,6.5,15.1c0,5.1-1.4,9.8-4.1,14.2
	c-2.6,4.2-6.2,7.7-10.7,10.3c-4.5,2.5-9.3,3.8-14.6,3.8c-2.8,0-5.6-0.4-8.4-1.3c-2.9-0.8-5.7-2.2-8.4-4c0.5,6.6,2.4,11.3,5.7,14.3
	c3.3,3,7.2,4.5,11.8,4.5c3.2,0,6.4-0.6,9.5-1.7c3.2-1.3,6.1-2.9,8.7-4.8c2.8-2,4.9-4.1,6.4-6.4l1.1,0.8c0,5.5-1.2,10.2-3.5,14.2
	c-2.2,3.8-5.2,6.9-8.9,9.4c-3.7,2.4-7.8,4.2-12.2,5.4c-4.3,1.1-8.7,1.6-13,1.6c-7.7,0-14.2-1.5-19.2-4.6c-5.1-3.2-8.9-7.3-11.4-12.4
	c-2.5-5.2-3.8-10.8-3.8-16.7c0-5.6,1.1-11.2,3.2-16.9c2.2-5.7,5.4-10.9,9.5-15.6c4.2-4.7,9.3-8.4,15.3-11.3
	C351,49.3,357.8,47.8,365.4,47.8 M355.2,86.6c3.4,0,6.1-1,8.3-2.9c2.1-2,3.7-4.3,4.8-7c1.1-2.7,1.6-5,1.6-7c0-2.4-0.7-4.5-2.1-6
	c-1.4-1.7-3.3-2.5-5.7-2.5c-1.9,0-4,0.7-6.4,2.1c-2.2,1.4-4.2,3.8-6,7.2c-1.8,3.3-3,7.9-3.5,13.8C349.5,85.8,352.5,86.6,355.2,86.6
	 M365.4,34.8c-9.4,0-18.2,1.9-25.9,5.5l0,0l0,0c-7.4,3.6-13.9,8.4-19.2,14.3l-0.1,0.1l-0.1,0.1c-5.1,5.8-9.2,12.4-11.9,19.5l0,0.1
	l0,0.1c-2.7,7.1-4,14.3-4,21.4c0,7.9,1.7,15.5,5.1,22.4l0,0l0,0c3.6,7.2,9.1,13.2,16.2,17.6l0.1,0.1l0.1,0.1
	c7.1,4.3,15.9,6.5,26,6.5c5.4,0,10.8-0.7,16.1-2l0.1,0l0.1,0c5.8-1.5,11.2-3.9,16.1-7.1c5.4-3.5,9.7-8.1,13-13.6
	c3.5-5.9,5.3-12.9,5.3-20.8v-6.7l-3-2.1c4-6.4,6-13.4,6-20.9c0-9.4-3.6-17.9-10.4-24.4C388,38.2,378.1,34.8,365.4,34.8L365.4,34.8z"
	/>
<path class="st0" d="M311.1,48.1c3.4,0,5.9,1.3,7.5,4c1.6,2.7,2.4,5.8,2.4,9.5c0,3.4-0.7,6.8-2.1,10.3c-1.3,3.5-3.2,6.4-5.9,8.7
	c-2.4,2.1-5.4,3.2-8.9,3.2c-0.2,0-0.3,0-0.5,0l-0.6-0.3c-0.1-2.8-1-4.9-2.7-6.5c-1.7-1.6-3.6-2.4-5.7-2.4c-2.9,0-5.6,1.4-8.1,4.3
	c-2.4,2.9-3.7,7-3.7,12.4c0,3.3,0.4,6.8,1.1,10.7c0.7,3.8,1.1,7,1.1,9.7c0,3.2-0.7,6.1-2.2,8.7c-1.5,2.6-3.4,4.8-5.7,6.4
	c-2.3,1.5-4.9,2.2-7.6,2.2c-3.8,0-7.2-1.5-10.2-4.6c-3-3.2-4.5-7.6-4.5-13.4c0-2.8,0.3-5.9,1-9.4c0.6-3.5,1.4-7.1,2.2-10.7
	c0.8-3.7,1.6-7.2,2.2-10.3c0.6-3.3,1-6,1-8.1c0-2.2-0.4-4-1.3-5.2c-0.7-1.4-1.7-2.1-3-2.1c-2,0-4.1,1.4-6.2,4.1l-1-0.6
	c-0.1-1.7,0.3-3.7,1.1-6c0.8-2.3,2.2-4.6,4-6.7c1.8-2.2,4.1-4.1,6.8-5.6c2.9-1.5,6.2-2.2,10-2.2c5.6,0,9.7,1.6,12.2,4.9
	c2.5,3.2,3.8,7,3.8,11.6c0,0.7-0.1,1.5-0.2,2.4c0,0.7-0.1,1.5-0.2,2.2c3.8-6.9,7.8-12.1,11.9-15.7C303.6,50,307.5,48.1,311.1,48.1
	 M311.1,35.1c-6.4,0-12.8,2.6-19.1,7.7c-3.9-3.9-10.3-7.5-20.4-7.5c-5.9,0-11.3,1.2-16,3.7l-0.1,0l-0.1,0c-4.2,2.3-7.8,5.2-10.7,8.7
	c-2.8,3.3-4.8,6.8-6.2,10.5c-1.5,4.1-2.1,7.8-1.9,11.3l0.4,6.4l5.4,3.6l1,0.6l3.1,2.1c-0.4,1.9-0.8,3.8-1.3,5.8
	c-0.9,3.8-1.7,7.6-2.4,11.3c-0.8,4.2-1.2,8.2-1.2,11.7c0,9.1,2.7,16.6,7.9,22.2l0.1,0.1l0.1,0.1c5.4,5.6,12.2,8.6,19.5,8.6
	c5.3,0,10.2-1.4,14.6-4.3l0.2-0.1l0.2-0.1c4-2.7,7.3-6.3,9.7-10.7c2.6-4.6,3.9-9.7,3.9-15.1c0-3.5-0.4-7.5-1.4-12.2
	c-0.3-1.7-0.6-3.4-0.7-5l1.2,0.6l0.6,0.3l2.6,1.3l2.9,0.1c0.3,0,0.6,0,0.9,0c6.6,0,12.7-2.2,17.4-6.4c4.3-3.8,7.5-8.4,9.5-13.9
	c1.9-5,2.9-10,2.9-14.9c0-6.1-1.4-11.5-4.2-16.2C325.8,38.9,319,35.1,311.1,35.1L311.1,35.1z"/>
<path class="st0" d="M225,47.8c7.8,0,13.7,1.6,17.5,4.8c3.8,3.1,5.7,6.5,5.7,10.2c0,3.9-2,7.5-5.9,10.8c-3.9,3.3-9.6,4.9-17.2,4.9
	c0.4-1.6,0.7-3.2,1-4.8c0.3-1.7,0.5-3.3,0.5-4.8c0-2.2-0.5-4.1-1.4-5.6c-1-1.6-2.6-2.4-5.1-2.4c-2.2,0-4.6,1-7.2,3
	c-2.4,2-4.6,5-6.4,8.9c-1.7,3.9-2.5,8.7-2.5,14.5c0,5.6,0.9,10.2,2.7,13.7c1.9,3.5,4.3,6,7.3,7.6c3,1.5,6.1,2.2,9.4,2.2
	c4.3,0,8.5-1.1,12.6-3.3c4-2.3,6.9-5.5,8.7-9.5l1.6,0.6c0,5.5-1.3,10.2-3.8,14.2c-2.4,3.8-5.6,7-9.5,9.5c-3.9,2.4-8.1,4.2-12.6,5.4
	c-4.5,1.2-8.6,1.7-12.6,1.7c-7,0-12.9-1.6-17.8-4.8c-4.8-3.2-8.4-7.3-10.8-12.4c-2.4-5.2-3.7-10.8-3.7-16.7c0-5.6,1.1-11.2,3.2-16.9
	c2.2-5.6,5.5-10.8,9.7-15.4c4.2-4.8,9.4-8.5,15.4-11.3C210,49.3,217.1,47.8,225,47.8 M225,34.8c-9.8,0-18.8,1.8-26.6,5.5
	c-7.6,3.5-14.2,8.3-19.6,14.4c-5.3,5.8-9.3,12.3-12.1,19.3l0,0.1l0,0.1c-2.7,7.1-4,14.3-4,21.4c0,7.8,1.6,15.3,4.9,22.2l0,0l0,0
	c3.5,7.2,8.6,13.1,15.3,17.6l0.1,0l0.1,0c7,4.6,15.4,6.9,24.9,6.9c5,0,10.3-0.7,15.9-2.2c5.7-1.5,11.1-3.8,16.1-6.9l0.1-0.1l0.1-0.1
	c5.5-3.5,10-8.1,13.4-13.4c3.9-6,5.9-13.2,5.9-21.2v-8.8l-8.2-3.3l-1.6-0.6l-1.4-0.6c0.9-0.6,1.7-1.2,2.5-1.9
	c8.7-7.3,10.5-15.3,10.5-20.8c0-5.4-1.8-13.2-10.5-20.2C244.6,37.4,235.9,34.8,225,34.8L225,34.8z M217.3,91.5h7.9
	c3,0,5.9-0.2,8.5-0.6l-0.8,1.9c-0.7,1.5-1.7,2.6-3.3,3.5c-2.1,1.1-4.1,1.7-6.2,1.7c-1.2,0-2.3-0.2-3.4-0.8c-0.6-0.4-1.2-1.1-1.8-2.2
	C217.9,94.4,217.5,93.3,217.3,91.5L217.3,91.5z"/>
<path class="st0" d="M145.8,47.8c9.3,0,16.1,2.1,20.4,6.4c4.3,4.1,6.5,9.2,6.5,15.1c0,5.1-1.4,9.8-4.1,14.2
	c-2.6,4.2-6.2,7.7-10.7,10.3c-4.5,2.5-9.3,3.8-14.6,3.8c-2.8,0-5.6-0.4-8.4-1.3c-2.9-0.8-5.7-2.2-8.4-4c0.5,6.6,2.4,11.3,5.7,14.3
	c3.3,3,7.2,4.5,11.8,4.5c3.2,0,6.4-0.6,9.5-1.7c3.2-1.3,6.1-2.9,8.7-4.8c2.8-2,4.9-4.1,6.4-6.4l1.1,0.8c0,5.5-1.2,10.2-3.5,14.2
	c-2.2,3.8-5.2,6.9-8.9,9.4c-3.7,2.4-7.8,4.2-12.2,5.4c-4.3,1.1-8.7,1.6-13,1.6c-7.7,0-14.2-1.5-19.2-4.6c-5.1-3.2-8.9-7.3-11.4-12.4
	c-2.5-5.2-3.8-10.8-3.8-16.7c0-5.6,1.1-11.2,3.2-16.9c2.2-5.7,5.4-10.9,9.5-15.6c4.2-4.7,9.3-8.4,15.3-11.3
	C131.5,49.3,138.3,47.8,145.8,47.8 M135.6,86.6c3.4,0,6.1-1,8.3-2.9c2.1-2,3.7-4.3,4.8-7c1.1-2.7,1.6-5,1.6-7c0-2.4-0.7-4.5-2.1-6
	c-1.4-1.7-3.3-2.5-5.7-2.5c-1.9,0-4,0.7-6.4,2.1c-2.2,1.4-4.2,3.8-6,7.2c-1.8,3.3-3,7.9-3.5,13.8C129.9,85.8,133,86.6,135.6,86.6
	 M145.8,34.8c-9.4,0-18.2,1.9-25.9,5.5l0,0l0,0c-7.4,3.6-13.9,8.4-19.2,14.3l-0.1,0.1l-0.1,0.1c-5.1,5.8-9.2,12.4-11.9,19.5l0,0.1
	l0,0.1c-2.7,7.1-4,14.3-4,21.4c0,7.9,1.7,15.4,5.1,22.4l0,0l0,0c3.6,7.2,9.1,13.2,16.2,17.6l0.1,0.1l0.1,0.1
	c7.1,4.3,15.9,6.5,26,6.5c5.4,0,10.8-0.7,16.1-2l0.1,0l0.1,0c5.8-1.5,11.2-3.9,16.1-7.1c5.4-3.5,9.7-8.1,13-13.7
	c3.5-5.9,5.3-12.9,5.3-20.7v-6.7l-3-2.1c4-6.4,6-13.4,6-20.9c0-9.4-3.6-17.9-10.4-24.4C168.5,38.2,158.6,34.8,145.8,34.8L145.8,34.8
	z"/>
<path class="st2" d="M44.2,129.4c-7.1,0-13-1.2-17.7-3.7c-4.6-2.4-8-5.6-10.2-9.4c-2.2-3.8-3.3-7.7-3.3-11.8c0-3.9,1-7.6,2.9-11.1
	c1.9-3.6,4.6-6.6,8.1-8.9c3.6-2.3,7.8-3.5,12.7-3.5c-0.1,1-0.2,1.9-0.2,2.7c0,0.7,0,1.1,0,1.1c0,7.1,0.7,12.7,2.1,16.9
	c1.4,4,3.1,6.9,5.2,8.7c2.1,1.7,4.3,2.5,6.5,2.5c3.4,0,6.4-1.3,9.1-4c2.7-2.8,4-5.9,4-9.5c0-4-1.7-7.6-5.2-10.7
	c-3.4-3.1-7.7-6.5-13-10.2c-3-2.2-6.1-4.7-9.5-7.5c-3.3-2.9-6.1-6.2-8.4-10c-2.3-3.9-3.5-8.5-3.5-13.8c0-5.5,1.3-10.4,3.8-14.6
	c2.7-4.2,6.1-7.8,10.3-10.7c4.3-3,9.1-5.2,14.2-6.7c5.2-1.6,10.3-2.4,15.4-2.4c6.3,0,11.4,1,15.4,3c4,2,7.1,4.6,9.1,7.8
	c2,3.2,3,6.5,3,9.9c0,3.2-0.9,6.3-2.7,9.2c-1.7,2.9-4.2,5.2-7.6,7c-3.4,1.8-7.6,2.7-12.6,2.7c0.3-1.5,0.5-2.8,0.6-4
	c0.1-1.3,0.2-2.4,0.2-3.3c0-5.3-1.2-9.1-3.5-11.3c-2.2-2.3-4.7-3.5-7.5-3.5c-2.7,0-5.2,1-7.6,3c-2.4,1.9-3.7,5-3.7,9.4
	c0,3.7,1,6.9,2.9,9.5c2,2.7,4.6,5,7.6,7c3.2,2,6.5,4,10,5.9c3.6,1.9,7.1,4,10.3,6.4c3.4,2.2,6.2,4.9,8.4,8c2.2,3.1,3.3,6.9,3.3,11.6
	c0,4.9-1.3,9.6-4,14.3c-2.7,4.6-6.3,8.6-10.8,12.2c-4.6,3.5-9.8,6.3-15.7,8.4C56.8,128.3,50.6,129.4,44.2,129.4z"/>
<path class="st0" d="M67.4,13c6.3,0,11.4,1,15.4,3c4,2,7.1,4.6,9.1,7.8c2,3.2,3,6.5,3,9.9c0,3.2-0.9,6.3-2.7,9.2
	c-1.7,2.9-4.2,5.2-7.6,7c-3.4,1.8-7.6,2.7-12.6,2.7c0.3-1.5,0.5-2.8,0.6-4c0.1-1.3,0.2-2.4,0.2-3.3c0-5.3-1.2-9.1-3.5-11.3
	c-2.2-2.3-4.7-3.5-7.5-3.5c-2.7,0-5.2,1-7.6,3c-2.4,1.9-3.7,5-3.7,9.4c0,3.7,1,6.9,2.9,9.5c2,2.7,4.6,5,7.6,7c3.2,2,6.5,4,10,5.9
	c3.6,1.9,7.1,4,10.3,6.4c3.4,2.2,6.2,4.9,8.4,8c2.2,3.1,3.3,6.9,3.3,11.6c0,4.9-1.3,9.6-4,14.3c-2.7,4.6-6.3,8.6-10.8,12.2
	c-4.6,3.5-9.8,6.3-15.7,8.4c-5.8,2.1-12,3.2-18.4,3.2c-7.1,0-13-1.2-17.7-3.7c-4.6-2.4-8-5.6-10.2-9.4c-2.2-3.8-3.3-7.7-3.3-11.8
	c0-3.9,1-7.6,2.9-11.1c1.9-3.6,4.6-6.6,8.1-8.9c3.6-2.3,7.8-3.5,12.7-3.5c-0.1,1-0.2,1.9-0.2,2.7c0,0.7,0,1.1,0,1.1
	c0,7.1,0.7,12.7,2.1,16.9c1.4,4,3.1,6.9,5.2,8.7c2.1,1.7,4.3,2.5,6.5,2.5c3.4,0,6.4-1.3,9.1-4c2.7-2.8,4-5.9,4-9.5
	c0-4-1.7-7.6-5.2-10.7c-3.4-3.1-7.7-6.5-13-10.2c-3-2.2-6.1-4.7-9.5-7.5c-3.3-2.9-6.1-6.2-8.4-10c-2.3-3.9-3.5-8.5-3.5-13.8
	c0-5.5,1.3-10.4,3.8-14.6c2.7-4.2,6.1-7.8,10.3-10.7c4.3-3,9.1-5.2,14.2-6.7C57.2,13.8,62.3,13,67.4,13 M36.7,81.1L36.7,81.1
	 M67.4,0c-6.3,0-12.8,1-19.1,2.9c-6.3,1.9-12.3,4.7-17.7,8.4c-5.7,3.9-10.5,8.8-14.1,14.5l-0.1,0.1L16.3,26
	c-3.8,6.3-5.7,13.4-5.7,21.3c0,7.6,1.8,14.5,5.3,20.5l0,0.1l0,0.1c0.9,1.5,1.9,3,3,4.4c-0.7,0.4-1.4,0.8-2.1,1.3l-0.1,0l-0.1,0
	c-5.3,3.5-9.4,8.1-12.3,13.6C1.5,92.7,0,98.5,0,104.6c0,6.3,1.7,12.5,5.1,18.3c3.4,5.9,8.6,10.7,15.3,14.3l0.1,0l0.1,0
	c6.5,3.4,14.5,5.1,23.7,5.1c7.9,0,15.6-1.3,22.9-3.9c7.2-2.6,13.6-6,19.3-10.3l0.1-0.1l0.1-0.1c5.8-4.6,10.5-10,14-15.9l0-0.1l0-0.1
	c3.8-6.6,5.7-13.6,5.7-20.7c0-7.4-2-13.9-5.8-19.2c-2.8-3.9-6.3-7.3-10.4-10.2c0.3-0.1,0.5-0.3,0.8-0.4c5.5-2.9,9.8-6.9,12.7-11.8
	c3-5,4.6-10.4,4.6-15.9c0-5.9-1.7-11.5-5-16.8c-3.3-5.2-8.1-9.4-14.2-12.5C82.8,1.5,75.6,0,67.4,0L67.4,0z M36.7,68.1L36.7,68.1
	L36.7,68.1L36.7,68.1z"/>
<path class="st1" d="M412.3,254.2c-3.7,0-6.9-1.2-9.7-3.7c-2.8-2.4-4.1-6.4-4.1-11.9c0-0.5,0-1.1,0-1.6s0.1-1.1,0.2-1.6
	c-3.2,6.4-6.8,11.1-10.8,14.2c-3.9,3-7.9,4.5-11.9,4.5c-3.7,0-7.2-1.3-10.5-3.8c-3.3-2.7-5.9-6.5-8-11.6c-2-5.1-3-11.2-3-18.4
	c0-7.4,1-14,3-19.9c2.1-5.8,4.9-10.8,8.3-14.8c3.4-4,7.1-7.1,11.1-9.1c4-2.1,8-3.2,11.8-3.2c4.2,0,8.1,1.3,11.5,4
	c3.4,2.5,5.7,6.6,7,12.2c0.3-1.8,0.5-3.4,0.6-4.9c0.2-1.5,0.3-2.5,0.3-3c0.1-2.9,1.5-5,4.3-6.4c2.9-1.4,6-2.1,9.4-2.1
	c3,0,5.8,0.6,8.4,1.7s4.5,3.1,5.4,5.9l0.3,1c-1.3,2.9-2.5,6.3-3.8,10.3c-1.3,4-2.4,8.3-3.5,12.7c-1.1,4.3-1.9,8.6-2.5,12.9
	c-0.6,4.1-1,7.8-1,11c0,3.5,0.4,5.9,1.1,7.3c0.7,1.3,1.6,1.9,2.7,1.9c1.8,0,3.4-1.3,4.9-3.8l1.3,0.6c0,3.6-1.2,6.9-3.5,9.9
	c-2.3,3-5.2,5.4-8.7,7.2C419.3,253.4,415.8,254.2,412.3,254.2z M386.4,234c2.8,0,5.8-2.4,9.1-7.3c3.4-5,6.3-12.1,8.7-21.3
	c0.2-1,0.4-1.9,0.6-2.7c0.2-1,0.4-1.9,0.5-2.7c-1.7-3.9-3.5-6.7-5.4-8.3c-1.8-1.7-3.6-2.5-5.4-2.5c-2.6,0-5.1,1.4-7.5,4.3
	c-2.2,2.8-4.1,6.3-5.6,10.5c-1.4,4.2-2.1,8.5-2.1,12.7c0,5.8,0.6,10.2,1.9,13C382.7,232.6,384.4,234,386.4,234z"/>
<path class="st1" d="M326.5,254.1c-3.4,0-6.6-0.7-9.7-2.2c-3-1.6-5.4-4-7.3-7.3c-1.8-3.3-2.7-7.5-2.7-12.6c0-2.8,0.3-6.4,0.8-10.8
	c0.5-4.5,1.2-9.3,2.1-14.6c1-5.3,1.9-10.6,2.9-15.9c-2.1,0.1-4.2,0.3-6.2,0.6c-1.9,0.3-3.8,0.7-5.7,1.1l-0.3-1.1
	c2.1-2.5,4.3-4.7,6.7-6.5c2.3-1.8,4.8-3.3,7.3-4.5c1.4-7,2.5-13,3.5-18.1c1-5.2,1.4-8.3,1.4-9.2c0-1.8,1.4-3.3,4.1-4.5
	c2.9-1.2,6-1.8,9.5-1.8c3.1,0,5.9,0.6,8.6,1.8c2.8,1.2,4.6,3.1,5.6,5.9c-0.6,0.6-1.5,3-2.7,7.2c-1.2,4-2.4,9-3.7,14.8
	c2,0.1,4.1,0.2,6.2,0.3c2.1,0.1,4.3,0.3,6.5,0.5c0.2,0.6,0.4,1.3,0.5,2.1c0.1,0.7,0.2,1.5,0.2,2.4c0,1.6-0.3,3.3-0.8,5.2
	c-0.4,1.8-1,3.4-1.6,4.9c-2.5-0.2-4.9-0.4-7.2-0.6c-2.2-0.3-4.4-0.5-6.5-0.6c-0.8,4.6-1.6,9.1-2.4,13.7c-0.6,4.6-1.2,8.7-1.6,12.4
	c-0.3,3.7-0.5,6.6-0.5,8.7c0,4.5,0.8,7.4,2.4,8.9c1.7,1.5,3.7,2.2,6,2.2c2.1,0,4-0.4,5.7-1.3c1.7-0.8,2.9-1.9,3.7-3l1.6,0.5
	c-0.6,4.3-2.3,8.2-5.1,11.4c-2.8,3.2-6,5.7-9.9,7.5C334.1,253.2,330.3,254.1,326.5,254.1z"/>
<path class="st1" d="M233.3,253.9c-3.9,0-7.5-1.5-10.7-4.6c-3.2-3.2-4.8-7.6-4.8-13.2c0-2.8,0.4-5.9,1.1-9.4
	c0.7-3.5,1.5-7.1,2.4-10.7c1-3.6,1.8-7,2.5-10.2c0.7-3.2,1.1-5.8,1.1-7.8c0-2.1-0.4-3.8-1.3-4.9c-0.8-1.3-2-1.9-3.3-1.9
	c-1.8,0-3.8,1.1-5.9,3.2l-1-0.6c-0.1-1.7,0.3-3.7,1.1-6c0.8-2.3,2.1-4.6,3.8-6.7c1.8-2.2,4.1-4.1,6.8-5.6c2.8-1.5,6-2.2,9.9-2.2
	c5.6,0,9.8,1.6,12.4,4.9c2.8,3.2,4.1,7.1,4.1,11.8c0,1.7-0.2,3.3-0.5,4.9c2.2-3.3,5-6.6,8.3-9.9c3.3-3.4,6.9-6.2,10.8-8.4
	c4-2.2,8.2-3.3,12.4-3.3c5,0,8.4,1.6,10.2,4.8c1.8,3.2,2.7,7.2,2.7,11.9c0,4.5-0.5,9.2-1.4,14.3c-1,5.1-1.9,10-2.9,14.8
	c-1,4.7-1.4,8.6-1.4,11.8c0,4.2,1.2,6.4,3.7,6.4c1.3,0,2.4-0.4,3.3-1.1c1-0.8,1.6-1.6,1.9-2.4l1.1,0.5c0,3.9-1.1,7.4-3.3,10.3
	c-2.1,3-4.8,5.3-8.1,7c-3.3,1.6-6.6,2.4-10,2.4c-4.1,0-7.8-1.4-11-4.3c-3.2-2.9-4.8-7.5-4.8-14c0-3.8,0.5-8,1.4-12.4
	c1.1-4.5,2.1-8.7,3-12.9c1-4.1,1.4-7.5,1.4-10.2c0-1.6-0.3-2.8-1-3.7c-0.5-1-1.5-1.4-3-1.4c-2.4,0-5.1,1.1-8.1,3.3
	c-2.9,2.2-5.4,5.2-7.5,8.9c-2,3.7-3,7.8-3,12.2c0,2.9,0.3,5.6,1,8.3c0.7,2.7,1.1,5.5,1.1,8.6c0,5.7-1.5,10.1-4.5,13
	C240.7,252.4,237.2,253.9,233.3,253.9z"/>
<path class="st1" d="M187.6,254.2c-3.7,0-6.9-1.2-9.7-3.7c-2.8-2.4-4.1-6.4-4.1-11.9c0-0.5,0-1.1,0-1.6s0.1-1.1,0.2-1.6
	c-3.2,6.4-6.8,11.1-10.8,14.2c-3.9,3-7.9,4.5-11.9,4.5c-3.7,0-7.2-1.3-10.5-3.8c-3.3-2.7-5.9-6.5-8-11.6c-2-5.1-3-11.2-3-18.4
	c0-7.4,1-14,3-19.9c2.1-5.8,4.9-10.8,8.3-14.8c3.4-4,7.1-7.1,11.1-9.1c4-2.1,8-3.2,11.8-3.2c4.2,0,8.1,1.3,11.5,4
	c3.4,2.5,5.7,6.6,7,12.2c0.3-1.8,0.5-3.4,0.6-4.9c0.2-1.5,0.3-2.5,0.3-3c0.1-2.9,1.5-5,4.3-6.4c2.9-1.4,6-2.1,9.4-2.1
	c3,0,5.8,0.6,8.4,1.7c2.7,1.2,4.5,3.1,5.4,5.9l0.3,1c-1.3,2.9-2.5,6.3-3.8,10.3c-1.3,4-2.4,8.3-3.5,12.7c-1.1,4.3-1.9,8.6-2.5,12.9
	c-0.6,4.1-1,7.8-1,11c0,3.5,0.4,5.9,1.1,7.3c0.7,1.3,1.6,1.9,2.7,1.9c1.8,0,3.4-1.3,4.9-3.8l1.3,0.6c0,3.6-1.2,6.9-3.5,9.9
	c-2.3,3-5.2,5.4-8.7,7.2C194.6,253.4,191.1,254.2,187.6,254.2z M161.7,234c2.8,0,5.8-2.4,9.1-7.3c3.4-5,6.3-12.1,8.7-21.3
	c0.2-1,0.4-1.9,0.6-2.7c0.2-1,0.4-1.9,0.5-2.7c-1.7-3.9-3.5-6.7-5.4-8.3c-1.8-1.7-3.6-2.5-5.4-2.5c-2.6,0-5.1,1.4-7.5,4.3
	c-2.2,2.8-4.1,6.3-5.6,10.5c-1.4,4.2-2.1,8.5-2.1,12.7c0,5.8,0.6,10.2,1.9,13C158,232.6,159.7,234,161.7,234z"/>
<path class="st2" d="M132,129.6c-7.7,0-14.2-1.5-19.2-4.6c-5.1-3.2-8.9-7.3-11.4-12.4c-2.5-5.2-3.8-10.8-3.8-16.7
	c0-5.6,1.1-11.2,3.2-16.9c2.2-5.7,5.4-10.9,9.5-15.6c4.2-4.7,9.3-8.4,15.3-11.3c6-2.9,12.8-4.3,20.4-4.3c9.3,0,16.1,2.1,20.4,6.4
	c4.3,4.1,6.5,9.2,6.5,15.1c0,5.1-1.4,9.8-4.1,14.2c-2.6,4.2-6.2,7.7-10.7,10.3c-4.5,2.5-9.3,3.8-14.6,3.8c-2.8,0-5.6-0.4-8.4-1.3
	c-2.9-0.8-5.7-2.2-8.4-4c0.5,6.6,2.4,11.3,5.7,14.3c3.3,3,7.2,4.5,11.8,4.5c3.2,0,6.4-0.6,9.5-1.7c3.2-1.3,6.1-2.9,8.7-4.8
	c2.8-2,4.9-4.1,6.4-6.4l1.1,0.8c0,5.5-1.2,10.2-3.5,14.2c-2.2,3.8-5.2,6.9-8.9,9.4c-3.7,2.4-7.8,4.2-12.2,5.4
	C140.6,129,136.3,129.6,132,129.6z M135.6,86.6c3.4,0,6.1-1,8.3-2.9c2.1-2,3.7-4.3,4.8-7c1.1-2.7,1.6-5,1.6-7c0-2.4-0.7-4.5-2.1-6
	c-1.4-1.7-3.3-2.5-5.7-2.5c-1.9,0-4,0.7-6.4,2.1c-2.2,1.4-4.2,3.8-6,7.2c-1.8,3.3-3,7.9-3.5,13.8C129.9,85.8,133,86.6,135.6,86.6z"
	/>
<path class="st2" d="M207.9,129.6c-7,0-12.9-1.6-17.8-4.8c-4.8-3.2-8.4-7.3-10.8-12.4c-2.4-5.2-3.7-10.8-3.7-16.7
	c0-5.6,1.1-11.2,3.2-16.9c2.2-5.6,5.5-10.8,9.7-15.4c4.2-4.8,9.4-8.5,15.4-11.3c6.1-2.9,13.2-4.3,21.1-4.3c7.8,0,13.7,1.6,17.5,4.8
	c3.8,3.1,5.7,6.5,5.7,10.2c0,3.9-2,7.5-5.9,10.8c-3.9,3.3-9.6,4.9-17.2,4.9c0.4-1.6,0.7-3.2,1-4.8c0.3-1.7,0.5-3.3,0.5-4.8
	c0-2.2-0.5-4.1-1.4-5.6c-1-1.6-2.6-2.4-5.1-2.4c-2.2,0-4.6,1-7.2,3c-2.4,2-4.6,5-6.4,8.9c-1.7,3.9-2.5,8.7-2.5,14.5
	c0,5.6,0.9,10.2,2.7,13.7c1.9,3.5,4.3,6,7.3,7.6c3,1.5,6.1,2.2,9.4,2.2c4.3,0,8.5-1.1,12.6-3.3c4-2.3,6.9-5.5,8.7-9.5l1.6,0.6
	c0,5.5-1.3,10.2-3.8,14.2c-2.4,3.8-5.6,7-9.5,9.5c-3.9,2.4-8.1,4.2-12.6,5.4C216,129,211.8,129.6,207.9,129.6z"/>
<path class="st2" d="M269.4,129.1c-3.8,0-7.2-1.5-10.2-4.6c-3-3.2-4.5-7.6-4.5-13.4c0-2.8,0.3-5.9,1-9.4c0.6-3.5,1.4-7.1,2.2-10.7
	c0.8-3.7,1.6-7.2,2.2-10.3c0.6-3.3,1-6,1-8.1c0-2.2-0.4-4-1.3-5.2c-0.7-1.4-1.7-2.1-3-2.1c-2,0-4.1,1.4-6.2,4.1l-1-0.6
	c-0.1-1.7,0.3-3.7,1.1-6c0.8-2.3,2.2-4.6,4-6.7c1.8-2.2,4.1-4.1,6.8-5.6c2.9-1.5,6.2-2.2,10-2.2c5.6,0,9.7,1.6,12.2,4.9
	c2.5,3.2,3.8,7,3.8,11.6c0,0.7-0.1,1.5-0.2,2.4c0,0.7-0.1,1.5-0.2,2.2c3.8-6.9,7.8-12.1,11.9-15.7c4.2-3.7,8.2-5.6,11.8-5.6
	c3.4,0,5.9,1.3,7.5,4c1.6,2.7,2.4,5.8,2.4,9.5c0,3.4-0.7,6.8-2.1,10.3c-1.3,3.5-3.2,6.4-5.9,8.7c-2.5,2.2-5.7,3.3-9.4,3.2l-0.6-0.3
	c-0.1-2.8-1-4.9-2.7-6.5c-1.7-1.6-3.6-2.4-5.7-2.4c-2.9,0-5.6,1.4-8.1,4.3c-2.4,2.9-3.7,7-3.7,12.4c0,3.3,0.4,6.8,1.1,10.7
	c0.7,3.8,1.1,7,1.1,9.7c0,3.2-0.7,6.1-2.2,8.7c-1.5,2.6-3.4,4.8-5.7,6.4C274.7,128.3,272.2,129.1,269.4,129.1z"/>
<path class="st2" d="M351.5,129.6c-7.7,0-14.2-1.5-19.2-4.6c-5.1-3.2-8.9-7.3-11.4-12.4c-2.5-5.2-3.8-10.8-3.8-16.7
	c0-5.6,1.1-11.2,3.2-16.9c2.2-5.7,5.4-10.9,9.5-15.6c4.2-4.7,9.3-8.4,15.3-11.3c6-2.9,12.8-4.3,20.4-4.3c9.3,0,16.1,2.1,20.4,6.4
	c4.3,4.1,6.5,9.2,6.5,15.1c0,5.1-1.4,9.8-4.1,14.2c-2.6,4.2-6.2,7.7-10.7,10.3c-4.5,2.5-9.3,3.8-14.6,3.8c-2.8,0-5.6-0.4-8.4-1.3
	c-2.9-0.8-5.7-2.2-8.4-4c0.5,6.6,2.4,11.3,5.7,14.3c3.3,3,7.2,4.5,11.8,4.5c3.2,0,6.4-0.6,9.5-1.7c3.2-1.3,6.1-2.9,8.7-4.8
	c2.8-2,4.9-4.1,6.4-6.4l1.1,0.8c0,5.5-1.2,10.2-3.5,14.2c-2.2,3.8-5.2,6.9-8.9,9.4c-3.7,2.4-7.8,4.2-12.2,5.4
	C360.2,129,355.9,129.6,351.5,129.6z M355.2,86.6c3.4,0,6.1-1,8.3-2.9c2.1-2,3.7-4.3,4.8-7c1.1-2.7,1.6-5,1.6-7c0-2.4-0.7-4.5-2.1-6
	c-1.4-1.7-3.3-2.5-5.7-2.5c-1.9,0-4,0.7-6.4,2.1c-2.2,1.4-4.2,3.8-6,7.2c-1.8,3.3-3,7.9-3.5,13.8C349.5,85.8,352.5,86.6,355.2,86.6z
	"/>
<path class="st2" d="M418.8,129.1c-3.4,0-6.6-0.7-9.7-2.2c-3-1.6-5.4-4-7.3-7.3c-1.8-3.3-2.7-7.5-2.7-12.6c0-2.8,0.3-6.4,0.8-10.8
	c0.5-4.5,1.2-9.3,2.1-14.6c1-5.3,1.9-10.6,2.9-15.9c-2.1,0.1-4.2,0.3-6.2,0.6c-1.9,0.3-3.8,0.7-5.7,1.1l-0.3-1.1
	c2.1-2.5,4.3-4.7,6.7-6.5c2.3-1.8,4.8-3.3,7.3-4.5c1.4-7,2.5-13,3.5-18.1c1-5.2,1.4-8.3,1.4-9.2c0-1.8,1.4-3.3,4.1-4.5
	c2.9-1.2,6-1.7,9.5-1.7c3.1,0,5.9,0.6,8.6,1.7c2.8,1.2,4.6,3.1,5.6,5.9c-0.6,0.6-1.5,3-2.7,7.2c-1.2,4-2.4,9-3.7,14.8
	c2,0.1,4.1,0.2,6.2,0.3c2.1,0.1,4.3,0.3,6.5,0.5c0.2,0.6,0.4,1.3,0.5,2.1c0.1,0.7,0.2,1.5,0.2,2.4c0,1.6-0.3,3.3-0.8,5.2
	c-0.4,1.8-1,3.4-1.6,4.9c-2.5-0.2-4.9-0.4-7.2-0.6c-2.2-0.3-4.4-0.5-6.5-0.6c-0.8,4.6-1.6,9.1-2.4,13.7c-0.6,4.6-1.2,8.7-1.6,12.4
	c-0.3,3.7-0.5,6.6-0.5,8.7c0,4.5,0.8,7.4,2.4,8.9c1.7,1.5,3.7,2.2,6,2.2c2.1,0,4-0.4,5.7-1.3c1.7-0.8,2.9-1.9,3.7-3l1.6,0.5
	c-0.6,4.3-2.3,8.2-5.1,11.4c-2.8,3.2-6,5.7-9.9,7.5C426.5,128.2,422.7,129.1,418.8,129.1z"/>
</svg>
