<svg width="24" height="24" viewBox="0 0 24 24" fill="none" xmlns="http://www.w3.org/2000/svg">
<path fill-rule="evenodd" clip-rule="evenodd" d="M6.61339 5.20983C6.2211 4.9048 5.65387 4.93253 5.29338 5.29302C4.90286 5.68354 4.90286 6.3167 5.29338 6.70723L10.5863 12.0001L5.29338 17.293L5.21019 17.3872C4.90517 17.7795 4.9329 18.3467 5.29338 18.7072C5.68391 19.0978 6.31707 19.0978 6.7076 18.7072L12.0005 13.4143L17.2934 18.7072L17.3876 18.7904C17.7799 19.0954 18.3471 19.0677 18.7076 18.7072C19.0981 18.3167 19.0981 17.6835 18.7076 17.293L13.4147 12.0001L18.7076 6.70723L18.7908 6.61302C19.0958 6.22073 19.0681 5.6535 18.7076 5.29302C18.3171 4.90249 17.6839 4.90249 17.2934 5.29302L12.0005 10.5859L6.7076 5.29302L6.61339 5.20983Z" fill="white"/>
</svg>
