<svg width="24" height="24" viewBox="0 0 24 24" fill="none" xmlns="http://www.w3.org/2000/svg">
<path fill-rule="evenodd" clip-rule="evenodd" d="M2.29363 2.29277C2.65411 1.93229 3.22134 1.90456 3.61363 2.20958L3.70784 2.29277L17.9842 16.5691C18.0391 16.6133 18.09 16.6639 18.1357 16.7207L21.7078 20.2928C22.0984 20.6833 22.0984 21.3165 21.7078 21.707C21.3474 22.0675 20.7801 22.0952 20.3878 21.7902L20.2936 21.707L17.2066 18.6199C15.6026 19.5379 13.8628 19.9997 12.0005 19.9997C7.60488 19.9997 3.96397 17.4511 1.13226 12.4959C0.956546 12.1884 0.956567 11.8109 1.13231 11.5035C2.32322 9.42002 3.65323 7.7637 5.12762 6.54098L2.29363 3.70698C1.9031 3.31646 1.9031 2.6833 2.29363 2.29277ZM6.54914 7.9625C5.40989 8.87456 4.34636 10.1097 3.36219 11.6729L3.16149 11.9997L3.27908 12.1938C5.6305 15.9932 8.426 17.8898 11.7095 17.9951L12.0005 17.9997C13.3265 17.9997 14.5649 17.7152 15.7286 17.142L13.2953 14.7087C12.1791 15.2433 10.8008 15.048 9.87634 14.1228C8.95236 13.1982 8.75767 11.8208 9.29201 10.7054L6.54914 7.9625ZM11.2356 12.649L11.3517 12.7651C11.3309 12.7474 11.3107 12.7287 11.2911 12.7091C11.2716 12.6896 11.2531 12.6696 11.2356 12.649ZM11.9998 3.99974C16.3954 3.99974 20.0364 6.54839 22.8681 11.5036C23.0438 11.8111 23.0438 12.1886 22.868 12.4961C22.0532 13.9215 21.1752 15.1453 20.2312 16.1666C19.8563 16.5721 19.2237 16.597 18.8181 16.2222C18.4125 15.8473 18.3876 15.2146 18.7625 14.809C19.4128 14.1054 20.0354 13.2828 20.6295 12.3405L20.8388 11.9998L20.7213 11.8057C18.3698 8.00629 15.5741 6.10966 12.2876 6.00438L11.9964 5.99973C11.1987 5.99696 10.4047 6.10688 9.63788 6.32623C9.10689 6.47813 8.55331 6.17082 8.40141 5.63983C8.24952 5.10884 8.55683 4.55526 9.08781 4.40336C10.0357 4.13219 11.0173 3.99632 11.9998 3.99974Z" fill="white"/>
</svg>
