<svg width="24" height="24" viewBox="0 0 24 24" fill="none" xmlns="http://www.w3.org/2000/svg">
<path fill-rule="evenodd" clip-rule="evenodd" d="M14.9949 5.82373C14.9037 4.24892 13.5977 3 12 3H5L4.82373 3.00509C3.24892 3.09634 2 4.40232 2 6V18L2.00509 18.1763C2.09634 19.7511 3.40232 21 5 21H12L12.1763 20.9949C13.7511 20.9037 15 19.5977 15 18V16L14.9933 15.8834C14.9355 15.386 14.5128 15 14 15C13.4477 15 13 15.4477 13 16V18L12.9933 18.1166C12.9355 18.614 12.5128 19 12 19H5L4.88338 18.9933C4.38604 18.9355 4 18.5128 4 18V6L4.00673 5.88338C4.06449 5.38604 4.48716 5 5 5H12L12.1166 5.00673C12.614 5.06449 13 5.48716 13 6V8L13.0067 8.11662C13.0645 8.61396 13.4872 9 14 9C14.5523 9 15 8.55228 15 8V6L14.9949 5.82373ZM18.7071 8.29289L18.6129 8.2097L18.5114 8.14038C18.1275 7.91161 17.6233 7.96245 17.2929 8.29289L17.2097 8.3871C16.9047 8.77939 16.9324 9.34662 17.2929 9.70711L18.585 11H7L6.88338 11.0067C6.38604 11.0645 6 11.4872 6 12C6 12.5523 6.44772 13 7 13H18.584L17.2929 14.2929L17.2097 14.3871C16.9047 14.7794 16.9324 15.3466 17.2929 15.7071C17.6834 16.0976 18.3166 16.0976 18.7071 15.7071L21.6663 12.7489C21.7702 12.6552 21.8527 12.5407 21.9101 12.4151L21.9506 12.3111L21.9871 12.1651C22.0387 11.8678 21.9589 11.5446 21.7071 11.2929L18.7071 8.29289Z" fill="white"/>
</svg>
