<svg width="24" height="24" viewBox="0 0 24 24" fill="none" xmlns="http://www.w3.org/2000/svg">
<path fill-rule="evenodd" clip-rule="evenodd" d="M12.9933 4.88338C12.9355 4.38604 12.5128 4 12 4C11.4477 4 11 4.44772 11 5V11H5L4.88338 11.0067C4.38604 11.0645 4 11.4872 4 12C4 12.5523 4.44772 13 5 13H11V19L11.0067 19.1166C11.0645 19.614 11.4872 20 12 20C12.5523 20 13 19.5523 13 19V13H19L19.1166 12.9933C19.614 12.9355 20 12.5128 20 12C20 11.4477 19.5523 11 19 11H13V5L12.9933 4.88338Z" fill="white"/>
</svg>
