<svg width="24" height="24" viewBox="0 0 24 24" fill="none" xmlns="http://www.w3.org/2000/svg">
<path fill-rule="evenodd" clip-rule="evenodd" d="M11 14.9999C11 15.5522 11.4477 15.9999 12 15.9999C12.5523 15.9999 13 15.5522 13 14.9999C12.8512 13.7942 13.3874 12.6061 14.39 11.9199C16.0185 11.3181 17.0729 9.73455 17 7.99993C16.8552 5.656 14.8447 3.86896 12.5 3.99993H11.5C9.15526 3.86896 7.14484 5.656 7 7.99993C7 8.55221 7.44772 8.99993 8 8.99993C8.55228 8.99993 9 8.55221 9 7.99993C9.15643 6.76749 10.2633 5.88201 11.5 5.99993H12.5C13.7541 5.88352 14.8685 6.79737 15 8.04993C15.0509 8.93822 14.5089 9.75332 13.67 10.0499H13.58C11.8209 11.0485 10.8111 12.986 11 14.9999ZM11 18.9999C11 19.5522 11.4477 19.9999 12 19.9999C12.5523 19.9999 13 19.5522 13 18.9999C13 18.4476 12.5523 17.9999 12 17.9999C11.4477 17.9999 11 18.4476 11 18.9999Z" fill="white"/>
</svg>
