<svg width="24" height="24" viewBox="0 0 24 24" fill="none" xmlns="http://www.w3.org/2000/svg">
<path fill-rule="evenodd" clip-rule="evenodd" d="M13 3C14.5977 3 15.9037 4.24892 15.9949 5.82373L16 6V10H18C19.5977 10 20.9037 11.2489 20.9949 12.8237L21 13L20.9806 13.1961L19.9736 18.2282C19.5925 19.8538 18.4721 21.0241 17.1644 21.0082L17 21H10C9.12973 21 8.32438 20.7221 7.66785 20.2502L7.6 20.199C7.26045 20.6501 6.74061 20.9509 6.14926 20.9945L6 21H4C2.94564 21 2.08183 20.1841 2.00549 19.1493L2 19V12C2 10.9456 2.81588 10.0818 3.85074 10.0055L4 10H7C8.59768 10 9.90366 8.75108 9.99491 7.17627L10 7V6C10 4.34315 11.3431 3 13 3ZM13 5C12.4872 5 12.0645 5.38604 12.0067 5.88338L12 6V7C12 9.39808 10.3118 11.4018 8.05897 11.8876L8 11.898V17C8 18.0544 8.81588 18.9182 9.85074 18.9945L10 19L17.0848 19.0036C17.3784 19.0286 17.7714 18.6583 17.9757 17.9687L18.0194 17.8039L18.995 12.921L18.9933 12.8834C18.94 12.4243 18.5757 12.06 18.1166 12.0067L18 12H15C14.4872 12 14.0645 11.614 14.0067 11.1166L14 11V6C14 5.44772 13.5523 5 13 5ZM6 19V12H4V19H6Z" fill="white"/>
</svg>
