<svg width="24" height="24" viewBox="0 0 24 24" fill="none" xmlns="http://www.w3.org/2000/svg">
<path fill-rule="evenodd" clip-rule="evenodd" d="M16.9152 3.0036C18.3212 2.88399 19.484 3.98817 19.9305 5.60718L19.9806 5.80389L20.9806 10.8039L21 11C21 12.5977 19.7511 13.9037 18.1763 13.9949L18 14L16 13.999V18C16 19.5977 14.7511 20.9037 13.1763 20.9949L13 21C11.4023 21 10.0963 19.7511 10.0051 18.1763L10 18V17C10 15.4023 8.75108 14.0963 7.17627 14.0051L7 14H4C2.94564 14 2.08183 13.1841 2.00549 12.1493L2 12V5C2 3.94564 2.81588 3.08184 3.85074 3.00549L4 3H6C6.59336 3 7.12638 3.2584 7.49265 3.66881L7.6 3.8L7.66785 3.74985C8.27388 3.31423 9.00671 3.04391 9.80036 3.0049L10 3L16.9152 3.0036ZM17.0863 5.00052L10 5C8.94564 5 8.08183 5.81588 8.00549 6.85074L8 6.999V12.101L8.05897 12.1124C10.2435 12.5834 11.8972 14.4819 11.9954 16.7831L12 17V18C12 18.5523 12.4477 19 13 19C13.5128 19 13.9355 18.614 13.9933 18.1166L14 18V13C14 12.4872 14.386 12.0645 14.8834 12.0067L15 12H18C18.5128 12 18.9355 11.614 18.9933 11.1166L18.995 11.077L18.0264 6.22824C17.8463 5.46012 17.4614 5.03317 17.0863 5.00052ZM4 12L6 11.999V5H4V12Z" fill="white"/>
</svg>
